OHamburgC-Black.ufo
<glyph name="exclam" format="2">
  <advance width="234"/>
  <unicode hex="0021"/>
  <outline>
    <contour>
      <point x="117" y="-28" type="curve" smooth="yes"/>
      <point x="151" y="-28"/>
      <point x="173" y="0"/>
      <point x="179" y="34" type="curve" smooth="yes"/>
      <point x="185" y="68"/>
      <point x="157" y="96"/>
      <point x="117" y="96" type="curve" smooth="yes"/>
      <point x="83" y="96"/>
      <point x="55" y="68"/>
      <point x="55" y="34" type="curve" smooth="yes"/>
      <point x="55" y="0"/>
      <point x="83" y="-28"/>
    </contour>
    <contour>
      <point x="70" y="176" type="curve"/>
      <point x="166" y="184" type="line"/>
      <point x="164" y="319"/>
      <point x="173" y="475"/>
      <point x="189" y="630" type="curve"/>
      <point x="45" y="618" type="line"/>
      <point x="63" y="467"/>
      <point x="74" y="307"/>
    </contour>
  </outline>
</glyph>
<glyph name="quotedbl" format="2">
  <advance width="354"/>
  <unicode hex="0022"/>
  <outline>
    <contour>
      <point x="69" y="428" type="line"/>
      <point x="90" y="428" type="line"/>
      <point x="140" y="606" type="line"/>
      <point x="149" y="640"/>
      <point x="134" y="664"/>
      <point x="106" y="664" type="curve" smooth="yes"/>
      <point x="77" y="664"/>
      <point x="59" y="640"/>
      <point x="60" y="606" type="curve"/>
    </contour>
    <contour>
      <point x="220" y="428" type="line"/>
      <point x="241" y="428" type="line"/>
      <point x="291" y="606" type="line"/>
      <point x="300" y="640"/>
      <point x="285" y="664"/>
      <point x="257" y="664" type="curve" smooth="yes"/>
      <point x="228" y="664"/>
      <point x="210" y="640"/>
      <point x="211" y="606" type="curve"/>
    </contour>
  </outline>
</glyph>
<glyph name="numbersign" format="2">
  <advance width="517"/>
  <unicode hex="0023"/>
  <outline>
    <contour>
      <point x="220" y="616" type="line"/>
      <point x="69" y="0" type="line"/>
      <point x="107" y="0" type="line"/>
      <point x="258" y="616" type="line"/>
    </contour>
    <contour>
      <point x="424" y="616" type="line"/>
      <point x="273" y="0" type="line"/>
      <point x="311" y="0" type="line"/>
      <point x="462" y="616" type="line"/>
    </contour>
    <contour>
      <point x="10" y="231" type="line"/>
      <point x="0" y="191" type="line"/>
      <point x="483" y="191" type="line"/>
      <point x="493" y="231" type="line"/>
    </contour>
    <contour>
      <point x="34" y="414" type="line"/>
      <point x="24" y="374" type="line"/>
      <point x="507" y="374" type="line"/>
      <point x="517" y="414" type="line"/>
    </contour>
  </outline>
</glyph>
<glyph name="dollar" format="2">
  <advance width="556"/>
  <unicode hex="0024"/>
  <anchor x="267" y="0" name="bottom"/>
  <anchor x="267" y="634" name="top"/>
  <outline>
    <contour>
      <point x="245" y="-134" type="line"/>
      <point x="310" y="-134" type="line"/>
      <point x="310" y="766" type="line"/>
      <point x="245" y="766" type="line"/>
    </contour>
    <component base="S"/>
  </outline>
</glyph>
<glyph name="percent" format="2">
  <advance width="648"/>
  <unicode hex="0025"/>
  <outline>
    <contour>
      <point x="86" y="-2" type="line"/>
      <point x="135" y="-2" type="line"/>
      <point x="564" y="614" type="line"/>
      <point x="515" y="614" type="line"/>
    </contour>
    <contour>
      <point x="476" y="-16" type="curve" smooth="yes"/>
      <point x="550" y="-16"/>
      <point x="603" y="54"/>
      <point x="603" y="153" type="curve" smooth="yes"/>
      <point x="603" y="244"/>
      <point x="550" y="308"/>
      <point x="476" y="308" type="curve" smooth="yes"/>
      <point x="401" y="308"/>
      <point x="348" y="242"/>
      <point x="348" y="149" type="curve" smooth="yes"/>
      <point x="348" y="52"/>
      <point x="401" y="-16"/>
    </contour>
    <contour>
      <point x="483" y="10" type="curve" smooth="yes"/>
      <point x="440" y="10"/>
      <point x="428" y="73"/>
      <point x="428" y="161" type="curve" smooth="yes"/>
      <point x="428" y="232"/>
      <point x="435" y="282"/>
      <point x="470" y="282" type="curve" smooth="yes"/>
      <point x="512" y="282"/>
      <point x="523" y="223"/>
      <point x="523" y="139" type="curve" smooth="yes"/>
      <point x="523" y="63"/>
      <point x="517" y="10"/>
    </contour>
    <contour>
      <point x="173" y="304" type="curve" smooth="yes"/>
      <point x="247" y="304"/>
      <point x="300" y="374"/>
      <point x="300" y="473" type="curve" smooth="yes"/>
      <point x="300" y="563"/>
      <point x="247" y="627"/>
      <point x="173" y="627" type="curve" smooth="yes"/>
      <point x="98" y="627"/>
      <point x="45" y="562"/>
      <point x="45" y="469" type="curve" smooth="yes"/>
      <point x="45" y="372"/>
      <point x="98" y="304"/>
    </contour>
    <contour>
      <point x="179" y="330" type="curve" smooth="yes"/>
      <point x="137" y="330"/>
      <point x="125" y="393"/>
      <point x="125" y="481" type="curve" smooth="yes"/>
      <point x="125" y="551"/>
      <point x="132" y="601"/>
      <point x="167" y="601" type="curve" smooth="yes"/>
      <point x="209" y="601"/>
      <point x="220" y="542"/>
      <point x="220" y="459" type="curve" smooth="yes"/>
      <point x="220" y="383"/>
      <point x="214" y="330"/>
    </contour>
  </outline>
</glyph>
<glyph name="ampersand" format="2">
  <advance width="849"/>
  <unicode hex="0026"/>
  <outline>
    <contour>
      <point x="293" y="-11" type="curve" smooth="yes"/>
      <point x="499" y="-11"/>
      <point x="644" y="114"/>
      <point x="710" y="324" type="curve" smooth="yes"/>
      <point x="720" y="356"/>
      <point x="775" y="368"/>
      <point x="826" y="368" type="curve"/>
      <point x="826" y="399" type="line"/>
      <point x="554" y="399" type="line"/>
      <point x="554" y="369" type="line"/>
      <point x="606" y="368"/>
      <point x="637" y="354"/>
      <point x="636" y="329" type="curve" smooth="yes"/>
      <point x="636" y="311"/>
      <point x="634" y="288"/>
      <point x="628" y="272" type="curve" smooth="yes"/>
      <point x="575" y="131"/>
      <point x="480" y="43"/>
      <point x="366" y="43" type="curve" smooth="yes"/>
      <point x="276" y="43"/>
      <point x="212" y="108"/>
      <point x="212" y="199" type="curve" smooth="yes"/>
      <point x="212" y="359"/>
      <point x="520" y="388"/>
      <point x="520" y="558" type="curve" smooth="yes"/>
      <point x="520" y="611"/>
      <point x="462" y="645"/>
      <point x="369" y="645" type="curve" smooth="yes"/>
      <point x="255" y="645"/>
      <point x="184" y="583"/>
      <point x="184" y="484" type="curve" smooth="yes"/>
      <point x="184" y="414"/>
      <point x="240" y="309"/>
      <point x="329" y="213" type="curve" smooth="yes"/>
      <point x="458" y="74"/>
      <point x="563" y="-14"/>
      <point x="629" y="-14" type="curve" smooth="yes"/>
      <point x="701" y="-14"/>
      <point x="786" y="-6"/>
      <point x="834" y="6" type="curve"/>
      <point x="825" y="33" type="line"/>
      <point x="815" y="31"/>
      <point x="804" y="29"/>
      <point x="796" y="28" type="curve" smooth="yes"/>
      <point x="721" y="21"/>
      <point x="601" y="115"/>
      <point x="466" y="258" type="curve" smooth="yes"/>
      <point x="368" y="362"/>
      <point x="310" y="444"/>
      <point x="310" y="525" type="curve" smooth="yes"/>
      <point x="310" y="580"/>
      <point x="334" y="615"/>
      <point x="372" y="615" type="curve" smooth="yes"/>
      <point x="401" y="615"/>
      <point x="422" y="577"/>
      <point x="422" y="542" type="curve" smooth="yes"/>
      <point x="422" y="407"/>
      <point x="60" y="346"/>
      <point x="60" y="153" type="curve" smooth="yes"/>
      <point x="60" y="57"/>
      <point x="157" y="-11"/>
    </contour>
  </outline>
</glyph>
<glyph name="quotesingle" format="2">
  <advance width="210"/>
  <unicode hex="0027"/>
  <outline>
    <contour>
      <point x="60" y="428" type="line"/>
      <point x="81" y="428" type="line"/>
      <point x="147" y="606" type="line"/>
      <point x="156" y="640"/>
      <point x="141" y="664"/>
      <point x="113" y="664" type="curve" smooth="yes"/>
      <point x="84" y="664"/>
      <point x="66" y="640"/>
      <point x="67" y="606" type="curve"/>
    </contour>
  </outline>
</glyph>
<glyph name="parenleft" format="2">
  <advance width="291"/>
  <unicode hex="0028"/>
  <outline>
    <contour>
      <point x="158" y="281" type="curve" smooth="yes"/>
      <point x="158" y="437"/>
      <point x="212" y="607"/>
      <point x="276" y="692" type="curve"/>
      <point x="221" y="720" type="line"/>
      <point x="128" y="634"/>
      <point x="60" y="452"/>
      <point x="60" y="281" type="curve" smooth="yes"/>
      <point x="60" y="110"/>
      <point x="128" y="-72"/>
      <point x="221" y="-158" type="curve"/>
      <point x="276" y="-130" type="line"/>
      <point x="212" y="-45"/>
      <point x="158" y="125"/>
    </contour>
  </outline>
</glyph>
<glyph name="parenright" format="2">
  <advance width="291"/>
  <unicode hex="0029"/>
  <outline>
    <contour>
      <point x="133" y="281" type="curve" smooth="yes"/>
      <point x="133" y="125"/>
      <point x="79" y="-45"/>
      <point x="15" y="-130" type="curve"/>
      <point x="70" y="-158" type="line"/>
      <point x="163" y="-72"/>
      <point x="231" y="110"/>
      <point x="231" y="281" type="curve" smooth="yes"/>
      <point x="231" y="452"/>
      <point x="163" y="634"/>
      <point x="70" y="720" type="curve"/>
      <point x="15" y="692" type="line"/>
      <point x="79" y="607"/>
      <point x="133" y="437"/>
    </contour>
  </outline>
</glyph>
<glyph name="asterisk" format="2">
  <advance width="432"/>
  <unicode hex="002A"/>
  <outline>
    <contour>
      <point x="212" y="545" type="curve" smooth="yes"/>
      <point x="220" y="545" type="line"/>
      <point x="220" y="556"/>
      <point x="251" y="621"/>
      <point x="251" y="643" type="curve" smooth="yes"/>
      <point x="251" y="668"/>
      <point x="235" y="684"/>
      <point x="213" y="684" type="curve" smooth="yes"/>
      <point x="189" y="684"/>
      <point x="173" y="669"/>
      <point x="173" y="644" type="curve" smooth="yes"/>
      <point x="173" y="627"/>
      <point x="212" y="557"/>
    </contour>
    <contour>
      <point x="247" y="536" type="curve" smooth="yes"/>
      <point x="254" y="529" type="line"/>
      <point x="262" y="536"/>
      <point x="327" y="559"/>
      <point x="345" y="578" type="curve"/>
      <point x="361" y="594"/>
      <point x="362" y="618"/>
      <point x="346" y="634" type="curve" smooth="yes"/>
      <point x="330" y="649"/>
      <point x="306" y="649"/>
      <point x="290" y="632" type="curve" smooth="yes"/>
      <point x="277" y="621"/>
      <point x="254" y="544"/>
    </contour>
    <contour>
      <point x="263" y="502" type="curve" smooth="yes"/>
      <point x="263" y="492" type="line"/>
      <point x="274" y="492"/>
      <point x="336" y="461"/>
      <point x="361" y="461" type="curve" smooth="yes"/>
      <point x="384" y="461"/>
      <point x="402" y="479"/>
      <point x="402" y="501" type="curve" smooth="yes"/>
      <point x="402" y="523"/>
      <point x="384" y="539"/>
      <point x="362" y="539" type="curve" smooth="yes"/>
      <point x="343" y="539"/>
      <point x="275" y="502"/>
    </contour>
    <contour>
      <point x="254" y="470" type="curve" smooth="yes"/>
      <point x="247" y="461" type="line"/>
      <point x="254" y="454"/>
      <point x="277" y="389"/>
      <point x="293" y="369" type="curve" smooth="yes"/>
      <point x="312" y="353"/>
      <point x="334" y="352"/>
      <point x="352" y="368" type="curve" smooth="yes"/>
      <point x="367" y="386"/>
      <point x="367" y="408"/>
      <point x="350" y="426" type="curve" smooth="yes"/>
      <point x="336" y="439"/>
      <point x="262" y="460"/>
    </contour>
    <contour>
      <point x="222" y="452" type="curve" smooth="yes"/>
      <point x="212" y="452" type="line"/>
      <point x="212" y="440"/>
      <point x="181" y="378"/>
      <point x="181" y="353" type="curve" smooth="yes"/>
      <point x="181" y="330"/>
      <point x="197" y="312"/>
      <point x="220" y="312" type="curve" smooth="yes"/>
      <point x="243" y="312"/>
      <point x="259" y="328"/>
      <point x="259" y="352" type="curve" smooth="yes"/>
      <point x="259" y="369"/>
      <point x="222" y="439"/>
    </contour>
    <contour>
      <point x="186" y="460" type="curve" smooth="yes"/>
      <point x="179" y="467" type="line"/>
      <point x="172" y="460"/>
      <point x="107" y="437"/>
      <point x="89" y="421" type="curve"/>
      <point x="71" y="402"/>
      <point x="71" y="380"/>
      <point x="86" y="362" type="curve" smooth="yes"/>
      <point x="104" y="347"/>
      <point x="126" y="347"/>
      <point x="142" y="364" type="curve" smooth="yes"/>
      <point x="157" y="378"/>
      <point x="178" y="452"/>
    </contour>
    <contour>
      <point x="170" y="495" type="curve" smooth="yes"/>
      <point x="170" y="504" type="line"/>
      <point x="160" y="504"/>
      <point x="95" y="535"/>
      <point x="73" y="535" type="curve" smooth="yes"/>
      <point x="46" y="535"/>
      <point x="30" y="519"/>
      <point x="30" y="495" type="curve" smooth="yes"/>
      <point x="30" y="474"/>
      <point x="46" y="457"/>
      <point x="71" y="457" type="curve" smooth="yes"/>
      <point x="89" y="457"/>
      <point x="158" y="495"/>
    </contour>
    <contour>
      <point x="179" y="529" type="curve" smooth="yes"/>
      <point x="186" y="535" type="line"/>
      <point x="178" y="544"/>
      <point x="157" y="607"/>
      <point x="138" y="627" type="curve" smooth="yes"/>
      <point x="121" y="643"/>
      <point x="96" y="644"/>
      <point x="82" y="628" type="curve" smooth="yes"/>
      <point x="65" y="613"/>
      <point x="65" y="588"/>
      <point x="83" y="572" type="curve" smooth="yes"/>
      <point x="95" y="559"/>
      <point x="170" y="536"/>
    </contour>
  </outline>
</glyph>
<glyph name="plus" format="2">
  <advance width="576"/>
  <unicode hex="002B"/>
  <outline>
    <contour>
      <point x="262" y="28" type="line"/>
      <point x="312" y="28" type="line"/>
      <point x="312" y="256" type="line"/>
      <point x="531" y="256" type="line"/>
      <point x="531" y="306" type="line"/>
      <point x="312" y="306" type="line"/>
      <point x="312" y="528" type="line"/>
      <point x="262" y="528" type="line"/>
      <point x="262" y="306" type="line"/>
      <point x="45" y="306" type="line"/>
      <point x="45" y="256" type="line"/>
      <point x="262" y="256" type="line"/>
    </contour>
  </outline>
</glyph>
<glyph name="comma" format="2">
  <advance width="292"/>
  <unicode hex="002C"/>
  <outline>
    <contour>
      <point x="57" y="-179" type="curve"/>
      <point x="71" y="-217" type="line"/>
      <point x="177" y="-175"/>
      <point x="247" y="-74"/>
      <point x="247" y="26" type="curve" smooth="yes"/>
      <point x="247" y="109"/>
      <point x="202" y="161"/>
      <point x="132" y="161" type="curve" smooth="yes"/>
      <point x="81" y="161"/>
      <point x="45" y="127"/>
      <point x="45" y="69" type="curve" smooth="yes"/>
      <point x="45" y="38"/>
      <point x="64" y="8"/>
      <point x="93" y="8" type="curve" smooth="yes"/>
      <point x="118" y="8"/>
      <point x="122" y="18"/>
      <point x="143" y="18" type="curve" smooth="yes"/>
      <point x="163" y="18"/>
      <point x="174" y="-5"/>
      <point x="174" y="-37" type="curve" smooth="yes"/>
      <point x="174" y="-106"/>
      <point x="125" y="-161"/>
    </contour>
  </outline>
</glyph>
<glyph name="hyphen" format="2">
  <advance width="366"/>
  <unicode hex="002D"/>
  <outline>
    <contour>
      <point x="33" y="197" type="line"/>
      <point x="333" y="202" type="line"/>
      <point x="336" y="278" type="line"/>
      <point x="277" y="278" type="line"/>
      <point x="80" y="261" type="line"/>
      <point x="30" y="251" type="line"/>
    </contour>
  </outline>
</glyph>
<glyph name="period" format="2">
  <advance width="268"/>
  <unicode hex="002E"/>
  <outline>
    <contour>
      <point x="134" y="-31" type="curve" smooth="yes"/>
      <point x="186" y="-31"/>
      <point x="223" y="5"/>
      <point x="223" y="56" type="curve" smooth="yes"/>
      <point x="223" y="107"/>
      <point x="186" y="143"/>
      <point x="134" y="143" type="curve" smooth="yes"/>
      <point x="82" y="143"/>
      <point x="45" y="107"/>
      <point x="45" y="56" type="curve" smooth="yes"/>
      <point x="45" y="5"/>
      <point x="82" y="-31"/>
    </contour>
  </outline>
</glyph>
<glyph name="slash" format="2">
  <advance width="384"/>
  <unicode hex="002F"/>
  <outline>
    <contour>
      <point x="30" y="-162" type="line"/>
      <point x="83" y="-162" type="line"/>
      <point x="354" y="694" type="line"/>
      <point x="301" y="694" type="line"/>
    </contour>
  </outline>
</glyph>
<glyph name="zero" format="2">
  <advance width="584"/>
  <unicode hex="0030"/>
  <outline>
    <contour>
      <point x="289" y="-11" type="curve" smooth="yes"/>
      <point x="448" y="-11"/>
      <point x="554" y="134"/>
      <point x="554" y="339" type="curve" smooth="yes"/>
      <point x="554" y="518"/>
      <point x="448" y="644"/>
      <point x="289" y="644" type="curve" smooth="yes"/>
      <point x="133" y="644"/>
      <point x="30" y="518"/>
      <point x="30" y="339" type="curve" smooth="yes"/>
      <point x="30" y="134"/>
      <point x="133" y="-11"/>
    </contour>
    <contour>
      <point x="317" y="28" type="curve" smooth="yes"/>
      <point x="247" y="22"/>
      <point x="189" y="146"/>
      <point x="177" y="326" type="curve" smooth="yes"/>
      <point x="166" y="482"/>
      <point x="200" y="597"/>
      <point x="259" y="602" type="curve" smooth="yes"/>
      <point x="337" y="609"/>
      <point x="398" y="504"/>
      <point x="407" y="350" type="curve" smooth="yes"/>
      <point x="419" y="169"/>
      <point x="381" y="35"/>
    </contour>
  </outline>
</glyph>
<glyph name="one" format="2">
  <advance width="493"/>
  <unicode hex="0031"/>
  <outline>
    <contour>
      <point x="67" y="0" type="line"/>
      <point x="147" y="3"/>
      <point x="358" y="3"/>
      <point x="457" y="0" type="curve"/>
      <point x="457" y="29" type="line"/>
      <point x="405" y="33"/>
      <point x="370" y="37"/>
      <point x="360" y="44" type="curve" smooth="yes"/>
      <point x="342" y="56"/>
      <point x="329" y="63"/>
      <point x="328" y="105" type="curve" smooth="yes"/>
      <point x="327" y="138"/>
      <point x="328" y="410"/>
      <point x="328" y="483" type="curve" smooth="yes"/>
      <point x="328" y="534"/>
      <point x="330" y="606"/>
      <point x="334" y="646" type="curve"/>
      <point x="44" y="557" type="line"/>
      <point x="44" y="524" type="line"/>
      <point x="100" y="540"/>
      <point x="180" y="554"/>
      <point x="180" y="494" type="curve" smooth="yes"/>
      <point x="180" y="434"/>
      <point x="181" y="124"/>
      <point x="180" y="101" type="curve" smooth="yes"/>
      <point x="179" y="68"/>
      <point x="163" y="58"/>
      <point x="146" y="47" type="curve" smooth="yes"/>
      <point x="135" y="40"/>
      <point x="118" y="34"/>
      <point x="67" y="29" type="curve"/>
    </contour>
  </outline>
</glyph>
<glyph name="two" format="2">
  <advance width="520"/>
  <unicode hex="0032"/>
  <outline>
    <contour>
      <point x="47" y="-4" type="line"/>
      <point x="179" y="4"/>
      <point x="390" y="4"/>
      <point x="461" y="-4" type="curve"/>
      <point x="490" y="135" type="line"/>
      <point x="480" y="144" type="line"/>
      <point x="418" y="114"/>
      <point x="234" y="96"/>
      <point x="141" y="96" type="curve"/>
      <point x="140" y="61" type="line"/>
      <point x="348" y="245"/>
      <point x="448" y="369"/>
      <point x="445" y="486" type="curve" smooth="yes"/>
      <point x="440" y="568"/>
      <point x="397" y="644"/>
      <point x="281" y="646" type="curve" smooth="yes"/>
      <point x="184" y="646"/>
      <point x="71" y="589"/>
      <point x="15" y="509" type="curve"/>
      <point x="40" y="487" type="line"/>
      <point x="93" y="543"/>
      <point x="148" y="573"/>
      <point x="193" y="572" type="curve" smooth="yes"/>
      <point x="262" y="570"/>
      <point x="291" y="502"/>
      <point x="289" y="439" type="curve" smooth="yes"/>
      <point x="287" y="349"/>
      <point x="236" y="203"/>
      <point x="36" y="26" type="curve"/>
    </contour>
  </outline>
</glyph>
<glyph name="three" format="2">
  <advance width="497"/>
  <unicode hex="0033"/>
  <outline>
    <contour>
      <point x="42" y="-32" type="line"/>
      <point x="267" y="11"/>
      <point x="452" y="131"/>
      <point x="452" y="258" type="curve" smooth="yes"/>
      <point x="452" y="336"/>
      <point x="367" y="392"/>
      <point x="247" y="392" type="curve" smooth="yes"/>
      <point x="234" y="392"/>
      <point x="186" y="382"/>
      <point x="161" y="374" type="curve" smooth="yes"/>
      <point x="155" y="372"/>
      <point x="145" y="363"/>
      <point x="80" y="347" type="curve"/>
      <point x="99" y="316" type="line"/>
      <point x="133" y="327"/>
      <point x="150" y="334"/>
      <point x="166" y="334" type="curve" smooth="yes"/>
      <point x="244" y="334"/>
      <point x="299" y="290"/>
      <point x="299" y="228" type="curve" smooth="yes"/>
      <point x="299" y="128"/>
      <point x="173" y="36"/>
      <point x="30" y="7" type="curve"/>
    </contour>
    <contour>
      <point x="99" y="316" type="line"/>
      <point x="125" y="326"/>
      <point x="135" y="335"/>
      <point x="152" y="341" type="curve" smooth="yes"/>
      <point x="312" y="399"/>
      <point x="426" y="488"/>
      <point x="426" y="555" type="curve" smooth="yes"/>
      <point x="426" y="607"/>
      <point x="378" y="643"/>
      <point x="259" y="643" type="curve" smooth="yes"/>
      <point x="198" y="643"/>
      <point x="98" y="609"/>
      <point x="42" y="562" type="curve"/>
      <point x="63" y="532" type="line"/>
      <point x="111" y="564"/>
      <point x="150" y="587"/>
      <point x="181" y="587" type="curve" smooth="yes"/>
      <point x="230" y="587"/>
      <point x="265" y="562"/>
      <point x="265" y="526" type="curve" smooth="yes"/>
      <point x="265" y="456"/>
      <point x="181" y="381"/>
      <point x="80" y="347" type="curve"/>
    </contour>
  </outline>
</glyph>
<glyph name="four" format="2">
  <advance width="551"/>
  <unicode hex="0034"/>
  <outline>
    <contour>
      <point x="286" y="1" type="curve"/>
      <point x="435" y="1" type="line"/>
      <point x="431" y="167"/>
      <point x="431" y="429"/>
      <point x="440" y="634" type="curve"/>
      <point x="319" y="634" type="line"/>
      <point x="15" y="192" type="line"/>
      <point x="15" y="155" type="line"/>
      <point x="195" y="173"/>
      <point x="359" y="167"/>
      <point x="521" y="146" type="curve"/>
      <point x="521" y="219" type="line"/>
      <point x="370" y="216"/>
      <point x="216" y="213"/>
      <point x="47" y="195" type="curve"/>
      <point x="93" y="196" type="line"/>
      <point x="359" y="575" type="line"/>
      <point x="297" y="572" type="line"/>
      <point x="296" y="394"/>
      <point x="290" y="155"/>
    </contour>
  </outline>
</glyph>
<glyph name="five" format="2">
  <advance width="517"/>
  <unicode hex="0035"/>
  <outline>
    <contour>
      <point x="85" y="-35" type="line"/>
      <point x="288" y="9"/>
      <point x="431" y="126"/>
      <point x="431" y="247" type="curve" smooth="yes"/>
      <point x="431" y="380"/>
      <point x="305" y="460"/>
      <point x="110" y="440" type="curve"/>
      <point x="112" y="362" type="line"/>
      <point x="174" y="613" type="line"/>
      <point x="137" y="540" type="line"/>
      <point x="222" y="528"/>
      <point x="329" y="520"/>
      <point x="413" y="520" type="curve"/>
      <point x="423" y="532" type="line"/>
      <point x="457" y="661" type="line"/>
      <point x="364" y="640"/>
      <point x="243" y="632"/>
      <point x="148" y="643" type="curve"/>
      <point x="60" y="329" type="line"/>
      <point x="210" y="322"/>
      <point x="303" y="275"/>
      <point x="303" y="215" type="curve" smooth="yes"/>
      <point x="303" y="128"/>
      <point x="206" y="38"/>
      <point x="69" y="-2" type="curve"/>
    </contour>
  </outline>
</glyph>
<glyph name="six" format="2">
  <advance width="518"/>
  <unicode hex="0036"/>
  <outline>
    <contour>
      <point x="273" y="-11" type="curve" smooth="yes"/>
      <point x="409" y="-11"/>
      <point x="488" y="83"/>
      <point x="488" y="215" type="curve" smooth="yes"/>
      <point x="488" y="322"/>
      <point x="411" y="397"/>
      <point x="276" y="397" type="curve" smooth="yes"/>
      <point x="210" y="397"/>
      <point x="150" y="374"/>
      <point x="131" y="342" type="curve"/>
      <point x="146" y="323" type="line"/>
      <point x="159" y="343"/>
      <point x="197" y="357"/>
      <point x="239" y="357" type="curve" smooth="yes"/>
      <point x="303" y="357"/>
      <point x="340" y="281"/>
      <point x="340" y="173" type="curve" smooth="yes"/>
      <point x="340" y="89"/>
      <point x="317" y="30"/>
      <point x="272" y="30" type="curve" smooth="yes"/>
      <point x="212" y="30"/>
      <point x="178" y="134"/>
      <point x="178" y="281" type="curve" smooth="yes"/>
      <point x="178" y="424"/>
      <point x="277" y="560"/>
      <point x="428" y="608" type="curve"/>
      <point x="415" y="647" type="line"/>
      <point x="179" y="573"/>
      <point x="30" y="408"/>
      <point x="30" y="249" type="curve" smooth="yes"/>
      <point x="30" y="97"/>
      <point x="120" y="-11"/>
    </contour>
  </outline>
</glyph>
<glyph name="seven" format="2">
  <advance width="473"/>
  <unicode hex="0037"/>
  <outline>
    <contour>
      <point x="60" y="-44" type="line"/>
      <point x="148" y="-75" type="line"/>
      <point x="458" y="608" type="line"/>
      <point x="450" y="623" type="line"/>
      <point x="328" y="613"/>
      <point x="131" y="613"/>
      <point x="60" y="639" type="curve"/>
      <point x="30" y="462" type="line"/>
      <point x="39" y="458" type="line"/>
      <point x="105" y="485"/>
      <point x="165" y="499"/>
      <point x="365" y="485" type="curve"/>
      <point x="389" y="579" type="line"/>
    </contour>
  </outline>
</glyph>
<glyph name="eight" format="2">
  <advance width="563"/>
  <unicode hex="0038"/>
  <outline>
    <contour>
      <point x="287" y="-11" type="line"/>
      <point x="427" y="-11"/>
      <point x="518" y="67"/>
      <point x="518" y="177" type="curve"/>
      <point x="518" y="324"/>
      <point x="185" y="385"/>
      <point x="185" y="500" type="curve" smooth="yes"/>
      <point x="185" y="564"/>
      <point x="226" y="609"/>
      <point x="278" y="609" type="curve"/>
      <point x="278" y="643" type="line"/>
      <point x="148" y="643"/>
      <point x="66" y="570"/>
      <point x="66" y="468" type="curve" smooth="yes"/>
      <point x="66" y="295"/>
      <point x="399" y="243"/>
      <point x="399" y="128" type="curve"/>
      <point x="399" y="75"/>
      <point x="350" y="24"/>
      <point x="287" y="24" type="curve"/>
    </contour>
    <contour>
      <point x="287" y="-11" type="curve"/>
      <point x="287" y="24" type="line"/>
      <point x="230" y="24"/>
      <point x="185" y="80"/>
      <point x="185" y="160" type="curve" smooth="yes"/>
      <point x="185" y="209"/>
      <point x="199" y="263"/>
      <point x="251" y="291" type="curve"/>
      <point x="223" y="341" type="line"/>
      <point x="119" y="294"/>
      <point x="45" y="209"/>
      <point x="45" y="152" type="curve" smooth="yes"/>
      <point x="45" y="57"/>
      <point x="146" y="-11"/>
    </contour>
    <contour>
      <point x="278" y="643" type="curve"/>
      <point x="278" y="609" type="line"/>
      <point x="324" y="609"/>
      <point x="360" y="563"/>
      <point x="360" y="499" type="curve" smooth="yes"/>
      <point x="360" y="450"/>
      <point x="327" y="400"/>
      <point x="284" y="377" type="curve"/>
      <point x="339" y="345" type="line"/>
      <point x="434" y="374"/>
      <point x="493" y="441"/>
      <point x="493" y="507" type="curve" smooth="yes"/>
      <point x="493" y="587"/>
      <point x="409" y="643"/>
    </contour>
  </outline>
</glyph>
<glyph name="nine" format="2">
  <advance width="548"/>
  <unicode hex="0039"/>
  <outline>
    <contour>
      <point x="260" y="647" type="curve" smooth="yes"/>
      <point x="124" y="647"/>
      <point x="45" y="553"/>
      <point x="45" y="421" type="curve" smooth="yes"/>
      <point x="45" y="314"/>
      <point x="122" y="239"/>
      <point x="257" y="239" type="curve" smooth="yes"/>
      <point x="323" y="239"/>
      <point x="383" y="262"/>
      <point x="402" y="294" type="curve"/>
      <point x="387" y="313" type="line"/>
      <point x="374" y="293"/>
      <point x="336" y="279"/>
      <point x="294" y="279" type="curve" smooth="yes"/>
      <point x="230" y="279"/>
      <point x="193" y="355"/>
      <point x="193" y="463" type="curve" smooth="yes"/>
      <point x="193" y="547"/>
      <point x="216" y="606"/>
      <point x="261" y="606" type="curve" smooth="yes"/>
      <point x="321" y="606"/>
      <point x="355" y="502"/>
      <point x="355" y="355" type="curve" smooth="yes"/>
      <point x="355" y="212"/>
      <point x="256" y="76"/>
      <point x="105" y="28" type="curve"/>
      <point x="118" y="-11" type="line"/>
      <point x="354" y="63"/>
      <point x="503" y="228"/>
      <point x="503" y="387" type="curve" smooth="yes"/>
      <point x="503" y="539"/>
      <point x="413" y="647"/>
    </contour>
  </outline>
</glyph>
<glyph name="colon" format="2">
  <advance width="270"/>
  <unicode hex="003A"/>
  <outline>
    <contour>
      <point x="141" y="227" type="curve" smooth="yes"/>
      <point x="186" y="227"/>
      <point x="225" y="258"/>
      <point x="225" y="295" type="curve" smooth="yes"/>
      <point x="225" y="332"/>
      <point x="186" y="363"/>
      <point x="141" y="363" type="curve" smooth="yes"/>
      <point x="95" y="363"/>
      <point x="59" y="332"/>
      <point x="59" y="295" type="curve" smooth="yes"/>
      <point x="59" y="258"/>
      <point x="95" y="227"/>
    </contour>
    <contour>
      <point x="129" y="-27" type="curve" smooth="yes"/>
      <point x="177" y="-27"/>
      <point x="211" y="4"/>
      <point x="211" y="41" type="curve" smooth="yes"/>
      <point x="211" y="78"/>
      <point x="177" y="109"/>
      <point x="129" y="109" type="curve" smooth="yes"/>
      <point x="84" y="109"/>
      <point x="45" y="78"/>
      <point x="45" y="41" type="curve" smooth="yes"/>
      <point x="45" y="4"/>
      <point x="84" y="-27"/>
    </contour>
  </outline>
</glyph>
<glyph name="semicolon" format="2">
  <advance width="283"/>
  <unicode hex="003B"/>
  <outline>
    <contour>
      <point x="58" y="-197" type="curve"/>
      <point x="71" y="-240" type="line"/>
      <point x="169" y="-196"/>
      <point x="238" y="-80"/>
      <point x="238" y="38" type="curve" smooth="yes"/>
      <point x="238" y="107"/>
      <point x="194" y="156"/>
      <point x="132" y="156" type="curve" smooth="yes"/>
      <point x="82" y="156"/>
      <point x="45" y="128"/>
      <point x="45" y="85" type="curve" smooth="yes"/>
      <point x="45" y="45"/>
      <point x="64" y="16"/>
      <point x="92" y="16" type="curve" smooth="yes"/>
      <point x="117" y="16"/>
      <point x="122" y="27"/>
      <point x="144" y="27" type="curve" smooth="yes"/>
      <point x="163" y="27"/>
      <point x="175" y="2"/>
      <point x="175" y="-35" type="curve" smooth="yes"/>
      <point x="175" y="-110"/>
      <point x="126" y="-178"/>
    </contour>
    <contour>
      <point x="149" y="243" type="curve" smooth="yes"/>
      <point x="197" y="243"/>
      <point x="232" y="274"/>
      <point x="232" y="313" type="curve" smooth="yes"/>
      <point x="232" y="349"/>
      <point x="197" y="378"/>
      <point x="149" y="378" type="curve"/>
      <point x="104" y="378"/>
      <point x="65" y="349"/>
      <point x="65" y="313" type="curve" smooth="yes"/>
      <point x="65" y="274"/>
      <point x="104" y="243"/>
    </contour>
  </outline>
</glyph>
<glyph name="less" format="2">
  <advance width="576"/>
  <unicode hex="003C"/>
  <outline>
    <contour>
      <point x="508" y="65" type="line"/>
      <point x="531" y="110" type="line"/>
      <point x="91" y="278" type="line"/>
      <point x="530" y="448" type="line"/>
      <point x="509" y="494" type="line"/>
      <point x="45" y="310" type="line"/>
      <point x="45" y="247" type="line"/>
    </contour>
  </outline>
</glyph>
<glyph name="equal" format="2">
  <advance width="576"/>
  <unicode hex="003D"/>
  <outline>
    <contour>
      <point x="45" y="323" type="line"/>
      <point x="531" y="323" type="line"/>
      <point x="531" y="373" type="line"/>
      <point x="45" y="373" type="line"/>
    </contour>
    <contour>
      <point x="45" y="193" type="line"/>
      <point x="531" y="193" type="line"/>
      <point x="531" y="243" type="line"/>
      <point x="45" y="243" type="line"/>
    </contour>
  </outline>
</glyph>
<glyph name="greater" format="2">
  <advance width="576"/>
  <unicode hex="003E"/>
  <outline>
    <contour>
      <point x="68" y="65" type="line"/>
      <point x="531" y="247" type="line"/>
      <point x="531" y="310" type="line"/>
      <point x="67" y="494" type="line"/>
      <point x="46" y="448" type="line"/>
      <point x="485" y="278" type="line"/>
      <point x="45" y="110" type="line"/>
    </contour>
  </outline>
</glyph>
<glyph name="question" format="2">
  <advance width="375"/>
  <unicode hex="003F"/>
  <outline>
    <contour>
      <point x="182" y="170" type="curve" smooth="yes"/>
      <point x="191" y="170"/>
      <point x="224" y="184"/>
      <point x="263" y="203" type="curve"/>
      <point x="261" y="216" type="line"/>
      <point x="229" y="217" type="line" smooth="yes"/>
      <point x="204" y="218"/>
      <point x="186" y="236"/>
      <point x="186" y="260" type="curve" smooth="yes"/>
      <point x="186" y="347"/>
      <point x="328" y="346"/>
      <point x="330" y="466" type="curve"/>
      <point x="330" y="527"/>
      <point x="287" y="571"/>
      <point x="226" y="571" type="curve" smooth="yes"/>
      <point x="197" y="571"/>
      <point x="153" y="554"/>
      <point x="114" y="530" type="curve" smooth="yes"/>
      <point x="82" y="508"/>
      <point x="60" y="471"/>
      <point x="60" y="440" type="curve" smooth="yes"/>
      <point x="60" y="409"/>
      <point x="132" y="423"/>
      <point x="132" y="454" type="curve" smooth="yes"/>
      <point x="132" y="470"/>
      <point x="125" y="466"/>
      <point x="125" y="481" type="curve" smooth="yes"/>
      <point x="125" y="508"/>
      <point x="148" y="527"/>
      <point x="176" y="527" type="curve" smooth="yes"/>
      <point x="226" y="527"/>
      <point x="255" y="500"/>
      <point x="254" y="460" type="curve" smooth="yes"/>
      <point x="249" y="317"/>
      <point x="114" y="317"/>
      <point x="114" y="233" type="curve" smooth="yes"/>
      <point x="114" y="196"/>
      <point x="146" y="170"/>
    </contour>
    <contour>
      <point x="191" y="-6" type="curve" smooth="yes"/>
      <point x="213" y="-6"/>
      <point x="231" y="12"/>
      <point x="231" y="34" type="curve" smooth="yes"/>
      <point x="231" y="56"/>
      <point x="213" y="74"/>
      <point x="191" y="74" type="curve" smooth="yes"/>
      <point x="169" y="74"/>
      <point x="151" y="56"/>
      <point x="151" y="34" type="curve" smooth="yes"/>
      <point x="151" y="12"/>
      <point x="169" y="-6"/>
    </contour>
  </outline>
</glyph>
<glyph name="at" format="2">
  <advance width="756"/>
  <unicode hex="0040"/>
  <outline>
    <contour>
      <point x="399" y="-118" type="curve" smooth="yes"/>
      <point x="495" y="-118"/>
      <point x="604" y="-72"/>
      <point x="661" y="-7" type="curve"/>
      <point x="644" y="14" type="line"/>
      <point x="592" y="-46"/>
      <point x="491" y="-88"/>
      <point x="399" y="-88" type="curve" smooth="yes"/>
      <point x="209" y="-88"/>
      <point x="75" y="47"/>
      <point x="75" y="238" type="curve" smooth="yes"/>
      <point x="75" y="437"/>
      <point x="209" y="578"/>
      <point x="399" y="578" type="curve" smooth="yes"/>
      <point x="565" y="578"/>
      <point x="681" y="466"/>
      <point x="681" y="308" type="curve" smooth="yes"/>
      <point x="681" y="183"/>
      <point x="626" y="95"/>
      <point x="547" y="95" type="curve" smooth="yes"/>
      <point x="509" y="95"/>
      <point x="485" y="110"/>
      <point x="489" y="130" type="curve" smooth="yes"/>
      <point x="544" y="393" type="line"/>
      <point x="530" y="416"/>
      <point x="476" y="432"/>
      <point x="414" y="432" type="curve" smooth="yes"/>
      <point x="286" y="432"/>
      <point x="196" y="333"/>
      <point x="196" y="193" type="curve" smooth="yes"/>
      <point x="196" y="114"/>
      <point x="253" y="58"/>
      <point x="334" y="58" type="curve" smooth="yes"/>
      <point x="363" y="58"/>
      <point x="403" y="79"/>
      <point x="431" y="109" type="curve"/>
      <point x="438" y="82"/>
      <point x="479" y="63"/>
      <point x="531" y="63" type="curve" smooth="yes"/>
      <point x="637" y="63"/>
      <point x="711" y="165"/>
      <point x="711" y="308" type="curve" smooth="yes"/>
      <point x="711" y="484"/>
      <point x="582" y="608"/>
      <point x="399" y="608" type="curve" smooth="yes"/>
      <point x="192" y="608"/>
      <point x="45" y="455"/>
      <point x="45" y="238" type="curve" smooth="yes"/>
      <point x="45" y="29"/>
      <point x="192" y="-118"/>
    </contour>
    <contour>
      <point x="267" y="211" type="curve" smooth="yes"/>
      <point x="267" y="319"/>
      <point x="320" y="396"/>
      <point x="394" y="396" type="curve" smooth="yes"/>
      <point x="424" y="396"/>
      <point x="457" y="387"/>
      <point x="474" y="374" type="curve"/>
      <point x="425" y="140" type="line"/>
      <point x="396" y="117"/>
      <point x="366" y="100"/>
      <point x="352" y="100" type="curve" smooth="yes"/>
      <point x="302" y="100"/>
      <point x="267" y="146"/>
    </contour>
  </outline>
</glyph>
<glyph name="A" format="2">
  <advance width="786"/>
  <unicode hex="0041"/>
  <anchor x="402" y="0" name="bottom"/>
  <anchor x="712" y="10" name="ogonek"/>
  <anchor x="402" y="634" name="top"/>
  <outline>
    <contour>
      <point x="455" y="0" type="line"/>
      <point x="771" y="0" type="line"/>
      <point x="771" y="25" type="line"/>
      <point x="701" y="39"/>
      <point x="698" y="64"/>
      <point x="668" y="135" type="curve" smooth="yes"/>
      <point x="600" y="306"/>
      <point x="551" y="495"/>
      <point x="483" y="666" type="curve"/>
      <point x="325" y="633" type="line"/>
      <point x="354" y="607" type="line"/>
      <point x="511" y="139" type="line" smooth="yes"/>
      <point x="544" y="40"/>
      <point x="537" y="43"/>
      <point x="455" y="25" type="curve"/>
    </contour>
    <contour>
      <point x="15" y="0" type="line"/>
      <point x="303" y="0" type="line"/>
      <point x="303" y="25" type="line"/>
      <point x="228" y="31"/>
      <point x="203" y="58"/>
      <point x="227" y="130" type="curve" smooth="yes"/>
      <point x="394" y="621" type="line"/>
      <point x="325" y="633" type="line"/>
      <point x="260" y="461"/>
      <point x="184" y="198"/>
      <point x="122" y="83" type="curve" smooth="yes"/>
      <point x="103" y="49"/>
      <point x="59" y="25"/>
      <point x="15" y="25" type="curve"/>
    </contour>
    <contour>
      <point x="211" y="240" type="line"/>
      <point x="501" y="240" type="line"/>
      <point x="487" y="298" type="line"/>
      <point x="228" y="298" type="line"/>
    </contour>
  </outline>
</glyph>
<glyph name="B" format="2">
  <advance width="657"/>
  <unicode hex="0042"/>
  <anchor x="324" y="0" name="bottom"/>
  <anchor x="153" y="159" name="center"/>
  <anchor x="324" y="634" name="top"/>
  <outline>
    <contour>
      <point x="0" y="25" type="curve"/>
      <point x="0" y="0" type="line"/>
      <point x="363" y="0" type="line"/>
      <point x="327" y="40" type="line"/>
      <point x="293" y="40"/>
      <point x="265" y="44"/>
      <point x="258" y="50" type="curve" smooth="yes"/>
      <point x="247" y="60"/>
      <point x="239" y="77"/>
      <point x="239" y="91" type="curve" smooth="yes"/>
      <point x="239" y="325"/>
      <point x="239" y="395"/>
      <point x="239" y="592" type="curve"/>
      <point x="255" y="593"/>
      <point x="284" y="594"/>
      <point x="307" y="594" type="curve"/>
      <point x="361" y="634" type="line"/>
      <point x="0" y="634" type="line"/>
      <point x="0" y="609" type="line"/>
      <point x="36" y="604"/>
      <point x="60" y="600"/>
      <point x="74" y="590" type="curve" smooth="yes"/>
      <point x="84" y="583"/>
      <point x="89" y="570"/>
      <point x="89" y="543" type="curve" smooth="yes"/>
      <point x="90" y="359"/>
      <point x="91" y="253"/>
      <point x="91" y="330" type="curve" smooth="yes"/>
      <point x="91" y="391"/>
      <point x="90" y="282"/>
      <point x="89" y="91" type="curve" smooth="yes"/>
      <point x="89" y="65"/>
      <point x="83" y="51"/>
      <point x="74" y="43" type="curve" smooth="yes"/>
      <point x="58" y="29"/>
      <point x="32" y="31"/>
    </contour>
    <contour>
      <point x="205" y="336" type="line"/>
      <point x="231" y="336"/>
      <point x="279" y="336"/>
      <point x="307" y="336" type="curve" smooth="yes"/>
      <point x="462" y="336"/>
      <point x="572" y="404"/>
      <point x="572" y="499" type="curve" smooth="yes"/>
      <point x="572" y="578"/>
      <point x="495" y="634"/>
      <point x="361" y="634" type="curve"/>
      <point x="307" y="594" type="line"/>
      <point x="368" y="594"/>
      <point x="411" y="547"/>
      <point x="411" y="480" type="curve" smooth="yes"/>
      <point x="411" y="413"/>
      <point x="350" y="366"/>
      <point x="264" y="366" type="curve" smooth="yes"/>
      <point x="204" y="366" type="line"/>
    </contour>
    <contour>
      <point x="363" y="0" type="line"/>
      <point x="509" y="0"/>
      <point x="612" y="79"/>
      <point x="612" y="191" type="curve" smooth="yes"/>
      <point x="612" y="284"/>
      <point x="527" y="353"/>
      <point x="406" y="356" type="curve" smooth="yes"/>
      <point x="114" y="364" type="line"/>
      <point x="114" y="332" type="line"/>
      <point x="208" y="332"/>
      <point x="220" y="332"/>
      <point x="257" y="332" type="curve" smooth="yes"/>
      <point x="369" y="332"/>
      <point x="449" y="265"/>
      <point x="449" y="171" type="curve" smooth="yes"/>
      <point x="449" y="94"/>
      <point x="398" y="40"/>
      <point x="327" y="40" type="curve"/>
    </contour>
  </outline>
</glyph>
<glyph name="C" format="2">
  <advance width="774"/>
  <unicode hex="0043"/>
  <anchor x="387" y="0" name="bottom"/>
  <anchor x="387" y="634" name="top"/>
  <outline>
    <contour>
      <point x="431" y="-11" type="curve" smooth="yes"/>
      <point x="528" y="-11"/>
      <point x="636" y="9"/>
      <point x="691" y="38" type="curve"/>
      <point x="709" y="108"/>
      <point x="725" y="175"/>
      <point x="729" y="201" type="curve"/>
      <point x="675" y="200" type="line"/>
      <point x="651" y="102"/>
      <point x="557" y="33"/>
      <point x="449" y="33" type="curve" smooth="yes"/>
      <point x="310" y="33"/>
      <point x="212" y="158"/>
      <point x="212" y="335" type="curve" smooth="yes"/>
      <point x="212" y="483"/>
      <point x="308" y="588"/>
      <point x="443" y="588" type="curve" smooth="yes"/>
      <point x="550" y="588"/>
      <point x="629" y="528"/>
      <point x="633" y="408" type="curve"/>
      <point x="683" y="408" type="line"/>
      <point x="686" y="502"/>
      <point x="700" y="564"/>
      <point x="717" y="595" type="curve"/>
      <point x="650" y="614"/>
      <point x="531" y="627"/>
      <point x="431" y="627" type="curve" smooth="yes"/>
      <point x="205" y="627"/>
      <point x="45" y="496"/>
      <point x="45" y="312" type="curve" smooth="yes"/>
      <point x="45" y="123"/>
      <point x="205" y="-11"/>
    </contour>
  </outline>
</glyph>
<glyph name="D" format="2">
  <advance width="747"/>
  <unicode hex="0044"/>
  <anchor x="369" y="0" name="bottom"/>
  <anchor x="176" y="317" name="center"/>
  <anchor x="369" y="634" name="top"/>
  <outline>
    <contour>
      <point x="0" y="25" type="curve"/>
      <point x="0" y="0" type="line"/>
      <point x="23" y="0"/>
      <point x="121" y="0"/>
      <point x="163" y="0" type="curve" smooth="yes"/>
      <point x="163" y="0"/>
      <point x="240" y="1"/>
      <point x="358" y="-3" type="curve"/>
      <point x="372" y="38" type="line"/>
      <point x="320" y="38"/>
      <point x="281" y="33"/>
      <point x="258" y="55" type="curve" smooth="yes"/>
      <point x="249" y="63"/>
      <point x="244" y="74"/>
      <point x="244" y="91" type="curve" smooth="yes"/>
      <point x="244" y="189"/>
      <point x="244" y="494"/>
      <point x="245" y="592" type="curve"/>
      <point x="291" y="595"/>
      <point x="323" y="596"/>
      <point x="369" y="596" type="curve"/>
      <point x="385" y="637" type="line"/>
      <point x="304" y="636"/>
      <point x="278" y="634"/>
      <point x="166" y="634" type="curve"/>
      <point x="120" y="634"/>
      <point x="31" y="634"/>
      <point x="0" y="634" type="curve"/>
      <point x="0" y="608" type="line"/>
      <point x="38" y="601"/>
      <point x="61" y="600"/>
      <point x="74" y="591" type="curve" smooth="yes"/>
      <point x="85" y="583"/>
      <point x="89" y="570"/>
      <point x="89" y="543" type="curve" smooth="yes"/>
      <point x="90" y="429"/>
      <point x="91" y="341"/>
      <point x="91" y="330" type="curve" smooth="yes"/>
      <point x="91" y="320"/>
      <point x="90" y="210"/>
      <point x="89" y="91" type="curve" smooth="yes"/>
      <point x="89" y="66"/>
      <point x="84" y="52"/>
      <point x="74" y="43" type="curve" smooth="yes"/>
      <point x="60" y="31"/>
      <point x="35" y="30"/>
    </contour>
    <contour>
      <point x="372" y="38" type="curve"/>
      <point x="358" y="-3" type="line"/>
      <point x="559" y="-2"/>
      <point x="702" y="142"/>
      <point x="702" y="345" type="curve" smooth="yes"/>
      <point x="702" y="516"/>
      <point x="571" y="637"/>
      <point x="385" y="637" type="curve"/>
      <point x="369" y="596" type="line"/>
      <point x="467" y="596"/>
      <point x="537" y="480"/>
      <point x="537" y="317" type="curve" smooth="yes"/>
      <point x="537" y="154"/>
      <point x="469" y="38"/>
    </contour>
  </outline>
</glyph>
<glyph name="E" format="2">
  <advance width="624"/>
  <unicode hex="0045"/>
  <anchor x="306" y="0" name="bottom"/>
  <anchor x="565" y="10" name="ogonek"/>
  <anchor x="306" y="634" name="top"/>
  <anchor x="2" y="634" name="topleft"/>
  <outline>
    <contour>
      <point x="570" y="-3" type="curve"/>
      <point x="582" y="44"/>
      <point x="592" y="110"/>
      <point x="594" y="157" type="curve"/>
      <point x="547" y="157" type="line"/>
      <point x="535" y="90"/>
      <point x="496" y="43"/>
      <point x="453" y="40" type="curve" smooth="yes"/>
      <point x="421" y="38"/>
      <point x="375" y="37"/>
      <point x="318" y="37" type="curve" smooth="yes"/>
      <point x="284" y="37"/>
      <point x="268" y="42"/>
      <point x="257" y="52" type="curve" smooth="yes"/>
      <point x="247" y="62"/>
      <point x="244" y="76"/>
      <point x="244" y="96" type="curve" smooth="yes"/>
      <point x="244" y="265"/>
      <point x="243" y="416"/>
      <point x="245" y="594" type="curve"/>
      <point x="282" y="596"/>
      <point x="311" y="596"/>
      <point x="333" y="596" type="curve" smooth="yes"/>
      <point x="361" y="596"/>
      <point x="396" y="596"/>
      <point x="428" y="594" type="curve" smooth="yes"/>
      <point x="453" y="592"/>
      <point x="476" y="562"/>
      <point x="484" y="481" type="curve"/>
      <point x="536" y="481" type="line"/>
      <point x="537" y="554"/>
      <point x="542" y="604"/>
      <point x="549" y="637" type="curve"/>
      <point x="484" y="635"/>
      <point x="323" y="634"/>
      <point x="130" y="634" type="curve" smooth="yes"/>
      <point x="81" y="634"/>
      <point x="29" y="635"/>
      <point x="0" y="636" type="curve"/>
      <point x="0" y="607" type="line"/>
      <point x="35" y="602"/>
      <point x="59" y="599"/>
      <point x="74" y="585" type="curve" smooth="yes"/>
      <point x="83" y="576"/>
      <point x="89" y="562"/>
      <point x="89" y="539" type="curve" smooth="yes"/>
      <point x="91" y="376"/>
      <point x="91" y="236"/>
      <point x="89" y="91" type="curve" smooth="yes"/>
      <point x="89" y="67"/>
      <point x="84" y="52"/>
      <point x="74" y="42" type="curve" smooth="yes"/>
      <point x="60" y="29"/>
      <point x="37" y="26"/>
      <point x="0" y="23" type="curve"/>
      <point x="0" y="-2" type="line"/>
      <point x="120" y="0" type="line" smooth="yes"/>
      <point x="335" y="4"/>
      <point x="493" y="-1"/>
    </contour>
    <contour>
      <point x="387" y="206" type="line"/>
      <point x="439" y="206" type="line"/>
      <point x="433" y="272"/>
      <point x="433" y="364"/>
      <point x="439" y="430" type="curve"/>
      <point x="386" y="430" type="line"/>
      <point x="385" y="424"/>
      <point x="380" y="410"/>
      <point x="375" y="396" type="curve"/>
      <point x="358" y="360"/>
      <point x="299" y="336"/>
      <point x="257" y="336" type="curve" smooth="yes"/>
      <point x="123" y="336" type="line"/>
      <point x="123" y="296" type="line"/>
      <point x="257" y="296" type="line" smooth="yes"/>
      <point x="342" y="296"/>
      <point x="364" y="274"/>
      <point x="376" y="242" type="curve" smooth="yes"/>
    </contour>
  </outline>
</glyph>
<glyph name="F" format="2">
  <advance width="537"/>
  <unicode hex="0046"/>
  <anchor x="261" y="0" name="bottom"/>
  <anchor x="261" y="634" name="top"/>
  <outline>
    <contour>
      <point x="0" y="-1" type="line"/>
      <point x="27" y="0"/>
      <point x="305" y="0"/>
      <point x="360" y="0" type="curve"/>
      <point x="360" y="29" type="line"/>
      <point x="308" y="35"/>
      <point x="275" y="35"/>
      <point x="257" y="54" type="curve" smooth="yes"/>
      <point x="248" y="64"/>
      <point x="243" y="79"/>
      <point x="243" y="103" type="curve" smooth="yes"/>
      <point x="241" y="260"/>
      <point x="242" y="421"/>
      <point x="245" y="596" type="curve"/>
      <point x="266" y="597"/>
      <point x="315" y="598"/>
      <point x="337" y="598" type="curve" smooth="yes"/>
      <point x="365" y="598"/>
      <point x="369" y="598"/>
      <point x="401" y="596" type="curve" smooth="yes"/>
      <point x="426" y="594"/>
      <point x="448" y="562"/>
      <point x="456" y="481" type="curve"/>
      <point x="506" y="481" type="line"/>
      <point x="508" y="554"/>
      <point x="515" y="604"/>
      <point x="522" y="637" type="curve"/>
      <point x="457" y="635"/>
      <point x="322" y="634"/>
      <point x="130" y="634" type="curve"/>
      <point x="81" y="634"/>
      <point x="30" y="635"/>
      <point x="1" y="636" type="curve"/>
      <point x="1" y="610" type="line"/>
      <point x="36" y="604"/>
      <point x="59" y="602"/>
      <point x="73" y="589" type="curve" smooth="yes"/>
      <point x="83" y="581"/>
      <point x="89" y="568"/>
      <point x="89" y="543" type="curve" smooth="yes"/>
      <point x="91" y="380"/>
      <point x="91" y="236"/>
      <point x="89" y="91" type="curve" smooth="yes"/>
      <point x="89" y="67"/>
      <point x="85" y="53"/>
      <point x="76" y="44" type="curve" smooth="yes"/>
      <point x="63" y="30"/>
      <point x="40" y="27"/>
      <point x="0" y="23" type="curve"/>
    </contour>
    <contour>
      <point x="387" y="206" type="line"/>
      <point x="439" y="206" type="line"/>
      <point x="433" y="272"/>
      <point x="433" y="364"/>
      <point x="439" y="430" type="curve"/>
      <point x="386" y="430" type="line"/>
      <point x="385" y="424"/>
      <point x="380" y="410"/>
      <point x="375" y="396" type="curve"/>
      <point x="358" y="360"/>
      <point x="299" y="336"/>
      <point x="257" y="336" type="curve" smooth="yes"/>
      <point x="123" y="336" type="line"/>
      <point x="123" y="296" type="line"/>
      <point x="257" y="296" type="line" smooth="yes"/>
      <point x="342" y="296"/>
      <point x="364" y="274"/>
      <point x="376" y="242" type="curve" smooth="yes"/>
    </contour>
  </outline>
</glyph>
<glyph name="G" format="2">
  <advance width="765"/>
  <unicode hex="0047"/>
  <anchor x="378" y="0" name="bottom"/>
  <anchor x="378" y="634" name="top"/>
  <outline>
    <contour>
      <point x="431" y="-11" type="curve" smooth="yes"/>
      <point x="538" y="-11"/>
      <point x="653" y="11"/>
      <point x="707" y="43" type="curve"/>
      <point x="703" y="56" type="line"/>
      <point x="687" y="57"/>
      <point x="675" y="66"/>
      <point x="675" y="79" type="curve"/>
      <point x="675" y="200" type="line"/>
      <point x="675" y="225"/>
      <point x="688" y="247"/>
      <point x="711" y="252" type="curve"/>
      <point x="747" y="258" type="line"/>
      <point x="747" y="287" type="line"/>
      <point x="423" y="287" type="line"/>
      <point x="423" y="253" type="line"/>
      <point x="512" y="244"/>
      <point x="520" y="225"/>
      <point x="520" y="188" type="curve"/>
      <point x="520" y="76" type="line"/>
      <point x="520" y="51"/>
      <point x="487" y="33"/>
      <point x="440" y="33" type="curve" smooth="yes"/>
      <point x="306" y="33"/>
      <point x="212" y="165"/>
      <point x="212" y="351" type="curve" smooth="yes"/>
      <point x="212" y="500"/>
      <point x="309" y="606"/>
      <point x="445" y="606" type="curve" smooth="yes"/>
      <point x="551" y="606"/>
      <point x="629" y="546"/>
      <point x="634" y="426" type="curve"/>
      <point x="683" y="426" type="line"/>
      <point x="685" y="525"/>
      <point x="700" y="587"/>
      <point x="717" y="613" type="curve"/>
      <point x="650" y="632"/>
      <point x="534" y="645"/>
      <point x="437" y="645" type="curve" smooth="yes"/>
      <point x="207" y="645"/>
      <point x="45" y="513"/>
      <point x="45" y="326" type="curve" smooth="yes"/>
      <point x="45" y="129"/>
      <point x="205" y="-11"/>
    </contour>
  </outline>
</glyph>
<glyph name="H" format="2">
  <advance width="792"/>
  <unicode hex="0048"/>
  <anchor x="396" y="0" name="bottom"/>
  <anchor x="396" y="476" name="center"/>
  <anchor x="396" y="634" name="top"/>
  <anchor x="2" y="634" name="topleft"/>
  <outline>
    <contour>
      <point x="0" y="0" type="line"/>
      <point x="342" y="0" type="line"/>
      <point x="342" y="25" type="line"/>
      <point x="311" y="33"/>
      <point x="268" y="39"/>
      <point x="257" y="51" type="curve" smooth="yes"/>
      <point x="247" y="61"/>
      <point x="242" y="77"/>
      <point x="242" y="104" type="curve" smooth="yes"/>
      <point x="241" y="178"/>
      <point x="241" y="270"/>
      <point x="240" y="344" type="curve" smooth="yes"/>
      <point x="239" y="406"/>
      <point x="241" y="468"/>
      <point x="242" y="530" type="curve" smooth="yes"/>
      <point x="242" y="557"/>
      <point x="248" y="574"/>
      <point x="257" y="583" type="curve" smooth="yes"/>
      <point x="268" y="595"/>
      <point x="311" y="601"/>
      <point x="342" y="609" type="curve"/>
      <point x="342" y="634" type="line"/>
      <point x="0" y="634" type="line"/>
      <point x="0" y="609" type="line"/>
      <point x="22" y="601"/>
      <point x="65" y="594"/>
      <point x="76" y="582" type="curve" smooth="yes"/>
      <point x="85" y="571"/>
      <point x="89" y="556"/>
      <point x="89" y="530" type="curve" smooth="yes"/>
      <point x="90" y="468"/>
      <point x="91" y="407"/>
      <point x="91" y="345" type="curve" smooth="yes"/>
      <point x="91" y="271"/>
      <point x="90" y="178"/>
      <point x="89" y="104" type="curve" smooth="yes"/>
      <point x="89" y="78"/>
      <point x="85" y="63"/>
      <point x="76" y="52" type="curve" smooth="yes"/>
      <point x="65" y="40"/>
      <point x="22" y="33"/>
      <point x="0" y="25" type="curve"/>
    </contour>
    <contour>
      <point x="450" y="0" type="line"/>
      <point x="792" y="0" type="line"/>
      <point x="792" y="25" type="line"/>
      <point x="771" y="33"/>
      <point x="729" y="39"/>
      <point x="718" y="51" type="curve" smooth="yes"/>
      <point x="708" y="61"/>
      <point x="703" y="77"/>
      <point x="703" y="104" type="curve" smooth="yes"/>
      <point x="702" y="179"/>
      <point x="702" y="273"/>
      <point x="701" y="348" type="curve" smooth="yes"/>
      <point x="700" y="409"/>
      <point x="702" y="469"/>
      <point x="703" y="530" type="curve" smooth="yes"/>
      <point x="703" y="557"/>
      <point x="707" y="572"/>
      <point x="718" y="583" type="curve" smooth="yes"/>
      <point x="729" y="595"/>
      <point x="771" y="601"/>
      <point x="792" y="609" type="curve"/>
      <point x="792" y="634" type="line"/>
      <point x="450" y="634" type="line"/>
      <point x="450" y="609" type="line"/>
      <point x="482" y="601"/>
      <point x="526" y="594"/>
      <point x="537" y="582" type="curve" smooth="yes"/>
      <point x="546" y="571"/>
      <point x="550" y="556"/>
      <point x="550" y="530" type="curve" smooth="yes"/>
      <point x="551" y="469"/>
      <point x="552" y="408"/>
      <point x="552" y="347" type="curve" smooth="yes"/>
      <point x="552" y="272"/>
      <point x="551" y="179"/>
      <point x="550" y="104" type="curve" smooth="yes"/>
      <point x="550" y="78"/>
      <point x="546" y="63"/>
      <point x="537" y="52" type="curve" smooth="yes"/>
      <point x="526" y="40"/>
      <point x="482" y="33"/>
      <point x="450" y="25" type="curve"/>
    </contour>
    <contour>
      <point x="172" y="304" type="line"/>
      <point x="619" y="304" type="line"/>
      <point x="619" y="349" type="line"/>
      <point x="172" y="349" type="line"/>
    </contour>
  </outline>
</glyph>
<glyph name="I" format="2">
  <advance width="324"/>
  <unicode hex="0049"/>
  <anchor x="162" y="0" name="bottom"/>
  <anchor x="306" y="10" name="ogonek"/>
  <anchor x="162" y="634" name="top"/>
  <anchor x="2" y="634" name="topleft"/>
  <outline>
    <contour>
      <point x="0" y="25" type="curve"/>
      <point x="0" y="0" type="line"/>
      <point x="324" y="0" type="line"/>
      <point x="324" y="25" type="line"/>
      <point x="285" y="31"/>
      <point x="262" y="32"/>
      <point x="250" y="41" type="curve" smooth="yes"/>
      <point x="239" y="49"/>
      <point x="235" y="63"/>
      <point x="235" y="91" type="curve" smooth="yes"/>
      <point x="233" y="217"/>
      <point x="235" y="345"/>
      <point x="235" y="543" type="curve" smooth="yes"/>
      <point x="235" y="573"/>
      <point x="244" y="588"/>
      <point x="259" y="595" type="curve" smooth="yes"/>
      <point x="276" y="604"/>
      <point x="300" y="604"/>
      <point x="324" y="609" type="curve"/>
      <point x="324" y="634" type="line"/>
      <point x="0" y="634" type="line"/>
      <point x="0" y="611" type="line"/>
      <point x="37" y="605"/>
      <point x="61" y="604"/>
      <point x="74" y="593" type="curve" smooth="yes"/>
      <point x="84" y="584"/>
      <point x="89" y="570"/>
      <point x="89" y="543" type="curve" smooth="yes"/>
      <point x="91" y="400"/>
      <point x="91" y="234"/>
      <point x="89" y="91" type="curve" smooth="yes"/>
      <point x="89" y="62"/>
      <point x="85" y="47"/>
      <point x="75" y="39" type="curve" smooth="yes"/>
      <point x="60" y="27"/>
      <point x="35" y="30"/>
    </contour>
  </outline>
</glyph>
<glyph name="J" format="2">
  <advance width="310"/>
  <unicode hex="004A"/>
  <anchor x="153" y="0" name="bottom"/>
  <anchor x="153" y="634" name="top"/>
  <outline>
    <contour>
      <point x="14" y="-232" type="curve" smooth="yes"/>
      <point x="49" y="-232"/>
      <point x="93" y="-204"/>
      <point x="121" y="-164" type="curve" smooth="yes"/>
      <point x="189" y="-66"/>
      <point x="236" y="79"/>
      <point x="235" y="184" type="curve" smooth="yes"/>
      <point x="234" y="274"/>
      <point x="234" y="415"/>
      <point x="235" y="543" type="curve" smooth="yes"/>
      <point x="235" y="567"/>
      <point x="242" y="589"/>
      <point x="253" y="595" type="curve" smooth="yes"/>
      <point x="256" y="596"/>
      <point x="285" y="602"/>
      <point x="324" y="609" type="curve"/>
      <point x="324" y="634" type="line"/>
      <point x="0" y="634" type="line"/>
      <point x="0" y="609" type="line"/>
      <point x="36" y="605"/>
      <point x="67" y="598"/>
      <point x="74" y="592" type="curve" smooth="yes"/>
      <point x="83" y="584"/>
      <point x="90" y="564"/>
      <point x="90" y="543" type="curve" smooth="yes"/>
      <point x="90" y="117" type="line" smooth="yes"/>
      <point x="90" y="-4"/>
      <point x="77" y="-110"/>
      <point x="59" y="-138" type="curve" smooth="yes"/>
      <point x="53" y="-149"/>
      <point x="41" y="-157"/>
      <point x="30" y="-157" type="curve" smooth="yes"/>
      <point x="11" y="-158"/>
      <point x="9" y="-135"/>
      <point x="-10" y="-134" type="curve" smooth="yes"/>
      <point x="-43" y="-134"/>
      <point x="-66" y="-163"/>
      <point x="-66" y="-205" type="curve" smooth="yes"/>
      <point x="-66" y="-221"/>
      <point x="-33" y="-232"/>
    </contour>
  </outline>
</glyph>
<glyph name="K" format="2">
  <advance width="712"/>
  <unicode hex="004B"/>
  <anchor x="342" y="0" name="bottom"/>
  <anchor x="342" y="634" name="top"/>
  <outline>
    <contour>
      <point x="0" y="25" type="curve"/>
      <point x="0" y="0" type="line"/>
      <point x="324" y="0" type="line"/>
      <point x="324" y="18" type="line"/>
      <point x="289" y="27"/>
      <point x="269" y="29"/>
      <point x="258" y="36" type="curve" smooth="yes"/>
      <point x="246" y="44"/>
      <point x="238" y="58"/>
      <point x="238" y="91" type="curve" smooth="yes"/>
      <point x="237" y="156"/>
      <point x="238" y="424"/>
      <point x="239" y="543" type="curve" smooth="yes"/>
      <point x="239" y="574"/>
      <point x="245" y="590"/>
      <point x="258" y="599" type="curve" smooth="yes"/>
      <point x="271" y="608"/>
      <point x="292" y="612"/>
      <point x="324" y="616" type="curve"/>
      <point x="324" y="634" type="line"/>
      <point x="0" y="634" type="line"/>
      <point x="0" y="610" type="line"/>
      <point x="51" y="603"/>
      <point x="74" y="601"/>
      <point x="83" y="583" type="curve" smooth="yes"/>
      <point x="87" y="574"/>
      <point x="89" y="561"/>
      <point x="89" y="543" type="curve" smooth="yes"/>
      <point x="91" y="382"/>
      <point x="91" y="234"/>
      <point x="89" y="91" type="curve" smooth="yes"/>
      <point x="89" y="66"/>
      <point x="84" y="52"/>
      <point x="74" y="44" type="curve" smooth="yes"/>
      <point x="60" y="33"/>
      <point x="36" y="33"/>
    </contour>
    <contour>
      <point x="222" y="217" type="line"/>
      <point x="507" y="521" type="line"/>
      <point x="543" y="558"/>
      <point x="584" y="592"/>
      <point x="612" y="604" type="curve" smooth="yes"/>
      <point x="626" y="610"/>
      <point x="656" y="615"/>
      <point x="662" y="616" type="curve"/>
      <point x="662" y="634" type="line"/>
      <point x="384" y="634" type="line"/>
      <point x="384" y="616" type="line"/>
      <point x="408" y="611"/>
      <point x="432" y="598"/>
      <point x="432" y="575" type="curve" smooth="yes"/>
      <point x="432" y="561"/>
      <point x="423" y="544"/>
      <point x="405" y="523" type="curve"/>
      <point x="184" y="267" type="line"/>
    </contour>
    <contour>
      <point x="712" y="0" type="line"/>
      <point x="712" y="18" type="line"/>
      <point x="649" y="34"/>
      <point x="636" y="48"/>
      <point x="586" y="99" type="curve"/>
      <point x="351" y="362" type="line"/>
      <point x="217" y="301" type="line"/>
      <point x="289" y="217"/>
      <point x="417" y="72"/>
      <point x="446" y="40" type="curve" smooth="yes"/>
      <point x="475" y="8"/>
      <point x="523" y="-4"/>
      <point x="566" y="-3" type="curve" smooth="yes"/>
    </contour>
  </outline>
</glyph>
<glyph name="L" format="2">
  <advance width="624"/>
  <unicode hex="004C"/>
  <anchor x="297" y="0" name="bottom"/>
  <anchor x="297" y="317" name="center"/>
  <anchor x="297" y="634" name="top"/>
  <anchor x="592" y="634" name="topright"/>
  <outline>
    <contour>
      <point x="0" y="23" type="curve"/>
      <point x="0" y="-3" type="line"/>
      <point x="90" y="-1"/>
      <point x="242" y="0"/>
      <point x="322" y="0" type="curve"/>
      <point x="322" y="41" type="line"/>
      <point x="260" y="43"/>
      <point x="243" y="43"/>
      <point x="243" y="105" type="curve" smooth="yes"/>
      <point x="241" y="234"/>
      <point x="240" y="319"/>
      <point x="243" y="536" type="curve" smooth="yes"/>
      <point x="243" y="572"/>
      <point x="245" y="586"/>
      <point x="266" y="596" type="curve" smooth="yes"/>
      <point x="277" y="601"/>
      <point x="295" y="604"/>
      <point x="324" y="607" type="curve"/>
      <point x="324" y="635" type="line"/>
      <point x="2" y="635" type="line"/>
      <point x="2" y="611" type="line"/>
      <point x="37" y="606"/>
      <point x="60" y="604"/>
      <point x="73" y="595" type="curve" smooth="yes"/>
      <point x="84" y="587"/>
      <point x="88" y="573"/>
      <point x="89" y="544" type="curve" smooth="yes"/>
      <point x="92" y="401"/>
      <point x="91" y="234"/>
      <point x="88" y="91" type="curve" smooth="yes"/>
      <point x="87" y="63"/>
      <point x="84" y="49"/>
      <point x="74" y="40" type="curve" smooth="yes"/>
      <point x="61" y="30"/>
      <point x="39" y="29"/>
    </contour>
    <contour>
      <point x="322" y="0" type="line"/>
      <point x="384" y="2"/>
      <point x="459" y="1"/>
      <point x="546" y="-3" type="curve"/>
      <point x="564" y="120"/>
      <point x="594" y="195"/>
      <point x="594" y="195" type="curve"/>
      <point x="531" y="207" type="line"/>
      <point x="508" y="116"/>
      <point x="446" y="47"/>
      <point x="410" y="45" type="curve"/>
      <point x="366" y="44"/>
      <point x="343" y="41"/>
      <point x="322" y="41" type="curve"/>
    </contour>
  </outline>
</glyph>
<glyph name="M" format="2">
  <advance width="952"/>
  <unicode hex="004D"/>
  <anchor x="464" y="0" name="bottom"/>
  <anchor x="464" y="634" name="top"/>
  <outline>
    <contour>
      <point x="437" y="-16" type="line"/>
      <point x="770" y="604" type="line"/>
      <point x="714" y="634" type="line"/>
      <point x="416" y="108" type="line"/>
      <point x="490" y="164" type="line"/>
      <point x="245" y="634" type="line"/>
      <point x="-4" y="634" type="line"/>
      <point x="-4" y="609" type="line"/>
      <point x="44" y="605" type="line" smooth="yes"/>
      <point x="73" y="602"/>
      <point x="100" y="583"/>
      <point x="114" y="558" type="curve" smooth="yes"/>
    </contour>
    <contour>
      <point x="-22" y="0" type="line"/>
      <point x="284" y="0" type="line"/>
      <point x="284" y="25" type="line"/>
      <point x="248" y="33"/>
      <point x="200" y="40"/>
      <point x="189" y="52" type="curve" smooth="yes"/>
      <point x="180" y="63"/>
      <point x="152" y="79"/>
      <point x="153" y="105" type="curve" smooth="yes"/>
      <point x="173" y="579" type="line"/>
      <point x="107" y="609" type="line"/>
      <point x="87" y="105" type="line" smooth="yes"/>
      <point x="86" y="78"/>
      <point x="58" y="60"/>
      <point x="49" y="51" type="curve" smooth="yes"/>
      <point x="38" y="39"/>
      <point x="1" y="33"/>
      <point x="-22" y="25" type="curve"/>
    </contour>
    <contour>
      <point x="626" y="0" type="line"/>
      <point x="950" y="0" type="line"/>
      <point x="950" y="25" type="line"/>
      <point x="910" y="33"/>
      <point x="886" y="41"/>
      <point x="876" y="51" type="curve" smooth="yes"/>
      <point x="862" y="65"/>
      <point x="863" y="82"/>
      <point x="863" y="104" type="curve" smooth="yes"/>
      <point x="861" y="216"/>
      <point x="859" y="419"/>
      <point x="859" y="547" type="curve" smooth="yes"/>
      <point x="859" y="562"/>
      <point x="863" y="574"/>
      <point x="872" y="584" type="curve" smooth="yes"/>
      <point x="884" y="596"/>
      <point x="902" y="604"/>
      <point x="932" y="609" type="curve"/>
      <point x="932" y="634" type="line"/>
      <point x="714" y="634" type="line"/>
      <point x="711" y="104" type="line" smooth="yes"/>
      <point x="711" y="80"/>
      <point x="711" y="63"/>
      <point x="698" y="50" type="curve" smooth="yes"/>
      <point x="682" y="34"/>
      <point x="645" y="27"/>
      <point x="626" y="25" type="curve"/>
    </contour>
  </outline>
</glyph>
<glyph name="N" format="2">
  <advance width="749"/>
  <unicode hex="004E"/>
  <anchor x="369" y="0" name="bottom"/>
  <anchor x="369" y="634" name="top"/>
  <outline>
    <contour>
      <point x="604" y="-11" type="line"/>
      <point x="674" y="-11" type="line"/>
      <point x="674" y="157"/>
      <point x="674" y="461"/>
      <point x="674" y="530" type="curve"/>
      <point x="608" y="530" type="line"/>
      <point x="608" y="97" type="line"/>
      <point x="655" y="142" type="line"/>
      <point x="204" y="634" type="line"/>
      <point x="0" y="634" type="line"/>
      <point x="0" y="609" type="line"/>
      <point x="23" y="605"/>
      <point x="44" y="597"/>
      <point x="58" y="584" type="curve" smooth="yes"/>
      <point x="77" y="566"/>
      <point x="147" y="496"/>
      <point x="147" y="496" type="curve"/>
    </contour>
    <contour>
      <point x="0" y="0" type="line"/>
      <point x="260" y="0" type="line"/>
      <point x="260" y="25" type="line"/>
      <point x="224" y="28"/>
      <point x="183" y="35"/>
      <point x="169" y="52" type="curve" smooth="yes"/>
      <point x="156" y="68"/>
      <point x="156" y="78"/>
      <point x="156" y="104" type="curve"/>
      <point x="90" y="104" type="line"/>
      <point x="90" y="77"/>
      <point x="89" y="65"/>
      <point x="75" y="51" type="curve" smooth="yes"/>
      <point x="58" y="34"/>
      <point x="21" y="33"/>
      <point x="0" y="25" type="curve"/>
    </contour>
    <contour>
      <point x="90" y="104" type="line"/>
      <point x="156" y="104" type="line"/>
      <point x="156" y="579" type="line"/>
      <point x="90" y="609" type="line"/>
    </contour>
    <contour>
      <point x="608" y="530" type="curve"/>
      <point x="674" y="530" type="line"/>
      <point x="674" y="560"/>
      <point x="679" y="576"/>
      <point x="691" y="585" type="curve" smooth="yes"/>
      <point x="703" y="595"/>
      <point x="723" y="599"/>
      <point x="746" y="606" type="curve"/>
      <point x="746" y="634" type="line"/>
      <point x="504" y="634" type="line"/>
      <point x="504" y="609" type="line"/>
      <point x="550" y="602"/>
      <point x="577" y="600"/>
      <point x="592" y="586" type="curve" smooth="yes"/>
      <point x="603" y="575"/>
      <point x="608" y="559"/>
    </contour>
  </outline>
</glyph>
<glyph name="O" format="2">
  <advance width="810"/>
  <unicode hex="004F"/>
  <anchor x="405" y="0" name="bottom"/>
  <anchor x="405" y="317" name="center"/>
  <anchor x="722" y="10" name="ogonek"/>
  <anchor x="405" y="634" name="top"/>
  <anchor x="29" y="634" name="topleft"/>
  <anchor x="781" y="634" name="topright"/>
  <outline>
    <contour>
      <point x="402" y="-11" type="curve" smooth="yes"/>
      <point x="615" y="-11"/>
      <point x="765" y="129"/>
      <point x="765" y="326" type="curve" smooth="yes"/>
      <point x="765" y="512"/>
      <point x="615" y="644"/>
      <point x="402" y="644" type="curve" smooth="yes"/>
      <point x="193" y="644"/>
      <point x="45" y="505"/>
      <point x="45" y="308" type="curve" smooth="yes"/>
      <point x="45" y="121"/>
      <point x="193" y="-11"/>
    </contour>
    <contour>
      <point x="213" y="336" type="curve" smooth="yes"/>
      <point x="213" y="492"/>
      <point x="284" y="603"/>
      <point x="385" y="603" type="curve" smooth="yes"/>
      <point x="509" y="603"/>
      <point x="597" y="477"/>
      <point x="597" y="298" type="curve" smooth="yes"/>
      <point x="597" y="141"/>
      <point x="523" y="30"/>
      <point x="419" y="30" type="curve" smooth="yes"/>
      <point x="298" y="30"/>
      <point x="213" y="157"/>
    </contour>
  </outline>
</glyph>
<glyph name="P" format="2">
  <advance width="588"/>
  <unicode hex="0050"/>
  <anchor x="288" y="0" name="bottom"/>
  <anchor x="288" y="634" name="top"/>
  <outline>
    <contour>
      <point x="274" y="272" type="line"/>
      <point x="280" y="271"/>
      <point x="293" y="271"/>
      <point x="305" y="271" type="curve" smooth="yes"/>
      <point x="453" y="271"/>
      <point x="558" y="352"/>
      <point x="558" y="466" type="curve" smooth="yes"/>
      <point x="558" y="568"/>
      <point x="465" y="638"/>
      <point x="333" y="636" type="curve"/>
      <point x="314" y="602" type="line"/>
      <point x="364" y="602"/>
      <point x="400" y="541"/>
      <point x="400" y="454" type="curve" smooth="yes"/>
      <point x="400" y="361"/>
      <point x="348" y="295"/>
      <point x="274" y="295" type="curve"/>
    </contour>
    <contour>
      <point x="0" y="0" type="line"/>
      <point x="342" y="0" type="line"/>
      <point x="342" y="25" type="line"/>
      <point x="291" y="36"/>
      <point x="270" y="39"/>
      <point x="258" y="51" type="curve" smooth="yes"/>
      <point x="248" y="61"/>
      <point x="245" y="78"/>
      <point x="244" y="111" type="curve" smooth="yes"/>
      <point x="242" y="194"/>
      <point x="242" y="397"/>
      <point x="245" y="601" type="curve"/>
      <point x="314" y="602" type="line"/>
      <point x="333" y="636" type="line"/>
      <point x="287" y="635"/>
      <point x="218" y="634"/>
      <point x="165" y="634" type="curve"/>
      <point x="126" y="634"/>
      <point x="25" y="635"/>
      <point x="-18" y="636" type="curve"/>
      <point x="-18" y="605" type="line"/>
      <point x="27" y="598"/>
      <point x="57" y="594"/>
      <point x="74" y="574" type="curve" smooth="yes"/>
      <point x="84" y="563"/>
      <point x="89" y="549"/>
      <point x="89" y="525" type="curve" smooth="yes"/>
      <point x="91" y="369"/>
      <point x="91" y="235"/>
      <point x="89" y="101" type="curve" smooth="yes"/>
      <point x="89" y="75"/>
      <point x="85" y="60"/>
      <point x="76" y="49" type="curve" smooth="yes"/>
      <point x="65" y="35"/>
      <point x="23" y="30"/>
      <point x="0" y="25" type="curve"/>
    </contour>
  </outline>
</glyph>
<glyph name="Q" format="2">
  <advance width="810"/>
  <unicode hex="0051"/>
  <anchor x="405" y="0" name="bottom"/>
  <anchor x="405" y="634" name="top"/>
  <outline>
    <contour>
      <point x="402" y="-11" type="curve" smooth="yes"/>
      <point x="615" y="-11"/>
      <point x="765" y="129"/>
      <point x="765" y="326" type="curve" smooth="yes"/>
      <point x="765" y="512"/>
      <point x="615" y="644"/>
      <point x="402" y="644" type="curve" smooth="yes"/>
      <point x="193" y="644"/>
      <point x="45" y="505"/>
      <point x="45" y="308" type="curve" smooth="yes"/>
      <point x="45" y="121"/>
      <point x="193" y="-11"/>
    </contour>
    <contour>
      <point x="213" y="336" type="curve" smooth="yes"/>
      <point x="213" y="492"/>
      <point x="284" y="603"/>
      <point x="385" y="603" type="curve" smooth="yes"/>
      <point x="509" y="603"/>
      <point x="597" y="477"/>
      <point x="597" y="298" type="curve" smooth="yes"/>
      <point x="597" y="141"/>
      <point x="523" y="30"/>
      <point x="419" y="30" type="curve" smooth="yes"/>
      <point x="298" y="30"/>
      <point x="213" y="157"/>
    </contour>
    <contour>
      <point x="804" y="-232" type="curve" smooth="yes"/>
      <point x="947" y="-232"/>
      <point x="1108" y="-192"/>
      <point x="1194" y="-135" type="curve"/>
      <point x="1183" y="-115" type="line"/>
      <point x="1117" y="-142"/>
      <point x="1013" y="-161"/>
      <point x="932" y="-161" type="curve" smooth="yes"/>
      <point x="767" y="-161"/>
      <point x="597" y="-75"/>
      <point x="521" y="47" type="curve"/>
      <point x="322" y="11" type="line"/>
      <point x="413" y="-131"/>
      <point x="613" y="-232"/>
    </contour>
  </outline>
</glyph>
<glyph name="R" format="2">
  <advance width="720"/>
  <unicode hex="0052"/>
  <anchor x="351" y="0" name="bottom"/>
  <anchor x="351" y="634" name="top"/>
  <outline>
    <contour>
      <point x="234" y="282" type="line"/>
      <point x="420" y="282"/>
      <point x="552" y="362"/>
      <point x="552" y="476" type="curve" smooth="yes"/>
      <point x="552" y="572"/>
      <point x="458" y="638"/>
      <point x="325" y="636" type="curve"/>
      <point x="288" y="594" type="line"/>
      <point x="350" y="594"/>
      <point x="394" y="540"/>
      <point x="394" y="464" type="curve" smooth="yes"/>
      <point x="394" y="381"/>
      <point x="328" y="322"/>
      <point x="234" y="322" type="curve"/>
    </contour>
    <contour>
      <point x="0" y="0" type="line"/>
      <point x="342" y="0" type="line"/>
      <point x="342" y="27" type="line"/>
      <point x="303" y="31"/>
      <point x="265" y="41"/>
      <point x="254" y="53" type="curve" smooth="yes"/>
      <point x="244" y="63"/>
      <point x="242" y="79"/>
      <point x="242" y="106" type="curve" smooth="yes"/>
      <point x="242" y="344"/>
      <point x="243" y="545"/>
      <point x="245" y="592" type="curve"/>
      <point x="288" y="594" type="line"/>
      <point x="325" y="636" type="line"/>
      <point x="258" y="635"/>
      <point x="191" y="634"/>
      <point x="163" y="634" type="curve"/>
      <point x="124" y="633"/>
      <point x="47" y="635"/>
      <point x="1" y="636" type="curve"/>
      <point x="1" y="610" type="line"/>
      <point x="36" y="603"/>
      <point x="67" y="597"/>
      <point x="78" y="585" type="curve" smooth="yes"/>
      <point x="87" y="574"/>
      <point x="89" y="556"/>
      <point x="89" y="530" type="curve" smooth="yes"/>
      <point x="91" y="376"/>
      <point x="91" y="238"/>
      <point x="89" y="104" type="curve" smooth="yes"/>
      <point x="89" y="69"/>
      <point x="85" y="53"/>
      <point x="74" y="44" type="curve" smooth="yes"/>
      <point x="62" y="34"/>
      <point x="42" y="32"/>
      <point x="0" y="25" type="curve"/>
    </contour>
    <contour>
      <point x="720" y="0" type="line"/>
      <point x="720" y="18" type="line"/>
      <point x="645" y="26"/>
      <point x="525" y="159"/>
      <point x="430" y="337" type="curve"/>
      <point x="282" y="305" type="line"/>
      <point x="367" y="123"/>
      <point x="474" y="-4"/>
      <point x="546" y="-3" type="curve" smooth="yes"/>
    </contour>
  </outline>
</glyph>
<glyph name="S" format="2">
  <advance width="556"/>
  <unicode hex="0053"/>
  <anchor x="267" y="0" name="bottom"/>
  <anchor x="267" y="634" name="top"/>
  <outline>
    <contour>
      <point x="259" y="-9" type="curve" smooth="yes"/>
      <point x="407" y="-9"/>
      <point x="511" y="68"/>
      <point x="511" y="176" type="curve" smooth="yes"/>
      <point x="511" y="341"/>
      <point x="201" y="372"/>
      <point x="204" y="510" type="curve" smooth="yes"/>
      <point x="205" y="562"/>
      <point x="238" y="599"/>
      <point x="283" y="599" type="curve" smooth="yes"/>
      <point x="370" y="599"/>
      <point x="425" y="539"/>
      <point x="417" y="453" type="curve"/>
      <point x="474" y="453" type="line"/>
      <point x="473" y="534"/>
      <point x="482" y="600"/>
      <point x="496" y="611" type="curve"/>
      <point x="427" y="629"/>
      <point x="339" y="642"/>
      <point x="283" y="642" type="curve" smooth="yes"/>
      <point x="153" y="642"/>
      <point x="61" y="568"/>
      <point x="61" y="464" type="curve" smooth="yes"/>
      <point x="61" y="290"/>
      <point x="365" y="279"/>
      <point x="365" y="136" type="curve" smooth="yes"/>
      <point x="365" y="75"/>
      <point x="321" y="33"/>
      <point x="259" y="35" type="curve" smooth="yes"/>
      <point x="175" y="37"/>
      <point x="117" y="112"/>
      <point x="119" y="215" type="curve"/>
      <point x="60" y="215" type="line"/>
      <point x="66" y="163"/>
      <point x="60" y="89"/>
      <point x="45" y="36" type="curve"/>
      <point x="129" y="10"/>
      <point x="218" y="-9"/>
    </contour>
  </outline>
</glyph>
<glyph name="T" format="2">
  <advance width="684"/>
  <unicode hex="0054"/>
  <anchor x="342" y="0" name="bottom"/>
  <anchor x="342" y="317" name="center"/>
  <anchor x="342" y="634" name="top"/>
  <outline>
    <contour>
      <point x="144" y="0" type="line"/>
      <point x="540" y="0" type="line"/>
      <point x="540" y="28" type="line"/>
      <point x="465" y="42"/>
      <point x="421" y="46"/>
      <point x="419" y="100" type="curve" smooth="yes"/>
      <point x="414" y="262"/>
      <point x="414" y="423"/>
      <point x="419" y="608" type="curve"/>
      <point x="395" y="556" type="line"/>
      <point x="459" y="556"/>
      <point x="528" y="556"/>
      <point x="557" y="556" type="curve" smooth="yes"/>
      <point x="575" y="556"/>
      <point x="622" y="536"/>
      <point x="627" y="442" type="curve"/>
      <point x="684" y="446" type="line"/>
      <point x="683" y="492"/>
      <point x="678" y="556"/>
      <point x="667" y="643" type="curve"/>
      <point x="655" y="643" type="line"/>
      <point x="582" y="634" type="line"/>
      <point x="425" y="631"/>
      <point x="236" y="631"/>
      <point x="94" y="634" type="curve"/>
      <point x="28" y="653" type="line"/>
      <point x="20" y="648" type="line"/>
      <point x="8" y="558"/>
      <point x="2" y="492"/>
      <point x="0" y="443" type="curve"/>
      <point x="57" y="441" type="line"/>
      <point x="62" y="538"/>
      <point x="97" y="556"/>
      <point x="143" y="556" type="curve" smooth="yes"/>
      <point x="365" y="556" type="line"/>
      <point x="263" y="608" type="line"/>
      <point x="265" y="457"/>
      <point x="265" y="146"/>
      <point x="263" y="100" type="curve" smooth="yes"/>
      <point x="261" y="54"/>
      <point x="220" y="41"/>
      <point x="144" y="28" type="curve"/>
    </contour>
  </outline>
</glyph>
<glyph name="U" format="2">
  <advance width="706"/>
  <unicode hex="0055"/>
  <anchor x="353" y="0" name="bottom"/>
  <anchor x="648" y="10" name="ogonek"/>
  <anchor x="353" y="634" name="top"/>
  <anchor x="702" y="634" name="topright"/>
  <outline>
    <contour>
      <point x="359" y="-11" type="curve" smooth="yes"/>
      <point x="517" y="-11"/>
      <point x="630" y="86"/>
      <point x="632" y="204" type="curve" smooth="yes"/>
      <point x="634" y="357"/>
      <point x="631" y="449"/>
      <point x="632" y="532" type="curve" smooth="yes"/>
      <point x="633" y="596"/>
      <point x="656" y="606"/>
      <point x="704" y="606" type="curve"/>
      <point x="704" y="634" type="line"/>
      <point x="488" y="634" type="line"/>
      <point x="488" y="610" type="line"/>
      <point x="539" y="600"/>
      <point x="571" y="571"/>
      <point x="572" y="499" type="curve" smooth="yes"/>
      <point x="573" y="387"/>
      <point x="573" y="256"/>
      <point x="572" y="208" type="curve" smooth="yes"/>
      <point x="570" y="118"/>
      <point x="494" y="42"/>
      <point x="395" y="42" type="curve"/>
      <point x="295" y="42"/>
      <point x="239" y="110"/>
      <point x="229" y="188" type="curve" smooth="yes"/>
      <point x="225" y="216"/>
      <point x="226" y="344"/>
      <point x="226" y="521" type="curve" smooth="yes"/>
      <point x="226" y="588"/>
      <point x="259" y="606"/>
      <point x="308" y="610" type="curve"/>
      <point x="308" y="634" type="line"/>
      <point x="2" y="634" type="line"/>
      <point x="2" y="603" type="line"/>
      <point x="32" y="597"/>
      <point x="74" y="585"/>
      <point x="74" y="529" type="curve" smooth="yes"/>
      <point x="74" y="504"/>
      <point x="71" y="385"/>
      <point x="74" y="202" type="curve" smooth="yes"/>
      <point x="76" y="85"/>
      <point x="174" y="-11"/>
    </contour>
  </outline>
</glyph>
<glyph name="V" format="2">
  <advance width="720"/>
  <unicode hex="0056"/>
  <anchor x="360" y="0" name="bottom"/>
  <anchor x="360" y="634" name="top"/>
  <outline>
    <contour>
      <point x="320" y="-24" type="line"/>
      <point x="387" y="-24" type="line"/>
      <point x="456" y="153"/>
      <point x="586" y="462"/>
      <point x="613" y="523" type="curve" smooth="yes"/>
      <point x="640" y="584"/>
      <point x="676" y="597"/>
      <point x="720" y="606" type="curve"/>
      <point x="720" y="634" type="line"/>
      <point x="452" y="634" type="line"/>
      <point x="452" y="611" type="line"/>
      <point x="503" y="604"/>
      <point x="538" y="591"/>
      <point x="538" y="561" type="curve" smooth="yes"/>
      <point x="538" y="539"/>
      <point x="525" y="506"/>
      <point x="510" y="470" type="curve" smooth="yes"/>
      <point x="349" y="70" type="line"/>
      <point x="432" y="93" type="line"/>
      <point x="373" y="227"/>
      <point x="275" y="498"/>
      <point x="268" y="514" type="curve" smooth="yes"/>
      <point x="261" y="530"/>
      <point x="256" y="546"/>
      <point x="256" y="561" type="curve" smooth="yes"/>
      <point x="256" y="576"/>
      <point x="256" y="600"/>
      <point x="342" y="609" type="curve"/>
      <point x="342" y="634" type="line"/>
      <point x="0" y="634" type="line"/>
      <point x="0" y="606" type="line"/>
      <point x="30" y="598"/>
      <point x="76" y="589"/>
      <point x="109" y="507" type="curve" smooth="yes"/>
    </contour>
  </outline>
</glyph>
<glyph name="W" format="2">
  <advance width="1026"/>
  <unicode hex="0057"/>
  <anchor x="513" y="0" name="bottom"/>
  <anchor x="513" y="634" name="top"/>
  <outline>
    <contour>
      <point x="320" y="-24" type="line"/>
      <point x="387" y="-24" type="line"/>
      <point x="436" y="101"/>
      <point x="515" y="293"/>
      <point x="567" y="416" type="curve"/>
      <point x="513" y="477" type="line"/>
      <point x="349" y="70" type="line"/>
      <point x="432" y="93" type="line"/>
      <point x="268" y="514" type="line"/>
      <point x="249" y="558"/>
      <point x="252" y="594"/>
      <point x="306" y="609" type="curve"/>
      <point x="306" y="634" type="line"/>
      <point x="0" y="634" type="line"/>
      <point x="0" y="606" type="line"/>
      <point x="30" y="598"/>
      <point x="76" y="589"/>
      <point x="109" y="507" type="curve" smooth="yes"/>
    </contour>
    <contour>
      <point x="636" y="-24" type="line"/>
      <point x="703" y="-24" type="line"/>
      <point x="772" y="153"/>
      <point x="902" y="462"/>
      <point x="929" y="523" type="curve" smooth="yes"/>
      <point x="956" y="584"/>
      <point x="992" y="597"/>
      <point x="1026" y="606" type="curve"/>
      <point x="1026" y="634" type="line"/>
      <point x="768" y="634" type="line"/>
      <point x="768" y="611" type="line"/>
      <point x="873" y="597"/>
      <point x="867" y="568"/>
      <point x="826" y="470" type="curve" smooth="yes"/>
      <point x="665" y="70" type="line"/>
      <point x="748" y="93" type="line"/>
      <point x="689" y="227"/>
      <point x="609" y="498"/>
      <point x="602" y="514" type="curve" smooth="yes"/>
      <point x="574" y="579"/>
      <point x="592" y="600"/>
      <point x="676" y="609" type="curve"/>
      <point x="676" y="634" type="line"/>
      <point x="360" y="634" type="line"/>
      <point x="360" y="606" type="line"/>
      <point x="382" y="598"/>
      <point x="413" y="590"/>
      <point x="443" y="507" type="curve" smooth="yes"/>
    </contour>
  </outline>
</glyph>
<glyph name="X" format="2">
  <advance width="696"/>
  <unicode hex="0058"/>
  <anchor x="348" y="0" name="bottom"/>
  <anchor x="348" y="634" name="top"/>
  <outline>
    <contour>
      <point x="351" y="0" type="line"/>
      <point x="681" y="0" type="line"/>
      <point x="681" y="28" type="line"/>
      <point x="640" y="33"/>
      <point x="636" y="25"/>
      <point x="574" y="114" type="curve" smooth="yes"/>
      <point x="407" y="355"/>
      <point x="411" y="351"/>
      <point x="290" y="529" type="curve" smooth="yes"/>
      <point x="270" y="558"/>
      <point x="263" y="573"/>
      <point x="263" y="584" type="curve" smooth="yes"/>
      <point x="263" y="599"/>
      <point x="278" y="604"/>
      <point x="329" y="609" type="curve"/>
      <point x="329" y="634" type="line"/>
      <point x="15" y="634" type="line"/>
      <point x="15" y="606" type="line"/>
      <point x="49" y="606"/>
      <point x="66" y="603"/>
      <point x="128" y="510" type="curve" smooth="yes"/>
      <point x="276" y="290"/>
      <point x="282" y="290"/>
      <point x="407" y="105" type="curve" smooth="yes"/>
      <point x="427" y="76"/>
      <point x="438" y="58"/>
      <point x="438" y="47" type="curve" smooth="yes"/>
      <point x="438" y="30"/>
      <point x="414" y="29"/>
      <point x="351" y="25" type="curve"/>
    </contour>
    <contour>
      <point x="15" y="0" type="line"/>
      <point x="244" y="0" type="line"/>
      <point x="244" y="25" type="line"/>
      <point x="212" y="28"/>
      <point x="190" y="32"/>
      <point x="190" y="54" type="curve" smooth="yes"/>
      <point x="190" y="67"/>
      <point x="196" y="79"/>
      <point x="219" y="112" type="curve" smooth="yes"/>
      <point x="357" y="312" type="line"/>
      <point x="292" y="337" type="line"/>
      <point x="122" y="101" type="line" smooth="yes"/>
      <point x="61" y="16"/>
      <point x="46" y="30"/>
      <point x="15" y="28" type="curve"/>
    </contour>
    <contour>
      <point x="368" y="319" type="line"/>
      <point x="518" y="520" type="line" smooth="yes"/>
      <point x="577" y="600"/>
      <point x="602" y="603"/>
      <point x="640" y="606" type="curve"/>
      <point x="640" y="634" type="line"/>
      <point x="411" y="634" type="line"/>
      <point x="411" y="609" type="line"/>
      <point x="438" y="606"/>
      <point x="460" y="604"/>
      <point x="460" y="585" type="curve" smooth="yes"/>
      <point x="460" y="568"/>
      <point x="439" y="533"/>
      <point x="400" y="479" type="curve" smooth="yes"/>
      <point x="302" y="344" type="line"/>
    </contour>
  </outline>
</glyph>
<glyph name="Y" format="2">
  <advance width="612"/>
  <unicode hex="0059"/>
  <anchor x="306" y="0" name="bottom"/>
  <anchor x="306" y="634" name="top"/>
  <anchor x="20" y="634" name="topleft"/>
  <outline>
    <contour>
      <point x="123" y="0" type="line"/>
      <point x="501" y="0" type="line"/>
      <point x="501" y="28" type="line"/>
      <point x="430" y="33"/>
      <point x="385" y="30"/>
      <point x="385" y="93" type="curve" smooth="yes"/>
      <point x="385" y="318" type="line"/>
      <point x="371" y="257" type="line"/>
      <point x="519" y="526" type="line" smooth="yes"/>
      <point x="563" y="606"/>
      <point x="599" y="606"/>
      <point x="612" y="606" type="curve"/>
      <point x="612" y="634" type="line"/>
      <point x="379" y="634" type="line"/>
      <point x="379" y="609" type="line"/>
      <point x="451" y="599"/>
      <point x="466" y="583"/>
      <point x="434" y="523" type="curve"/>
      <point x="318" y="306" type="line"/>
      <point x="367" y="307" type="line"/>
      <point x="248" y="543" type="line"/>
      <point x="219" y="604"/>
      <point x="220" y="603"/>
      <point x="288" y="609" type="curve"/>
      <point x="288" y="634" type="line"/>
      <point x="0" y="634" type="line"/>
      <point x="0" y="606" type="line"/>
      <point x="35" y="606"/>
      <point x="56" y="599"/>
      <point x="69" y="574" type="curve" smooth="yes"/>
      <point x="238" y="261" type="line"/>
      <point x="232" y="311" type="line"/>
      <point x="232" y="93" type="line" smooth="yes"/>
      <point x="232" y="38"/>
      <point x="169" y="33"/>
      <point x="123" y="28" type="curve"/>
    </contour>
  </outline>
</glyph>
<glyph name="Z" format="2">
  <advance width="705"/>
  <unicode hex="005A"/>
  <anchor x="354" y="0" name="bottom"/>
  <anchor x="354" y="317" name="center"/>
  <anchor x="354" y="634" name="top"/>
  <outline>
    <contour>
      <point x="38" y="0" type="line"/>
      <point x="165" y="0"/>
      <point x="432" y="1"/>
      <point x="461" y="1" type="curve" smooth="yes"/>
      <point x="491" y="1"/>
      <point x="561" y="1"/>
      <point x="602" y="-2" type="curve"/>
      <point x="628" y="57"/>
      <point x="650" y="161"/>
      <point x="660" y="228" type="curve"/>
      <point x="608" y="228" type="line"/>
      <point x="597" y="172"/>
      <point x="554" y="43"/>
      <point x="407" y="41" type="curve" smooth="yes"/>
      <point x="194" y="38" type="line"/>
      <point x="217" y="24" type="line"/>
      <point x="632" y="612" type="line"/>
      <point x="620" y="639" type="line"/>
      <point x="543" y="634"/>
      <point x="389" y="633"/>
      <point x="269" y="633" type="curve" smooth="yes"/>
      <point x="211" y="633"/>
      <point x="111" y="629"/>
      <point x="52" y="635" type="curve"/>
      <point x="61" y="572"/>
      <point x="55" y="490"/>
      <point x="54" y="445" type="curve"/>
      <point x="100" y="445" type="line"/>
      <point x="110" y="479"/>
      <point x="99" y="594"/>
      <point x="234" y="594" type="curve" smooth="yes"/>
      <point x="309" y="594"/>
      <point x="425" y="592"/>
      <point x="483" y="590" type="curve"/>
      <point x="455" y="614" type="line"/>
      <point x="30" y="12" type="line"/>
    </contour>
  </outline>
</glyph>
<glyph name="bracketleft" format="2">
  <advance width="321"/>
  <unicode hex="005B"/>
  <outline>
    <contour>
      <point x="187" y="656" type="line"/>
      <point x="306" y="656" type="line"/>
      <point x="306" y="692" type="line"/>
      <point x="79" y="692" type="line"/>
      <point x="94" y="416"/>
      <point x="94" y="140"/>
      <point x="79" y="-136" type="curve"/>
      <point x="306" y="-136" type="line"/>
      <point x="306" y="-100" type="line"/>
      <point x="187" y="-100" type="line"/>
    </contour>
  </outline>
</glyph>
<glyph name="backslash" format="2">
  <advance width="366"/>
  <unicode hex="005C"/>
  <outline>
    <contour>
      <point x="289" y="-102" type="line"/>
      <point x="336" y="-85" type="line"/>
      <point x="78" y="751" type="line"/>
      <point x="30" y="736" type="line"/>
    </contour>
  </outline>
</glyph>
<glyph name="bracketright" format="2">
  <advance width="321"/>
  <unicode hex="005D"/>
  <outline>
    <contour>
      <point x="134" y="656" type="line"/>
      <point x="134" y="-100" type="line"/>
      <point x="15" y="-100" type="line"/>
      <point x="15" y="-136" type="line"/>
      <point x="242" y="-136" type="line"/>
      <point x="227" y="140"/>
      <point x="227" y="416"/>
      <point x="242" y="692" type="curve"/>
      <point x="15" y="692" type="line"/>
      <point x="15" y="656" type="line"/>
    </contour>
  </outline>
</glyph>
<glyph name="asciicircum" format="2">
  <advance width="414"/>
  <unicode hex="005E"/>
  <outline>
    <contour>
      <point x="92" y="327" type="line"/>
      <point x="207" y="538" type="line"/>
      <point x="322" y="327" type="line"/>
      <point x="369" y="345" type="line"/>
      <point x="223" y="616" type="line"/>
      <point x="191" y="616" type="line"/>
      <point x="45" y="345" type="line"/>
    </contour>
  </outline>
</glyph>
<glyph name="a" format="2">
  <advance width="504"/>
  <unicode hex="0061"/>
  <anchor x="256" y="0" name="bottom"/>
  <anchor x="458" y="10" name="ogonek"/>
  <anchor x="256" y="399" name="top"/>
  <outline>
    <contour>
      <point x="365" y="-6" type="curve" smooth="yes"/>
      <point x="394" y="-6"/>
      <point x="457" y="15"/>
      <point x="518" y="45" type="curve"/>
      <point x="516" y="58" type="line"/>
      <point x="484" y="59" type="line" smooth="yes"/>
      <point x="459" y="60"/>
      <point x="441" y="78"/>
      <point x="441" y="102" type="curve" smooth="yes"/>
      <point x="441" y="-3"/>
      <point x="443" y="74"/>
      <point x="445" y="290" type="curve"/>
      <point x="445" y="362"/>
      <point x="385" y="413"/>
      <point x="299" y="413" type="curve" smooth="yes"/>
      <point x="236" y="413"/>
      <point x="152" y="389"/>
      <point x="98" y="354" type="curve" smooth="yes"/>
      <point x="66" y="332"/>
      <point x="44" y="295"/>
      <point x="44" y="264" type="curve" smooth="yes"/>
      <point x="44" y="197"/>
      <point x="170" y="229"/>
      <point x="170" y="296" type="curve" smooth="yes"/>
      <point x="170" y="312"/>
      <point x="163" y="308"/>
      <point x="163" y="323" type="curve" smooth="yes"/>
      <point x="163" y="350"/>
      <point x="185" y="369"/>
      <point x="217" y="369" type="curve" smooth="yes"/>
      <point x="269" y="369"/>
      <point x="304" y="334"/>
      <point x="301" y="284" type="curve" smooth="yes"/>
      <point x="298" y="236" type="line"/>
      <point x="297" y="233"/>
      <point x="297" y="159"/>
      <point x="297" y="57" type="curve" smooth="yes"/>
      <point x="301" y="20"/>
      <point x="329" y="-6"/>
    </contour>
    <contour>
      <point x="113" y="-6" type="curve" smooth="yes"/>
      <point x="204" y="-6"/>
      <point x="304" y="31"/>
      <point x="354" y="84" type="curve"/>
      <point x="354" y="103" type="line"/>
      <point x="323" y="79"/>
      <point x="271" y="62"/>
      <point x="229" y="62" type="curve" smooth="yes"/>
      <point x="201" y="62"/>
      <point x="181" y="89"/>
      <point x="181" y="128" type="curve"/>
      <point x="30" y="112" type="line"/>
      <point x="30" y="43"/>
      <point x="64" y="-6"/>
    </contour>
    <contour>
      <point x="30" y="112" type="curve"/>
      <point x="181" y="128" type="line"/>
      <point x="181" y="156"/>
      <point x="242" y="187"/>
      <point x="329" y="203" type="curve"/>
      <point x="330" y="234" type="line"/>
      <point x="154" y="205"/>
      <point x="30" y="155"/>
    </contour>
  </outline>
</glyph>
<glyph name="b" format="2">
  <advance width="576"/>
  <unicode hex="0062"/>
  <anchor x="285" y="0" name="bottom"/>
  <anchor x="146" y="555" name="center"/>
  <anchor x="285" y="399" name="top"/>
  <outline>
    <contour>
      <point x="204" y="42" type="line"/>
      <point x="206" y="569" type="line"/>
      <point x="209" y="676" type="line"/>
      <point x="194" y="686" type="line"/>
      <point x="-10" y="637" type="line"/>
      <point x="-10" y="616" type="line"/>
      <point x="31" y="601"/>
      <point x="60" y="578"/>
      <point x="60" y="560" type="curve" smooth="yes"/>
      <point x="60" y="255"/>
      <point x="60" y="40"/>
      <point x="60" y="40" type="curve"/>
    </contour>
    <contour>
      <point x="546" y="239" type="curve"/>
      <point x="400" y="188" type="line"/>
      <point x="399" y="93"/>
      <point x="357" y="26"/>
      <point x="299" y="26" type="curve" smooth="yes"/>
      <point x="252" y="26"/>
      <point x="202" y="67"/>
      <point x="178" y="125" type="curve"/>
      <point x="60" y="40" type="line"/>
      <point x="97" y="10"/>
      <point x="188" y="-11"/>
      <point x="278" y="-11" type="curve" smooth="yes"/>
      <point x="435" y="-11"/>
      <point x="546" y="93"/>
    </contour>
    <contour>
      <point x="400" y="188" type="curve"/>
      <point x="546" y="239" type="line"/>
      <point x="546" y="341"/>
      <point x="473" y="413"/>
      <point x="371" y="413" type="curve" smooth="yes"/>
      <point x="290" y="413"/>
      <point x="191" y="370"/>
      <point x="132" y="310" type="curve"/>
      <point x="132" y="291" type="line"/>
      <point x="161" y="317"/>
      <point x="211" y="335"/>
      <point x="254" y="335" type="curve" smooth="yes"/>
      <point x="340" y="335"/>
      <point x="400" y="274"/>
    </contour>
  </outline>
</glyph>
<glyph name="c" format="2">
  <advance width="442"/>
  <unicode hex="0063"/>
  <anchor x="228" y="0" name="bottom"/>
  <anchor x="228" y="399" name="top"/>
  <outline>
    <contour>
      <point x="177" y="210" type="curve" smooth="yes"/>
      <point x="177" y="310"/>
      <point x="202" y="380"/>
      <point x="280" y="380" type="curve"/>
      <point x="282" y="413" type="line"/>
      <point x="135" y="413"/>
      <point x="30" y="321"/>
      <point x="30" y="190" type="curve" smooth="yes"/>
      <point x="30" y="72"/>
      <point x="126" y="-11"/>
      <point x="262" y="-11" type="curve" smooth="yes"/>
      <point x="337" y="-11"/>
      <point x="401" y="40"/>
      <point x="442" y="113" type="curve"/>
      <point x="424" y="126" type="line"/>
      <point x="394" y="83"/>
      <point x="345" y="52"/>
      <point x="282" y="52" type="curve" smooth="yes"/>
      <point x="221" y="52"/>
      <point x="177" y="117"/>
    </contour>
    <contour>
      <point x="282" y="413" type="curve"/>
      <point x="280" y="380" type="line"/>
      <point x="333" y="380"/>
      <point x="359" y="308"/>
      <point x="343" y="249" type="curve"/>
      <point x="413" y="249" type="line"/>
      <point x="412" y="303"/>
      <point x="431" y="384"/>
      <point x="434" y="394" type="curve"/>
      <point x="406" y="406"/>
      <point x="341" y="413"/>
    </contour>
  </outline>
</glyph>
<glyph name="d" format="2">
  <advance width="576"/>
  <unicode hex="0064"/>
  <anchor x="300" y="0" name="bottom"/>
  <anchor x="444" y="555" name="center"/>
  <anchor x="300" y="399" name="top"/>
  <anchor x="568" y="694" name="topright"/>
  <outline>
    <contour>
      <point x="179" y="220" type="curve"/>
      <point x="30" y="189" type="line"/>
      <point x="30" y="72"/>
      <point x="105" y="-11"/>
      <point x="211" y="-11" type="curve" smooth="yes"/>
      <point x="267" y="-11"/>
      <point x="347" y="22"/>
      <point x="404" y="69" type="curve"/>
      <point x="404" y="88" type="line"/>
      <point x="366" y="65"/>
      <point x="321" y="49"/>
      <point x="294" y="49" type="curve" smooth="yes"/>
      <point x="227" y="49"/>
      <point x="179" y="120"/>
    </contour>
    <contour>
      <point x="516" y="103" type="curve"/>
      <point x="372" y="58" type="line"/>
      <point x="373" y="58" type="line"/>
      <point x="372" y="-6" type="line"/>
      <point x="385" y="-12" type="line"/>
      <point x="588" y="39" type="line"/>
      <point x="588" y="60" type="line"/>
      <point x="534" y="75"/>
      <point x="516" y="93"/>
    </contour>
    <contour>
      <point x="30" y="189" type="curve"/>
      <point x="179" y="220" type="line"/>
      <point x="179" y="311"/>
      <point x="223" y="376"/>
      <point x="285" y="376" type="curve" smooth="yes"/>
      <point x="345" y="376"/>
      <point x="405" y="338"/>
      <point x="430" y="285" type="curve"/>
      <point x="456" y="374" type="line"/>
      <point x="424" y="397"/>
      <point x="362" y="413"/>
      <point x="306" y="413" type="curve" smooth="yes"/>
      <point x="144" y="413"/>
      <point x="30" y="320"/>
    </contour>
    <contour>
      <point x="372" y="58" type="line"/>
      <point x="516" y="103" type="line"/>
      <point x="516" y="575" type="line"/>
      <point x="518" y="676" type="line"/>
      <point x="503" y="686" type="line"/>
      <point x="302" y="637" type="line"/>
      <point x="302" y="616" type="line"/>
      <point x="343" y="599"/>
      <point x="372" y="577"/>
      <point x="372" y="563" type="curve" smooth="yes"/>
    </contour>
  </outline>
</glyph>
<glyph name="e" format="2">
  <advance width="477"/>
  <unicode hex="0065"/>
  <anchor x="246" y="0" name="bottom"/>
  <anchor x="433" y="10" name="ogonek"/>
  <anchor x="246" y="399" name="top"/>
  <outline>
    <contour>
      <point x="177" y="210" type="curve" smooth="yes"/>
      <point x="177" y="310"/>
      <point x="206" y="380"/>
      <point x="247" y="380" type="curve" smooth="yes"/>
      <point x="280" y="380"/>
      <point x="306" y="333"/>
      <point x="309" y="266" type="curve"/>
      <point x="82" y="260" type="line"/>
      <point x="78" y="231" type="line"/>
      <point x="450" y="225" type="line"/>
      <point x="462" y="239" type="line"/>
      <point x="462" y="341"/>
      <point x="387" y="413"/>
      <point x="281" y="413" type="curve" smooth="yes"/>
      <point x="134" y="413"/>
      <point x="30" y="320"/>
      <point x="30" y="188" type="curve" smooth="yes"/>
      <point x="30" y="71"/>
      <point x="126" y="-11"/>
      <point x="262" y="-11" type="curve" smooth="yes"/>
      <point x="337" y="-11"/>
      <point x="419" y="40"/>
      <point x="460" y="113" type="curve"/>
      <point x="442" y="126" type="line"/>
      <point x="412" y="83"/>
      <point x="345" y="52"/>
      <point x="282" y="52" type="curve" smooth="yes"/>
      <point x="221" y="52"/>
      <point x="177" y="117"/>
    </contour>
  </outline>
</glyph>
<glyph name="f" format="2">
  <advance width="363"/>
  <unicode hex="0066"/>
  <anchor x="174" y="0" name="bottom"/>
  <anchor x="174" y="694" name="top"/>
  <outline>
    <contour>
      <point x="3" y="18" type="curve"/>
      <point x="3" y="0" type="line"/>
      <point x="327" y="0" type="line"/>
      <point x="327" y="18" type="line"/>
      <point x="262" y="31"/>
      <point x="226" y="31"/>
      <point x="224" y="69" type="curve" smooth="yes"/>
      <point x="219" y="157"/>
      <point x="224" y="314"/>
      <point x="224" y="449" type="curve" smooth="yes"/>
      <point x="224" y="484"/>
      <point x="219" y="531"/>
      <point x="209" y="558" type="curve" smooth="yes"/>
      <point x="192" y="603"/>
      <point x="192" y="624"/>
      <point x="219" y="624" type="curve" smooth="yes"/>
      <point x="284" y="624"/>
      <point x="293" y="581"/>
      <point x="295" y="570" type="curve" smooth="yes"/>
      <point x="297" y="559"/>
      <point x="304" y="545"/>
      <point x="317" y="533" type="curve" smooth="yes"/>
      <point x="350" y="503"/>
      <point x="459" y="598"/>
      <point x="418" y="638" type="curve" smooth="yes"/>
      <point x="392" y="664"/>
      <point x="339" y="683"/>
      <point x="290" y="683" type="curve" smooth="yes"/>
      <point x="228" y="683"/>
      <point x="157" y="644"/>
      <point x="120" y="590" type="curve" smooth="yes"/>
      <point x="97" y="557"/>
      <point x="79" y="473"/>
      <point x="76" y="387" type="curve" smooth="yes"/>
      <point x="75" y="355"/>
      <point x="75" y="223"/>
      <point x="76" y="69" type="curve" smooth="yes"/>
      <point x="76" y="30"/>
      <point x="42" y="32"/>
    </contour>
    <contour>
      <point x="3" y="349" type="line"/>
      <point x="363" y="334" type="line"/>
      <point x="363" y="407" type="line"/>
      <point x="82" y="402" type="line"/>
      <point x="3" y="359" type="line"/>
    </contour>
  </outline>
</glyph>
<glyph name="g" format="2">
  <advance width="516"/>
  <unicode hex="0067"/>
  <anchor x="259" y="-232" name="bottom"/>
  <anchor x="259" y="399" name="top"/>
  <outline>
    <contour>
      <point x="301" y="392" type="line"/>
      <point x="333" y="342" type="line"/>
      <point x="516" y="332" type="line"/>
      <point x="516" y="407" type="line"/>
    </contour>
    <contour>
      <point x="30" y="43" type="curve" smooth="yes"/>
      <point x="30" y="5"/>
      <point x="69" y="-22"/>
      <point x="123" y="-22" type="curve" smooth="yes"/>
      <point x="156" y="-22"/>
      <point x="243" y="-22"/>
      <point x="292" y="-22" type="curve" smooth="yes"/>
      <point x="348" y="-22"/>
      <point x="387" y="-40"/>
      <point x="387" y="-66" type="curve" smooth="yes"/>
      <point x="387" y="-135"/>
      <point x="331" y="-183"/>
      <point x="251" y="-183" type="curve" smooth="yes"/>
      <point x="192" y="-183"/>
      <point x="150" y="-143"/>
      <point x="150" y="-86" type="curve" smooth="yes"/>
      <point x="150" y="-38"/>
      <point x="170" y="1"/>
      <point x="198" y="9" type="curve"/>
      <point x="134" y="15" type="line"/>
      <point x="63" y="-15"/>
      <point x="12" y="-71"/>
      <point x="12" y="-119" type="curve" smooth="yes"/>
      <point x="12" y="-179"/>
      <point x="88" y="-221"/>
      <point x="195" y="-221" type="curve" smooth="yes"/>
      <point x="378" y="-221"/>
      <point x="507" y="-134"/>
      <point x="507" y="-11" type="curve" smooth="yes"/>
      <point x="507" y="32"/>
      <point x="462" y="62"/>
      <point x="398" y="62" type="curve" smooth="yes"/>
      <point x="234" y="62" type="line" smooth="yes"/>
      <point x="196" y="62"/>
      <point x="169" y="76"/>
      <point x="169" y="95" type="curve" smooth="yes"/>
      <point x="169" y="111"/>
      <point x="180" y="130"/>
      <point x="196" y="142" type="curve"/>
      <point x="136" y="151" type="line"/>
      <point x="74" y="120"/>
      <point x="30" y="75"/>
    </contour>
    <contour>
      <point x="189" y="276" type="curve" smooth="yes"/>
      <point x="189" y="340"/>
      <point x="214" y="386"/>
      <point x="249" y="386" type="curve" smooth="yes"/>
      <point x="286" y="386"/>
      <point x="313" y="325"/>
      <point x="313" y="239" type="curve" smooth="yes"/>
      <point x="313" y="184"/>
      <point x="292" y="145"/>
      <point x="262" y="145" type="curve" smooth="yes"/>
      <point x="219" y="145"/>
      <point x="189" y="199"/>
    </contour>
    <contour>
      <point x="39" y="253" type="curve" smooth="yes"/>
      <point x="39" y="175"/>
      <point x="128" y="120"/>
      <point x="254" y="120" type="curve" smooth="yes"/>
      <point x="375" y="120"/>
      <point x="461" y="178"/>
      <point x="461" y="261" type="curve" smooth="yes"/>
      <point x="461" y="349"/>
      <point x="377" y="411"/>
      <point x="258" y="411" type="curve" smooth="yes"/>
      <point x="130" y="411"/>
      <point x="39" y="346"/>
    </contour>
  </outline>
</glyph>
<glyph name="h" format="2">
  <advance width="570"/>
  <unicode hex="0068"/>
  <anchor x="285" y="0" name="bottom"/>
  <anchor x="137" y="555" name="center"/>
  <anchor x="285" y="694" name="top"/>
  <outline>
    <contour>
      <point x="6" y="18" type="curve"/>
      <point x="6" y="0" type="line"/>
      <point x="276" y="0" type="line"/>
      <point x="276" y="18" type="line"/>
      <point x="229" y="32"/>
      <point x="204" y="39"/>
      <point x="204" y="68" type="curve" smooth="yes"/>
      <point x="204" y="575" type="line"/>
      <point x="206" y="676" type="line"/>
      <point x="191" y="686" type="line"/>
      <point x="-12" y="637" type="line"/>
      <point x="-12" y="616" type="line"/>
      <point x="9" y="608"/>
      <point x="60" y="595"/>
      <point x="60" y="563" type="curve" smooth="yes"/>
      <point x="60" y="68" type="line" smooth="yes"/>
      <point x="60" y="39"/>
      <point x="36" y="32"/>
    </contour>
    <contour>
      <point x="312" y="0" type="line"/>
      <point x="582" y="0" type="line"/>
      <point x="582" y="18" type="line"/>
      <point x="540" y="30"/>
      <point x="510" y="51"/>
      <point x="510" y="68" type="curve" smooth="yes"/>
      <point x="510" y="273" type="line" smooth="yes"/>
      <point x="510" y="355"/>
      <point x="453" y="413"/>
      <point x="372" y="413" type="curve" smooth="yes"/>
      <point x="319" y="413"/>
      <point x="240" y="376"/>
      <point x="181" y="323" type="curve"/>
      <point x="181" y="304" type="line"/>
      <point x="206" y="322"/>
      <point x="252" y="335"/>
      <point x="291" y="335" type="curve" smooth="yes"/>
      <point x="332" y="335"/>
      <point x="363" y="298"/>
      <point x="366" y="246" type="curve" smooth="yes"/>
      <point x="369" y="201"/>
      <point x="369" y="128"/>
      <point x="366" y="68" type="curve" smooth="yes"/>
      <point x="364" y="45"/>
      <point x="342" y="24"/>
      <point x="312" y="18" type="curve"/>
    </contour>
  </outline>
</glyph>
<glyph name="k" format="2">
  <advance width="564"/>
  <unicode hex="006B"/>
  <anchor x="267" y="0" name="bottom"/>
  <anchor x="267" y="694" name="top"/>
  <outline>
    <contour>
      <point x="6" y="18" type="curve"/>
      <point x="6" y="0" type="line"/>
      <point x="258" y="0" type="line"/>
      <point x="258" y="18" type="line"/>
      <point x="223" y="32"/>
      <point x="204" y="39"/>
      <point x="204" y="68" type="curve" smooth="yes"/>
      <point x="204" y="575" type="line"/>
      <point x="206" y="676" type="line"/>
      <point x="191" y="683" type="line"/>
      <point x="-12" y="637" type="line"/>
      <point x="-12" y="616" type="line"/>
      <point x="9" y="608"/>
      <point x="60" y="595"/>
      <point x="60" y="563" type="curve" smooth="yes"/>
      <point x="60" y="68" type="line" smooth="yes"/>
      <point x="60" y="39"/>
      <point x="43" y="32"/>
    </contour>
    <contour>
      <point x="153" y="196" type="curve"/>
      <point x="165" y="145" type="line"/>
      <point x="242" y="195"/>
      <point x="354" y="274"/>
      <point x="416" y="344" type="curve" smooth="yes"/>
      <point x="432" y="363"/>
      <point x="463" y="374"/>
      <point x="510" y="379" type="curve"/>
      <point x="510" y="402" type="line"/>
      <point x="258" y="402" type="line"/>
      <point x="258" y="379" type="line"/>
      <point x="307" y="374"/>
      <point x="332" y="372"/>
      <point x="296" y="322" type="curve" smooth="yes"/>
      <point x="258" y="270"/>
      <point x="211" y="228"/>
    </contour>
    <contour>
      <point x="310" y="292" type="line"/>
      <point x="206" y="213" type="line"/>
      <point x="329" y="54" type="line" smooth="yes"/>
      <point x="340" y="40"/>
      <point x="333" y="23"/>
      <point x="294" y="20" type="curve"/>
      <point x="294" y="0" type="line"/>
      <point x="564" y="0" type="line"/>
      <point x="564" y="23" type="line"/>
      <point x="534" y="26"/>
      <point x="508" y="38"/>
      <point x="495" y="55" type="curve" smooth="yes"/>
    </contour>
  </outline>
</glyph>
<glyph name="l" format="2">
  <advance width="264"/>
  <unicode hex="006C"/>
  <anchor x="132" y="0" name="bottom"/>
  <anchor x="132" y="200" name="center"/>
  <anchor x="132" y="694" name="top"/>
  <anchor x="256" y="694" name="topright"/>
  <outline>
    <contour>
      <point x="-12" y="18" type="curve"/>
      <point x="-12" y="0" type="line"/>
      <point x="275" y="0" type="line"/>
      <point x="275" y="18" type="line"/>
      <point x="228" y="32"/>
      <point x="204" y="39"/>
      <point x="204" y="68" type="curve" smooth="yes"/>
      <point x="205" y="575" type="line"/>
      <point x="208" y="676" type="line"/>
      <point x="191" y="686" type="line"/>
      <point x="-12" y="637" type="line"/>
      <point x="-12" y="616" type="line"/>
      <point x="9" y="608"/>
      <point x="60" y="615"/>
      <point x="60" y="527" type="curve" smooth="yes"/>
      <point x="60" y="68" type="line" smooth="yes"/>
      <point x="60" y="39"/>
      <point x="36" y="32"/>
    </contour>
  </outline>
</glyph>
<glyph name="m" format="2">
  <advance width="855"/>
  <unicode hex="006D"/>
  <anchor x="426" y="0" name="bottom"/>
  <anchor x="426" y="399" name="top"/>
  <outline>
    <contour>
      <point x="309" y="0" type="line"/>
      <point x="561" y="0" type="line"/>
      <point x="561" y="18" type="line"/>
      <point x="529" y="30"/>
      <point x="507" y="51"/>
      <point x="507" y="68" type="curve" smooth="yes"/>
      <point x="507" y="291" type="line" smooth="yes"/>
      <point x="507" y="362"/>
      <point x="449" y="413"/>
      <point x="367" y="413" type="curve" smooth="yes"/>
      <point x="320" y="413"/>
      <point x="247" y="376"/>
      <point x="189" y="323" type="curve"/>
      <point x="189" y="304" type="line"/>
      <point x="214" y="322"/>
      <point x="254" y="335"/>
      <point x="285" y="335" type="curve" smooth="yes"/>
      <point x="328" y="335"/>
      <point x="360" y="298"/>
      <point x="363" y="246" type="curve" smooth="yes"/>
      <point x="366" y="194"/>
      <point x="366" y="120"/>
      <point x="363" y="68" type="curve" smooth="yes"/>
      <point x="361" y="46"/>
      <point x="339" y="25"/>
      <point x="309" y="18" type="curve"/>
    </contour>
    <contour>
      <point x="3" y="0" type="line"/>
      <point x="273" y="0" type="line"/>
      <point x="273" y="18" type="line"/>
      <point x="240" y="35"/>
      <point x="217" y="56"/>
      <point x="217" y="68" type="curve" smooth="yes"/>
      <point x="217" y="333" type="line"/>
      <point x="216" y="333" type="line"/>
      <point x="217" y="412" type="line"/>
      <point x="206" y="421" type="line"/>
      <point x="3" y="362" type="line"/>
      <point x="3" y="341" type="line"/>
      <point x="43" y="330"/>
      <point x="72" y="312"/>
      <point x="73" y="298" type="curve" smooth="yes"/>
      <point x="76" y="231"/>
      <point x="76" y="135"/>
      <point x="73" y="68" type="curve" smooth="yes"/>
      <point x="72" y="52"/>
      <point x="43" y="31"/>
      <point x="3" y="18" type="curve"/>
    </contour>
    <contour>
      <point x="597" y="0" type="line"/>
      <point x="867" y="0" type="line"/>
      <point x="867" y="18" type="line"/>
      <point x="825" y="31"/>
      <point x="795" y="52"/>
      <point x="795" y="68" type="curve" smooth="yes"/>
      <point x="795" y="291" type="line" smooth="yes"/>
      <point x="795" y="363"/>
      <point x="737" y="414"/>
      <point x="656" y="414" type="curve" smooth="yes"/>
      <point x="596" y="414"/>
      <point x="522" y="376"/>
      <point x="479" y="323" type="curve"/>
      <point x="479" y="304" type="line"/>
      <point x="504" y="322"/>
      <point x="543" y="335"/>
      <point x="574" y="335" type="curve" smooth="yes"/>
      <point x="616" y="335"/>
      <point x="647" y="298"/>
      <point x="650" y="246" type="curve" smooth="yes"/>
      <point x="654" y="194"/>
      <point x="654" y="120"/>
      <point x="650" y="68" type="curve" smooth="yes"/>
      <point x="648" y="44"/>
      <point x="626" y="23"/>
      <point x="597" y="18" type="curve"/>
    </contour>
  </outline>
</glyph>
<glyph name="n" format="2">
  <advance width="568"/>
  <unicode hex="006E"/>
  <anchor x="283" y="0" name="bottom"/>
  <anchor x="283" y="399" name="top"/>
  <outline>
    <contour>
      <point x="310" y="0" type="line"/>
      <point x="580" y="0" type="line"/>
      <point x="580" y="18" type="line"/>
      <point x="538" y="30"/>
      <point x="508" y="51"/>
      <point x="508" y="68" type="curve" smooth="yes"/>
      <point x="508" y="273" type="line" smooth="yes"/>
      <point x="508" y="355"/>
      <point x="451" y="413"/>
      <point x="370" y="413" type="curve" smooth="yes"/>
      <point x="317" y="413"/>
      <point x="238" y="376"/>
      <point x="179" y="323" type="curve"/>
      <point x="179" y="304" type="line"/>
      <point x="204" y="322"/>
      <point x="250" y="335"/>
      <point x="289" y="335" type="curve" smooth="yes"/>
      <point x="330" y="335"/>
      <point x="361" y="298"/>
      <point x="364" y="246" type="curve" smooth="yes"/>
      <point x="367" y="201"/>
      <point x="367" y="128"/>
      <point x="364" y="68" type="curve" smooth="yes"/>
      <point x="362" y="45"/>
      <point x="340" y="24"/>
      <point x="310" y="18" type="curve"/>
    </contour>
    <contour>
      <point x="4" y="0" type="line"/>
      <point x="274" y="0" type="line"/>
      <point x="274" y="18" type="line"/>
      <point x="240" y="32"/>
      <point x="220" y="38"/>
      <point x="220" y="68" type="curve" smooth="yes"/>
      <point x="220" y="333" type="line"/>
      <point x="222" y="333" type="line"/>
      <point x="223" y="415" type="line"/>
      <point x="208" y="421" type="line"/>
      <point x="4" y="362" type="line"/>
      <point x="4" y="341" type="line"/>
      <point x="32" y="333"/>
      <point x="72" y="319"/>
      <point x="75" y="298" type="curve" smooth="yes"/>
      <point x="77" y="284"/>
      <point x="73" y="129"/>
      <point x="75" y="68" type="curve" smooth="yes"/>
      <point x="76" y="36"/>
      <point x="52" y="32"/>
      <point x="4" y="18" type="curve"/>
    </contour>
  </outline>
</glyph>
<glyph name="o" format="2">
  <advance width="546"/>
  <unicode hex="006F"/>
  <anchor x="273" y="0" name="bottom"/>
  <anchor x="273" y="200" name="center"/>
  <anchor x="482" y="10" name="ogonek"/>
  <anchor x="273" y="399" name="top"/>
  <anchor x="514" y="399" name="topright"/>
  <outline>
    <contour>
      <point x="269" y="-11" type="curve" smooth="yes"/>
      <point x="414" y="-11"/>
      <point x="516" y="82"/>
      <point x="516" y="214" type="curve" smooth="yes"/>
      <point x="516" y="329"/>
      <point x="414" y="410"/>
      <point x="269" y="410" type="curve" smooth="yes"/>
      <point x="129" y="410"/>
      <point x="30" y="317"/>
      <point x="30" y="185" type="curve" smooth="yes"/>
      <point x="30" y="70"/>
      <point x="129" y="-11"/>
    </contour>
    <contour>
      <point x="184" y="226" type="curve" smooth="yes"/>
      <point x="184" y="313"/>
      <point x="216" y="374"/>
      <point x="261" y="374" type="curve" smooth="yes"/>
      <point x="320" y="374"/>
      <point x="362" y="291"/>
      <point x="362" y="174" type="curve" smooth="yes"/>
      <point x="362" y="87"/>
      <point x="327" y="25"/>
      <point x="277" y="25" type="curve" smooth="yes"/>
      <point x="223" y="25"/>
      <point x="184" y="108"/>
    </contour>
  </outline>
</glyph>
<glyph name="p" format="2">
  <advance width="576"/>
  <unicode hex="0070"/>
  <anchor x="276" y="0" name="bottom"/>
  <anchor x="276" y="399" name="top"/>
  <outline>
    <contour>
      <point x="395" y="174" type="curve"/>
      <point x="546" y="223" type="line"/>
      <point x="546" y="334"/>
      <point x="476" y="413"/>
      <point x="377" y="413" type="curve" smooth="yes"/>
      <point x="325" y="413"/>
      <point x="238" y="372"/>
      <point x="168" y="315" type="curve"/>
      <point x="168" y="296" type="line"/>
      <point x="206" y="319"/>
      <point x="251" y="335"/>
      <point x="278" y="335" type="curve" smooth="yes"/>
      <point x="347" y="335"/>
      <point x="395" y="268"/>
    </contour>
    <contour>
      <point x="6" y="-232" type="line"/>
      <point x="294" y="-232" type="line"/>
      <point x="294" y="-214" type="line"/>
      <point x="240" y="-204"/>
      <point x="204" y="-183"/>
      <point x="204" y="-146" type="curve" smooth="yes"/>
      <point x="204" y="334" type="line"/>
      <point x="203" y="334" type="line"/>
      <point x="204" y="413" type="line"/>
      <point x="191" y="421" type="line"/>
      <point x="-12" y="363" type="line"/>
      <point x="-12" y="342" type="line"/>
      <point x="35" y="327"/>
      <point x="60" y="310"/>
      <point x="60" y="299" type="curve" smooth="yes"/>
      <point x="60" y="-164" type="line" smooth="yes"/>
      <point x="60" y="-197"/>
      <point x="42" y="-204"/>
      <point x="6" y="-214" type="curve"/>
    </contour>
    <contour>
      <point x="546" y="223" type="curve"/>
      <point x="395" y="174" type="line"/>
      <point x="395" y="87"/>
      <point x="354" y="26"/>
      <point x="297" y="26" type="curve" smooth="yes"/>
      <point x="252" y="26"/>
      <point x="203" y="64"/>
      <point x="178" y="117" type="curve"/>
      <point x="152" y="28" type="line"/>
      <point x="184" y="5"/>
      <point x="235" y="-11"/>
      <point x="276" y="-11" type="curve" smooth="yes"/>
      <point x="434" y="-11"/>
      <point x="546" y="86"/>
    </contour>
  </outline>
</glyph>
<glyph name="q" format="2">
  <advance width="576"/>
  <unicode hex="0071"/>
  <anchor x="291" y="0" name="bottom"/>
  <anchor x="291" y="399" name="top"/>
  <outline>
    <contour>
      <point x="373" y="405" type="curve"/>
      <point x="371" y="-164" type="line"/>
      <point x="517" y="-164" type="line"/>
      <point x="516" y="-1"/>
      <point x="516" y="231"/>
      <point x="517" y="394" type="curve"/>
      <point x="497" y="385"/>
      <point x="437" y="389"/>
    </contour>
    <contour>
      <point x="30" y="171" type="curve"/>
      <point x="179" y="220" type="line"/>
      <point x="179" y="311"/>
      <point x="223" y="376"/>
      <point x="285" y="376" type="curve" smooth="yes"/>
      <point x="345" y="376"/>
      <point x="405" y="338"/>
      <point x="430" y="285" type="curve"/>
      <point x="456" y="374" type="line"/>
      <point x="424" y="397"/>
      <point x="362" y="413"/>
      <point x="306" y="413" type="curve" smooth="yes"/>
      <point x="144" y="413"/>
      <point x="30" y="313"/>
    </contour>
    <contour>
      <point x="179" y="220" type="curve"/>
      <point x="30" y="171" type="line"/>
      <point x="30" y="64"/>
      <point x="105" y="-11"/>
      <point x="211" y="-11" type="curve" smooth="yes"/>
      <point x="267" y="-11"/>
      <point x="347" y="22"/>
      <point x="404" y="69" type="curve"/>
      <point x="404" y="88" type="line"/>
      <point x="366" y="65"/>
      <point x="321" y="49"/>
      <point x="294" y="49" type="curve" smooth="yes"/>
      <point x="227" y="49"/>
      <point x="179" y="120"/>
    </contour>
    <contour>
      <point x="371" y="-164" type="line"/>
      <point x="371" y="-201"/>
      <point x="346" y="-202"/>
      <point x="282" y="-214" type="curve"/>
      <point x="282" y="-232" type="line"/>
      <point x="570" y="-232" type="line"/>
      <point x="570" y="-214" type="line"/>
      <point x="540" y="-202"/>
      <point x="517" y="-201"/>
      <point x="517" y="-164" type="curve"/>
    </contour>
  </outline>
</glyph>
<glyph name="r" format="2">
  <advance width="431"/>
  <unicode hex="0072"/>
  <anchor x="201" y="0" name="bottom"/>
  <anchor x="201" y="399" name="top"/>
  <outline>
    <contour>
      <point x="172" y="285" type="curve"/>
      <point x="174" y="246" type="line"/>
      <point x="218" y="303"/>
      <point x="234" y="315"/>
      <point x="266" y="315" type="curve" smooth="yes"/>
      <point x="306" y="315"/>
      <point x="301" y="292"/>
      <point x="323" y="272" type="curve" smooth="yes"/>
      <point x="356" y="241"/>
      <point x="463" y="339"/>
      <point x="422" y="379" type="curve" smooth="yes"/>
      <point x="410" y="391"/>
      <point x="388" y="411"/>
      <point x="345" y="411" type="curve" smooth="yes"/>
      <point x="306" y="411"/>
      <point x="245" y="381"/>
    </contour>
    <contour>
      <point x="3" y="0" type="line"/>
      <point x="309" y="0" type="line"/>
      <point x="309" y="18" type="line"/>
      <point x="247" y="32"/>
      <point x="218" y="56"/>
      <point x="218" y="86" type="curve" smooth="yes"/>
      <point x="218" y="313" type="line"/>
      <point x="219" y="313" type="line"/>
      <point x="222" y="412" type="line"/>
      <point x="207" y="421" type="line"/>
      <point x="3" y="362" type="line"/>
      <point x="3" y="341" type="line"/>
      <point x="32" y="333"/>
      <point x="71" y="319"/>
      <point x="72" y="298" type="curve" smooth="yes"/>
      <point x="76" y="223"/>
      <point x="76" y="143"/>
      <point x="74" y="68" type="curve" smooth="yes"/>
      <point x="73" y="37"/>
      <point x="47" y="32"/>
      <point x="3" y="18" type="curve"/>
    </contour>
  </outline>
</glyph>
<glyph name="s" format="2">
  <advance width="435"/>
  <unicode hex="0073"/>
  <anchor x="217" y="0" name="bottom"/>
  <anchor x="217" y="399" name="top"/>
  <outline>
    <contour>
      <point x="221" y="-9" type="curve" smooth="yes"/>
      <point x="329" y="-9"/>
      <point x="405" y="48"/>
      <point x="405" y="127" type="curve" smooth="yes"/>
      <point x="405" y="245"/>
      <point x="171" y="241"/>
      <point x="173" y="329" type="curve" smooth="yes"/>
      <point x="174" y="363"/>
      <point x="203" y="386"/>
      <point x="242" y="386" type="curve" smooth="yes"/>
      <point x="295" y="386"/>
      <point x="321" y="326"/>
      <point x="305" y="267" type="curve"/>
      <point x="375" y="267" type="line"/>
      <point x="374" y="321"/>
      <point x="393" y="384"/>
      <point x="396" y="394" type="curve"/>
      <point x="368" y="406"/>
      <point x="262" y="414"/>
      <point x="203" y="414" type="curve" smooth="yes"/>
      <point x="105" y="414"/>
      <point x="35" y="359"/>
      <point x="35" y="279" type="curve" smooth="yes"/>
      <point x="35" y="155"/>
      <point x="265" y="172"/>
      <point x="265" y="81" type="curve" smooth="yes"/>
      <point x="265" y="40"/>
      <point x="234" y="14"/>
      <point x="179" y="19" type="curve" smooth="yes"/>
      <point x="130" y="22"/>
      <point x="104" y="67"/>
      <point x="116" y="146" type="curve"/>
      <point x="45" y="146" type="line"/>
      <point x="49" y="113"/>
      <point x="50" y="65"/>
      <point x="30" y="12" type="curve"/>
      <point x="95" y="0"/>
      <point x="177" y="-9"/>
    </contour>
  </outline>
</glyph>
<glyph name="t" format="2">
  <advance width="348"/>
  <unicode hex="0074"/>
  <anchor x="168" y="0" name="bottom"/>
  <anchor x="168" y="200" name="center"/>
  <anchor x="168" y="528" name="top"/>
  <anchor x="310" y="694" name="topright"/>
  <outline>
    <contour>
      <point x="182" y="-11" type="curve" smooth="yes"/>
      <point x="227" y="-11"/>
      <point x="296" y="12"/>
      <point x="348" y="45" type="curve"/>
      <point x="338" y="66" type="line"/>
      <point x="319" y="58"/>
      <point x="290" y="52"/>
      <point x="270" y="52" type="curve" smooth="yes"/>
      <point x="236" y="52"/>
      <point x="211" y="70"/>
      <point x="209" y="96" type="curve" smooth="yes"/>
      <point x="207" y="122"/>
      <point x="206" y="167"/>
      <point x="206" y="204" type="curve" smooth="yes"/>
      <point x="206" y="334"/>
      <point x="214" y="487"/>
      <point x="219" y="522" type="curve"/>
      <point x="200" y="528" type="line"/>
      <point x="66" y="381" type="line"/>
      <point x="60" y="230"/>
      <point x="58" y="98"/>
      <point x="62" y="64" type="curve" smooth="yes"/>
      <point x="67" y="20"/>
      <point x="117" y="-11"/>
    </contour>
    <contour>
      <point x="-12" y="349" type="line"/>
      <point x="324" y="334" type="line"/>
      <point x="324" y="407" type="line"/>
      <point x="88" y="402" type="line"/>
      <point x="-12" y="377" type="line"/>
    </contour>
    <contour>
      <point x="-12" y="377" type="curve"/>
      <point x="102" y="361" type="line"/>
      <point x="200" y="528" type="line"/>
      <point x="176" y="494"/>
      <point x="88" y="410"/>
    </contour>
  </outline>
</glyph>
<glyph name="u" format="2">
  <advance width="566"/>
  <unicode hex="0075"/>
  <anchor x="285" y="0" name="bottom"/>
  <anchor x="508" y="10" name="ogonek"/>
  <anchor x="285" y="399" name="top"/>
  <anchor x="544" y="399" name="topright"/>
  <outline>
    <contour>
      <point x="208" y="412" type="curve"/>
      <point x="195" y="421" type="line"/>
      <point x="-12" y="369" type="line"/>
      <point x="-12" y="351" type="line"/>
      <point x="36" y="337"/>
      <point x="62" y="332"/>
      <point x="62" y="301" type="curve" smooth="yes"/>
      <point x="59" y="111" type="line" smooth="yes"/>
      <point x="58" y="40"/>
      <point x="119" y="-11"/>
      <point x="205" y="-11" type="curve" smooth="yes"/>
      <point x="261" y="-11"/>
      <point x="332" y="23"/>
      <point x="376" y="71" type="curve"/>
      <point x="376" y="90" type="line"/>
      <point x="353" y="66"/>
      <point x="312" y="49"/>
      <point x="276" y="49" type="curve" smooth="yes"/>
      <point x="235" y="49"/>
      <point x="205" y="96"/>
      <point x="203" y="163" type="curve" smooth="yes"/>
      <point x="201" y="219"/>
      <point x="205" y="283"/>
      <point x="206" y="339" type="curve" smooth="yes"/>
      <point x="206" y="363"/>
      <point x="208" y="388"/>
    </contour>
    <contour>
      <point x="495" y="412" type="line"/>
      <point x="482" y="421" type="line"/>
      <point x="276" y="369" type="line"/>
      <point x="276" y="351" type="line"/>
      <point x="322" y="337"/>
      <point x="345" y="331"/>
      <point x="347" y="301" type="curve" smooth="yes"/>
      <point x="350" y="236"/>
      <point x="349" y="134"/>
      <point x="344" y="55" type="curve"/>
      <point x="347" y="55" type="line"/>
      <point x="346" y="-5" type="line"/>
      <point x="359" y="-11" type="line"/>
      <point x="564" y="35" type="line"/>
      <point x="564" y="56" type="line"/>
      <point x="531" y="59"/>
      <point x="490" y="73"/>
      <point x="490" y="94" type="curve" smooth="yes"/>
      <point x="493" y="339" type="line"/>
    </contour>
  </outline>
</glyph>
<glyph name="v" format="2">
  <advance width="486"/>
  <unicode hex="0076"/>
  <anchor x="243" y="0" name="bottom"/>
  <anchor x="243" y="399" name="top"/>
  <outline>
    <contour>
      <point x="50" y="326" type="curve" smooth="yes"/>
      <point x="194" y="0" type="line"/>
      <point x="294" y="0" type="line"/>
      <point x="420" y="320" type="line" smooth="yes"/>
      <point x="428" y="340"/>
      <point x="438" y="353"/>
      <point x="449" y="363" type="curve" smooth="yes"/>
      <point x="459" y="371"/>
      <point x="471" y="376"/>
      <point x="486" y="379" type="curve"/>
      <point x="486" y="402" type="line"/>
      <point x="306" y="402" type="line"/>
      <point x="306" y="379" type="line"/>
      <point x="317" y="377"/>
      <point x="336" y="376"/>
      <point x="347" y="369" type="curve" smooth="yes"/>
      <point x="353" y="366"/>
      <point x="357" y="361"/>
      <point x="357" y="354" type="curve" smooth="yes"/>
      <point x="357" y="348"/>
      <point x="353" y="337"/>
      <point x="348" y="322" type="curve" smooth="yes"/>
      <point x="259" y="72" type="line"/>
      <point x="315" y="72" type="line"/>
      <point x="200" y="336" type="line" smooth="yes"/>
      <point x="196" y="345"/>
      <point x="195" y="351"/>
      <point x="195" y="355" type="curve" smooth="yes"/>
      <point x="195" y="362"/>
      <point x="199" y="367"/>
      <point x="206" y="371" type="curve" smooth="yes"/>
      <point x="219" y="377"/>
      <point x="241" y="378"/>
      <point x="252" y="379" type="curve"/>
      <point x="252" y="402" type="line"/>
      <point x="0" y="402" type="line"/>
      <point x="0" y="379" type="line"/>
      <point x="7" y="377"/>
      <point x="18" y="374"/>
      <point x="27" y="366" type="curve" smooth="yes"/>
      <point x="35" y="358"/>
      <point x="41" y="346"/>
    </contour>
  </outline>
</glyph>
<glyph name="w" format="2">
  <advance width="738"/>
  <unicode hex="0077"/>
  <anchor x="369" y="0" name="bottom"/>
  <anchor x="369" y="399" name="top"/>
  <outline>
    <contour>
      <point x="320" y="326" type="curve" smooth="yes"/>
      <point x="446" y="0" type="line"/>
      <point x="546" y="0" type="line"/>
      <point x="664" y="320" type="line" smooth="yes"/>
      <point x="671" y="340"/>
      <point x="682" y="353"/>
      <point x="693" y="363" type="curve" smooth="yes"/>
      <point x="703" y="371"/>
      <point x="716" y="376"/>
      <point x="738" y="379" type="curve"/>
      <point x="738" y="402" type="line"/>
      <point x="558" y="402" type="line"/>
      <point x="558" y="375" type="line"/>
      <point x="569" y="373"/>
      <point x="588" y="372"/>
      <point x="599" y="365" type="curve" smooth="yes"/>
      <point x="605" y="362"/>
      <point x="609" y="357"/>
      <point x="609" y="350" type="curve" smooth="yes"/>
      <point x="609" y="344"/>
      <point x="605" y="333"/>
      <point x="600" y="318" type="curve" smooth="yes"/>
      <point x="511" y="72" type="line"/>
      <point x="567" y="72" type="line"/>
      <point x="470" y="336" type="line" smooth="yes"/>
      <point x="467" y="345"/>
      <point x="465" y="351"/>
      <point x="465" y="355" type="curve" smooth="yes"/>
      <point x="465" y="362"/>
      <point x="469" y="367"/>
      <point x="476" y="371" type="curve" smooth="yes"/>
      <point x="489" y="377"/>
      <point x="511" y="378"/>
      <point x="522" y="379" type="curve"/>
      <point x="522" y="402" type="line"/>
      <point x="270" y="402" type="line"/>
      <point x="270" y="379" type="line"/>
      <point x="277" y="377"/>
      <point x="288" y="374"/>
      <point x="297" y="366" type="curve" smooth="yes"/>
      <point x="305" y="358"/>
      <point x="312" y="346"/>
    </contour>
    <contour>
      <point x="403" y="231" type="line"/>
      <point x="362" y="290" type="line"/>
      <point x="259" y="72" type="line"/>
      <point x="315" y="72" type="line"/>
      <point x="200" y="336" type="line" smooth="yes"/>
      <point x="196" y="345"/>
      <point x="195" y="351"/>
      <point x="195" y="355" type="curve" smooth="yes"/>
      <point x="195" y="362"/>
      <point x="199" y="367"/>
      <point x="206" y="371" type="curve" smooth="yes"/>
      <point x="219" y="377"/>
      <point x="227" y="378"/>
      <point x="234" y="379" type="curve"/>
      <point x="234" y="402" type="line"/>
      <point x="0" y="402" type="line"/>
      <point x="0" y="379" type="line"/>
      <point x="7" y="377"/>
      <point x="18" y="374"/>
      <point x="27" y="366" type="curve" smooth="yes"/>
      <point x="35" y="358"/>
      <point x="41" y="346"/>
      <point x="50" y="326" type="curve" smooth="yes"/>
      <point x="194" y="0" type="line"/>
      <point x="294" y="0" type="line"/>
    </contour>
  </outline>
</glyph>
<glyph name="x" format="2">
  <advance width="468"/>
  <unicode hex="0078"/>
  <anchor x="234" y="0" name="bottom"/>
  <anchor x="234" y="399" name="top"/>
  <outline>
    <contour>
      <point x="58" y="346" type="curve" smooth="yes"/>
      <point x="191" y="153" type="line"/>
      <point x="254" y="182" type="line"/>
      <point x="388" y="340" type="line" smooth="yes"/>
      <point x="403" y="358"/>
      <point x="426" y="374"/>
      <point x="468" y="379" type="curve"/>
      <point x="468" y="402" type="line"/>
      <point x="286" y="402" type="line"/>
      <point x="286" y="383" type="line"/>
      <point x="319" y="378"/>
      <point x="329" y="363"/>
      <point x="313" y="342" type="curve" smooth="yes"/>
      <point x="225" y="229" type="line"/>
      <point x="275" y="251" type="line"/>
      <point x="201" y="356" type="line" smooth="yes"/>
      <point x="187" y="376"/>
      <point x="222" y="382"/>
      <point x="233" y="383" type="curve"/>
      <point x="233" y="402" type="line"/>
      <point x="0" y="402" type="line"/>
      <point x="0" y="379" type="line"/>
      <point x="27" y="376"/>
      <point x="45" y="365"/>
    </contour>
    <contour>
      <point x="404" y="56" type="curve" smooth="yes"/>
      <point x="273" y="253" type="line"/>
      <point x="219" y="248" type="line"/>
      <point x="73" y="62" type="line" smooth="yes"/>
      <point x="54" y="37"/>
      <point x="36" y="30"/>
      <point x="0" y="23" type="curve"/>
      <point x="0" y="0" type="line"/>
      <point x="182" y="0" type="line"/>
      <point x="182" y="19" type="line"/>
      <point x="157" y="24"/>
      <point x="121" y="29"/>
      <point x="136" y="50" type="curve" smooth="yes"/>
      <point x="252" y="205" type="line"/>
      <point x="194" y="148" type="line"/>
      <point x="264" y="46" type="line" smooth="yes"/>
      <point x="275" y="30"/>
      <point x="251" y="21"/>
      <point x="234" y="19" type="curve"/>
      <point x="234" y="0" type="line"/>
      <point x="468" y="0" type="line"/>
      <point x="468" y="23" type="line"/>
      <point x="432" y="26"/>
      <point x="418" y="36"/>
    </contour>
  </outline>
</glyph>
<glyph name="y" format="2">
  <advance width="486"/>
  <unicode hex="0079"/>
  <anchor x="252" y="0" name="bottom"/>
  <anchor x="252" y="399" name="top"/>
  <outline>
    <contour>
      <point x="228" y="-108" type="line"/>
      <point x="302" y="0" type="line"/>
      <point x="420" y="320" type="line" smooth="yes"/>
      <point x="427" y="340"/>
      <point x="438" y="353"/>
      <point x="449" y="363" type="curve" smooth="yes"/>
      <point x="459" y="371"/>
      <point x="471" y="376"/>
      <point x="486" y="379" type="curve"/>
      <point x="486" y="402" type="line"/>
      <point x="324" y="402" type="line"/>
      <point x="324" y="379" type="line"/>
      <point x="337" y="377"/>
      <point x="352" y="376"/>
      <point x="363" y="369" type="curve" smooth="yes"/>
      <point x="369" y="366"/>
      <point x="373" y="361"/>
      <point x="373" y="354" type="curve" smooth="yes"/>
      <point x="373" y="348"/>
      <point x="369" y="337"/>
      <point x="364" y="322" type="curve" smooth="yes"/>
      <point x="257" y="27" type="line"/>
      <point x="304" y="55" type="line"/>
      <point x="204" y="336" type="line" smooth="yes"/>
      <point x="201" y="345"/>
      <point x="199" y="351"/>
      <point x="199" y="355" type="curve" smooth="yes"/>
      <point x="199" y="362"/>
      <point x="203" y="367"/>
      <point x="210" y="371" type="curve" smooth="yes"/>
      <point x="223" y="377"/>
      <point x="242" y="378"/>
      <point x="256" y="379" type="curve"/>
      <point x="256" y="402" type="line"/>
      <point x="0" y="402" type="line"/>
      <point x="0" y="379" type="line"/>
      <point x="33" y="377"/>
      <point x="36" y="374"/>
      <point x="45" y="366" type="curve" smooth="yes"/>
      <point x="53" y="358"/>
      <point x="61" y="346"/>
      <point x="68" y="326" type="curve" smooth="yes"/>
    </contour>
    <contour>
      <point x="96" y="-232" type="curve" smooth="yes"/>
      <point x="168" y="-232"/>
      <point x="236" y="-139"/>
      <point x="268" y="-75" type="curve" smooth="yes"/>
      <point x="297" y="-17"/>
      <point x="282" y="-46"/>
      <point x="302" y="0" type="curve"/>
      <point x="248" y="25" type="line"/>
      <point x="199" y="-116" type="line"/>
      <point x="183" y="-142"/>
      <point x="175" y="-161"/>
      <point x="147" y="-161" type="curve" smooth="yes"/>
      <point x="128" y="-161"/>
      <point x="90" y="-141"/>
      <point x="68" y="-141" type="curve" smooth="yes"/>
      <point x="44" y="-141"/>
      <point x="18" y="-170"/>
      <point x="18" y="-202" type="curve" smooth="yes"/>
      <point x="18" y="-226"/>
      <point x="72" y="-232"/>
    </contour>
  </outline>
</glyph>
<glyph name="z" format="2">
  <advance width="476"/>
  <unicode hex="007A"/>
  <anchor x="237" y="0" name="bottom"/>
  <anchor x="237" y="200" name="center"/>
  <anchor x="237" y="399" name="top"/>
  <outline>
    <contour>
      <point x="35" y="-5" type="line"/>
      <point x="146" y="1"/>
      <point x="335" y="0"/>
      <point x="446" y="0" type="curve"/>
      <point x="442" y="157" type="line"/>
      <point x="406" y="157" type="line"/>
      <point x="398" y="71"/>
      <point x="375" y="35"/>
      <point x="350" y="35" type="curve" smooth="yes"/>
      <point x="79" y="35" type="line"/>
      <point x="205" y="16" type="line"/>
      <point x="438" y="372" type="line"/>
      <point x="438" y="409" type="line"/>
      <point x="347" y="404"/>
      <point x="331" y="401"/>
      <point x="149" y="401" type="curve" smooth="yes"/>
      <point x="137" y="401"/>
      <point x="124" y="405"/>
      <point x="128" y="438" type="curve"/>
      <point x="80" y="447" type="line"/>
      <point x="30" y="281" type="line"/>
      <point x="82" y="264" type="line"/>
      <point x="97" y="324"/>
      <point x="132" y="366"/>
      <point x="166" y="366" type="curve" smooth="yes"/>
      <point x="388" y="367" type="line"/>
      <point x="279" y="384" type="line"/>
      <point x="35" y="13" type="line"/>
    </contour>
  </outline>
</glyph>
<glyph name="braceleft" format="2">
  <advance width="345"/>
  <unicode hex="007B"/>
  <outline>
    <contour>
      <point x="315" y="-144" type="curve"/>
      <point x="315" y="-108" type="line"/>
      <point x="259" y="-108"/>
      <point x="219" y="-70"/>
      <point x="219" y="-16" type="curve" smooth="yes"/>
      <point x="219" y="157" type="line" smooth="yes"/>
      <point x="219" y="201"/>
      <point x="184" y="252"/>
      <point x="135" y="279" type="curve"/>
      <point x="184" y="306"/>
      <point x="219" y="357"/>
      <point x="219" y="401" type="curve" smooth="yes"/>
      <point x="219" y="574" type="line" smooth="yes"/>
      <point x="219" y="628"/>
      <point x="259" y="666"/>
      <point x="315" y="666" type="curve"/>
      <point x="315" y="702" type="line"/>
      <point x="224" y="702"/>
      <point x="160" y="649"/>
      <point x="160" y="574" type="curve" smooth="yes"/>
      <point x="160" y="385" type="line" smooth="yes"/>
      <point x="160" y="329"/>
      <point x="119" y="289"/>
      <point x="45" y="289" type="curve"/>
      <point x="45" y="269" type="line"/>
      <point x="119" y="269"/>
      <point x="160" y="229"/>
      <point x="160" y="173" type="curve" smooth="yes"/>
      <point x="160" y="-16" type="line" smooth="yes"/>
      <point x="160" y="-91"/>
      <point x="224" y="-144"/>
    </contour>
  </outline>
</glyph>
<glyph name="bar" format="2">
  <advance width="186"/>
  <unicode hex="007C"/>
  <outline>
    <contour>
      <point x="75" y="-232" type="line"/>
      <point x="111" y="-232" type="line"/>
      <point x="111" y="693" type="line"/>
      <point x="75" y="694" type="line"/>
    </contour>
  </outline>
</glyph>
<glyph name="braceright" format="2">
  <advance width="345"/>
  <unicode hex="007D"/>
  <outline>
    <contour>
      <point x="30" y="-144" type="line"/>
      <point x="121" y="-144"/>
      <point x="185" y="-91"/>
      <point x="185" y="-16" type="curve" smooth="yes"/>
      <point x="185" y="173" type="line" smooth="yes"/>
      <point x="185" y="229"/>
      <point x="226" y="269"/>
      <point x="300" y="269" type="curve"/>
      <point x="300" y="289" type="line"/>
      <point x="226" y="289"/>
      <point x="185" y="329"/>
      <point x="185" y="385" type="curve" smooth="yes"/>
      <point x="185" y="574" type="line" smooth="yes"/>
      <point x="185" y="649"/>
      <point x="121" y="702"/>
      <point x="30" y="702" type="curve"/>
      <point x="30" y="666" type="line"/>
      <point x="86" y="666"/>
      <point x="126" y="628"/>
      <point x="126" y="574" type="curve" smooth="yes"/>
      <point x="126" y="401" type="line" smooth="yes"/>
      <point x="126" y="357"/>
      <point x="161" y="306"/>
      <point x="210" y="279" type="curve"/>
      <point x="161" y="252"/>
      <point x="126" y="201"/>
      <point x="126" y="157" type="curve" smooth="yes"/>
      <point x="126" y="-16" type="line" smooth="yes"/>
      <point x="126" y="-70"/>
      <point x="86" y="-108"/>
      <point x="30" y="-108" type="curve"/>
    </contour>
  </outline>
</glyph>
<glyph name="asciitilde" format="2">
  <advance width="570"/>
  <unicode hex="007E"/>
  <outline>
    <contour>
      <point x="376" y="212" type="curve" smooth="yes"/>
      <point x="438" y="212"/>
      <point x="495" y="265"/>
      <point x="510" y="341" type="curve"/>
      <point x="462" y="347" type="line"/>
      <point x="450" y="296"/>
      <point x="415" y="258"/>
      <point x="382" y="258" type="curve" smooth="yes"/>
      <point x="309" y="258"/>
      <point x="283" y="368"/>
      <point x="194" y="368" type="curve" smooth="yes"/>
      <point x="132" y="368"/>
      <point x="75" y="315"/>
      <point x="60" y="239" type="curve"/>
      <point x="108" y="233" type="line"/>
      <point x="120" y="284"/>
      <point x="155" y="322"/>
      <point x="188" y="322" type="curve" smooth="yes"/>
      <point x="261" y="322"/>
      <point x="287" y="212"/>
    </contour>
  </outline>
</glyph>
<glyph name="exclamdown" format="2">
  <advance width="198"/>
  <unicode hex="00A1"/>
  <outline>
    <contour>
      <point x="98" y="468" type="curve" smooth="yes"/>
      <point x="75" y="468"/>
      <point x="60" y="449"/>
      <point x="56" y="426" type="curve" smooth="yes"/>
      <point x="52" y="403"/>
      <point x="71" y="384"/>
      <point x="98" y="384" type="curve" smooth="yes"/>
      <point x="121" y="384"/>
      <point x="140" y="403"/>
      <point x="140" y="426" type="curve" smooth="yes"/>
      <point x="140" y="449"/>
      <point x="121" y="468"/>
    </contour>
    <contour>
      <point x="128" y="284" type="curve"/>
      <point x="68" y="276" type="line"/>
      <point x="70" y="142"/>
      <point x="61" y="-14"/>
      <point x="45" y="-170" type="curve"/>
      <point x="153" y="-158" type="line"/>
      <point x="136" y="-6"/>
      <point x="131" y="154"/>
    </contour>
  </outline>
</glyph>
<glyph name="cent" format="2">
  <advance width="603"/>
  <unicode hex="00A2"/>
  <anchor x="309" y="75" name="bottom"/>
  <anchor x="309" y="590" name="top"/>
  <outline>
    <contour>
      <point x="341" y="62" type="curve" smooth="yes"/>
      <point x="412" y="62"/>
      <point x="490" y="78"/>
      <point x="531" y="104" type="curve"/>
      <point x="546" y="168"/>
      <point x="557" y="228"/>
      <point x="558" y="242" type="curve"/>
      <point x="511" y="241" type="line"/>
      <point x="496" y="164"/>
      <point x="431" y="106"/>
      <point x="353" y="106" type="curve" smooth="yes"/>
      <point x="256" y="106"/>
      <point x="187" y="205"/>
      <point x="187" y="347" type="curve" smooth="yes"/>
      <point x="187" y="465"/>
      <point x="254" y="548"/>
      <point x="349" y="548" type="curve" smooth="yes"/>
      <point x="426" y="548"/>
      <point x="480" y="498"/>
      <point x="481" y="402" type="curve"/>
      <point x="525" y="402" type="line"/>
      <point x="527" y="486"/>
      <point x="538" y="537"/>
      <point x="552" y="560" type="curve"/>
      <point x="502" y="577"/>
      <point x="414" y="588"/>
      <point x="341" y="588" type="curve" smooth="yes"/>
      <point x="177" y="588"/>
      <point x="60" y="480"/>
      <point x="60" y="328" type="curve" smooth="yes"/>
      <point x="60" y="173"/>
      <point x="176" y="62"/>
    </contour>
    <contour>
      <point x="308" y="-134" type="line"/>
      <point x="373" y="-134" type="line"/>
      <point x="373" y="766" type="line"/>
      <point x="308" y="766" type="line"/>
    </contour>
  </outline>
</glyph>
<glyph name="sterling" format="2">
  <advance width="491"/>
  <unicode hex="00A3"/>
  <outline>
    <contour>
      <point x="26" y="-4" type="line"/>
      <point x="158" y="4"/>
      <point x="369" y="4"/>
      <point x="440" y="-4" type="curve"/>
      <point x="469" y="135" type="line"/>
      <point x="459" y="144" type="line"/>
      <point x="401" y="98"/>
      <point x="224" y="81"/>
      <point x="126" y="78" type="curve"/>
      <point x="393" y="297"/>
      <point x="118" y="454"/>
      <point x="166" y="536" type="curve" smooth="yes"/>
      <point x="232" y="649"/>
      <point x="323" y="535"/>
      <point x="356" y="477" type="curve"/>
      <point x="476" y="555" type="line"/>
      <point x="434" y="621"/>
      <point x="376" y="646"/>
      <point x="307" y="646" type="curve" smooth="yes"/>
      <point x="227" y="646"/>
      <point x="145" y="605"/>
      <point x="101" y="527" type="curve" smooth="yes"/>
      <point x="29" y="401"/>
      <point x="243" y="303"/>
      <point x="15" y="26" type="curve"/>
    </contour>
    <contour>
      <point x="19" y="275" type="line"/>
      <point x="364" y="275" type="line"/>
      <point x="364" y="322" type="line"/>
      <point x="19" y="322" type="line"/>
    </contour>
  </outline>
</glyph>
<glyph name="currency" format="2">
  <advance width="474"/>
  <unicode hex="00A4"/>
  <outline>
    <contour>
      <point x="65" y="97" type="line"/>
      <point x="128" y="159" type="line"/>
      <point x="191" y="110"/>
      <point x="282" y="110"/>
      <point x="347" y="160" type="curve"/>
      <point x="409" y="98" type="line"/>
      <point x="444" y="133" type="line"/>
      <point x="382" y="195" type="line"/>
      <point x="434" y="262"/>
      <point x="434" y="357"/>
      <point x="382" y="426" type="curve"/>
      <point x="444" y="488" type="line"/>
      <point x="409" y="523" type="line"/>
      <point x="347" y="461" type="line"/>
      <point x="282" y="511"/>
      <point x="191" y="511"/>
      <point x="126" y="461" type="curve"/>
      <point x="65" y="522" type="line"/>
      <point x="30" y="487" type="line"/>
      <point x="92" y="426" type="line"/>
      <point x="39" y="358"/>
      <point x="39" y="261"/>
      <point x="92" y="194" type="curve"/>
      <point x="30" y="132" type="line"/>
    </contour>
    <contour>
      <point x="143" y="211" type="curve" smooth="yes"/>
      <point x="86" y="269"/>
      <point x="87" y="351"/>
      <point x="144" y="409" type="curve" smooth="yes"/>
      <point x="199" y="464"/>
      <point x="276" y="464"/>
      <point x="330" y="409" type="curve" smooth="yes"/>
      <point x="388" y="351"/>
      <point x="388" y="269"/>
      <point x="330" y="211" type="curve" smooth="yes"/>
      <point x="275" y="156"/>
      <point x="198" y="156"/>
    </contour>
  </outline>
</glyph>
<glyph name="brokenbar" format="2">
  <advance width="204"/>
  <unicode hex="00A6"/>
  <outline>
    <contour>
      <point x="75" y="310" type="line"/>
      <point x="129" y="310" type="line"/>
      <point x="129" y="693" type="line"/>
      <point x="75" y="693" type="line"/>
    </contour>
    <contour>
      <point x="75" y="-165" type="line"/>
      <point x="129" y="-165" type="line"/>
      <point x="129" y="218" type="line"/>
      <point x="75" y="218" type="line"/>
    </contour>
  </outline>
</glyph>
<glyph name="section" format="2">
  <advance width="559"/>
  <unicode hex="00A7"/>
  <outline>
    <contour>
      <point x="253" y="89" type="line"/>
      <point x="406" y="89"/>
      <point x="514" y="169"/>
      <point x="514" y="282" type="curve" smooth="yes"/>
      <point x="514" y="451"/>
      <point x="214" y="447"/>
      <point x="216" y="573" type="curve" smooth="yes"/>
      <point x="217" y="620"/>
      <point x="251" y="654"/>
      <point x="299" y="654" type="curve" smooth="yes"/>
      <point x="345" y="654"/>
      <point x="373" y="597"/>
      <point x="366" y="517" type="curve"/>
      <point x="443" y="517" type="line"/>
      <point x="442" y="554"/>
      <point x="444" y="636"/>
      <point x="447" y="664" type="curve"/>
      <point x="405" y="681"/>
      <point x="324" y="693"/>
      <point x="296" y="693" type="curve" smooth="yes"/>
      <point x="190" y="693"/>
      <point x="95" y="625"/>
      <point x="95" y="528" type="curve" smooth="yes"/>
      <point x="95" y="369"/>
      <point x="390" y="393"/>
      <point x="390" y="244" type="curve" smooth="yes"/>
      <point x="390" y="175"/>
      <point x="330" y="122"/>
      <point x="243" y="129" type="curve"/>
    </contour>
    <contour>
      <point x="305" y="422" type="line"/>
      <point x="153" y="422"/>
      <point x="45" y="342"/>
      <point x="45" y="228" type="curve" smooth="yes"/>
      <point x="45" y="77"/>
      <point x="345" y="63"/>
      <point x="342" y="-63" type="curve" smooth="yes"/>
      <point x="341" y="-111"/>
      <point x="307" y="-145"/>
      <point x="259" y="-145" type="curve" smooth="yes"/>
      <point x="199" y="-145"/>
      <point x="163" y="-88"/>
      <point x="171" y="-8" type="curve"/>
      <point x="98" y="-8" type="line"/>
      <point x="99" y="-67"/>
      <point x="98" y="-149"/>
      <point x="95" y="-155" type="curve"/>
      <point x="137" y="-172"/>
      <point x="233" y="-184"/>
      <point x="260" y="-184" type="curve" smooth="yes"/>
      <point x="367" y="-184"/>
      <point x="464" y="-116"/>
      <point x="464" y="-19" type="curve" smooth="yes"/>
      <point x="464" y="140"/>
      <point x="171" y="134"/>
      <point x="171" y="266" type="curve" smooth="yes"/>
      <point x="171" y="353"/>
      <point x="232" y="387"/>
      <point x="316" y="380" type="curve"/>
    </contour>
  </outline>
</glyph>
<glyph name="logicalnot" format="2">
  <advance width="576"/>
  <unicode hex="00AC"/>
  <outline>
    <contour>
      <point x="481" y="39" type="line"/>
      <point x="531" y="39" type="line"/>
      <point x="531" y="310" type="line"/>
      <point x="45" y="310" type="line"/>
      <point x="45" y="260" type="line"/>
      <point x="481" y="260" type="line"/>
    </contour>
  </outline>
</glyph>
<glyph name="registered" format="2">
  <advance width="581"/>
  <unicode hex="00AE"/>
  <anchor x="303.3877" y="360.0" name="bottom"/>
  <anchor x="303.3877" y="640.6718" name="top"/>
  <outline>
    <contour>
      <point x="291" y="228" type="curve" smooth="yes"/>
      <point x="434" y="228"/>
      <point x="551" y="345"/>
      <point x="551" y="489" type="curve" smooth="yes"/>
      <point x="551" y="632"/>
      <point x="434" y="749"/>
      <point x="291" y="749" type="curve" smooth="yes"/>
      <point x="147" y="749"/>
      <point x="30" y="632"/>
      <point x="30" y="489" type="curve" smooth="yes"/>
      <point x="30" y="345"/>
      <point x="147" y="228"/>
    </contour>
    <contour>
      <point x="291" y="264" type="curve" smooth="yes"/>
      <point x="167" y="264"/>
      <point x="65" y="365"/>
      <point x="65" y="489" type="curve" smooth="yes"/>
      <point x="65" y="612"/>
      <point x="167" y="714"/>
      <point x="291" y="714" type="curve" smooth="yes"/>
      <point x="414" y="714"/>
      <point x="515" y="612"/>
      <point x="515" y="489" type="curve" smooth="yes"/>
      <point x="515" y="365"/>
      <point x="414" y="264"/>
    </contour>
    <component base="R" xScale="0.4427" yScale="0.4427" xOffset="148" yOffset="360"/>
  </outline>
</glyph>
<glyph name="degree" format="2">
  <advance width="330"/>
  <unicode hex="00B0"/>
  <outline>
    <contour>
      <point x="165" y="421" type="curve" smooth="yes"/>
      <point x="245" y="421"/>
      <point x="300" y="478"/>
      <point x="300" y="558" type="curve" smooth="yes"/>
      <point x="300" y="638"/>
      <point x="245" y="694"/>
      <point x="165" y="694" type="curve" smooth="yes"/>
      <point x="85" y="694"/>
      <point x="30" y="638"/>
      <point x="30" y="558" type="curve" smooth="yes"/>
      <point x="30" y="478"/>
      <point x="85" y="421"/>
    </contour>
    <contour>
      <point x="165" y="461" type="curve" smooth="yes"/>
      <point x="109" y="461"/>
      <point x="70" y="501"/>
      <point x="70" y="558" type="curve" smooth="yes"/>
      <point x="70" y="614"/>
      <point x="109" y="654"/>
      <point x="165" y="654" type="curve" smooth="yes"/>
      <point x="221" y="654"/>
      <point x="260" y="614"/>
      <point x="260" y="558" type="curve" smooth="yes"/>
      <point x="260" y="501"/>
      <point x="221" y="461"/>
    </contour>
  </outline>
</glyph>
<glyph name="plusminus" format="2">
  <advance width="576"/>
  <unicode hex="00B1"/>
  <outline>
    <contour>
      <point x="262" y="172" type="line"/>
      <point x="312" y="172" type="line"/>
      <point x="312" y="327" type="line"/>
      <point x="531" y="327" type="line"/>
      <point x="531" y="377" type="line"/>
      <point x="312" y="377" type="line"/>
      <point x="312" y="528" type="line"/>
      <point x="262" y="528" type="line"/>
      <point x="262" y="377" type="line"/>
      <point x="45" y="377" type="line"/>
      <point x="45" y="327" type="line"/>
      <point x="262" y="327" type="line"/>
    </contour>
    <contour>
      <point x="50" y="41" type="line"/>
      <point x="526" y="41" type="line"/>
      <point x="526" y="91" type="line"/>
      <point x="50" y="91" type="line"/>
    </contour>
  </outline>
</glyph>
<glyph name="paragraph" format="2">
  <advance width="507"/>
  <unicode hex="00B6"/>
  <outline>
    <contour>
      <point x="197" y="-232" type="curve" smooth="yes"/>
      <point x="219" y="-232"/>
      <point x="255" y="-213"/>
      <point x="283" y="-187" type="curve" smooth="yes"/>
      <point x="346" y="-127"/>
      <point x="389" y="15"/>
      <point x="387" y="148" type="curve" smooth="yes"/>
      <point x="385" y="310" type="line"/>
      <point x="387" y="519" type="line" smooth="yes"/>
      <point x="387" y="547"/>
      <point x="398" y="569"/>
      <point x="414" y="577" type="curve" smooth="yes"/>
      <point x="421" y="581"/>
      <point x="439" y="585"/>
      <point x="477" y="590" type="curve"/>
      <point x="477" y="616" type="line"/>
      <point x="438" y="620"/>
      <point x="385" y="623"/>
      <point x="349" y="623" type="curve" smooth="yes"/>
      <point x="166" y="623"/>
      <point x="45" y="533"/>
      <point x="45" y="383" type="curve" smooth="yes"/>
      <point x="45" y="255"/>
      <point x="148" y="148"/>
      <point x="309" y="141" type="curve"/>
      <point x="309" y="81" type="line" smooth="yes"/>
      <point x="309" y="4"/>
      <point x="303" y="-74"/>
      <point x="295" y="-101" type="curve"/>
      <point x="295" y="-100" type="line"/>
      <point x="285" y="-133"/>
      <point x="266" y="-157"/>
      <point x="249" y="-157" type="curve" smooth="yes"/>
      <point x="230" y="-158"/>
      <point x="228" y="-135"/>
      <point x="209" y="-134" type="curve" smooth="yes"/>
      <point x="176" y="-134"/>
      <point x="153" y="-163"/>
      <point x="153" y="-203" type="curve" smooth="yes"/>
      <point x="153" y="-220"/>
      <point x="171" y="-232"/>
    </contour>
    <contour>
      <point x="309" y="177" type="curve"/>
      <point x="293" y="178"/>
      <point x="265" y="180"/>
      <point x="260" y="182" type="curve"/>
      <point x="260" y="582" type="line"/>
      <point x="271" y="585"/>
      <point x="299" y="585"/>
      <point x="310" y="585" type="curve"/>
      <point x="310" y="570"/>
      <point x="309" y="291"/>
    </contour>
  </outline>
</glyph>
<glyph name="periodcentered" format="2">
  <advance width="216"/>
  <unicode hex="00B7"/>
  <outline>
    <contour>
      <point x="108" y="199" type="curve" smooth="yes"/>
      <point x="145" y="199"/>
      <point x="171" y="225"/>
      <point x="171" y="262" type="curve" smooth="yes"/>
      <point x="171" y="299"/>
      <point x="145" y="325"/>
      <point x="108" y="325" type="curve" smooth="yes"/>
      <point x="71" y="325"/>
      <point x="45" y="299"/>
      <point x="45" y="262" type="curve" smooth="yes"/>
      <point x="45" y="225"/>
      <point x="71" y="199"/>
    </contour>
  </outline>
</glyph>
<glyph name="questiondown" format="2">
  <advance width="375"/>
  <unicode hex="00BF"/>
  <outline>
    <contour>
      <point x="193" y="284" type="curve" smooth="yes"/>
      <point x="184" y="284"/>
      <point x="151" y="270"/>
      <point x="112" y="251" type="curve"/>
      <point x="114" y="238" type="line"/>
      <point x="146" y="237" type="line" smooth="yes"/>
      <point x="171" y="236"/>
      <point x="189" y="218"/>
      <point x="189" y="194" type="curve" smooth="yes"/>
      <point x="189" y="107"/>
      <point x="47" y="108"/>
      <point x="45" y="-12" type="curve"/>
      <point x="45" y="-73"/>
      <point x="88" y="-117"/>
      <point x="149" y="-117" type="curve" smooth="yes"/>
      <point x="178" y="-117"/>
      <point x="222" y="-100"/>
      <point x="261" y="-76" type="curve" smooth="yes"/>
      <point x="293" y="-54"/>
      <point x="315" y="-17"/>
      <point x="315" y="14" type="curve" smooth="yes"/>
      <point x="315" y="45"/>
      <point x="243" y="31"/>
      <point x="243" y="0" type="curve" smooth="yes"/>
      <point x="243" y="-16"/>
      <point x="250" y="-12"/>
      <point x="250" y="-27" type="curve" smooth="yes"/>
      <point x="250" y="-54"/>
      <point x="227" y="-73"/>
      <point x="199" y="-73" type="curve" smooth="yes"/>
      <point x="149" y="-73"/>
      <point x="120" y="-46"/>
      <point x="121" y="-6" type="curve" smooth="yes"/>
      <point x="126" y="137"/>
      <point x="261" y="137"/>
      <point x="261" y="221" type="curve" smooth="yes"/>
      <point x="261" y="258"/>
      <point x="229" y="284"/>
    </contour>
    <contour>
      <point x="184" y="460" type="curve" smooth="yes"/>
      <point x="162" y="460"/>
      <point x="144" y="442"/>
      <point x="144" y="420" type="curve" smooth="yes"/>
      <point x="144" y="398"/>
      <point x="162" y="380"/>
      <point x="184" y="380" type="curve" smooth="yes"/>
      <point x="206" y="380"/>
      <point x="224" y="398"/>
      <point x="224" y="420" type="curve" smooth="yes"/>
      <point x="224" y="442"/>
      <point x="206" y="460"/>
    </contour>
  </outline>
</glyph>
<glyph name="AE" format="2">
  <advance width="1008"/>
  <unicode hex="00C6"/>
  <anchor x="504" y="0" name="bottom"/>
  <anchor x="504" y="634" name="top"/>
  <outline>
    <contour>
      <point x="0" y="0" type="line"/>
      <point x="288" y="0" type="line"/>
      <point x="288" y="23" type="line"/>
      <point x="211" y="23"/>
      <point x="175" y="60"/>
      <point x="213" y="130" type="curve" smooth="yes"/>
      <point x="475" y="614" type="line"/>
      <point x="402" y="635" type="line"/>
      <point x="321" y="469"/>
      <point x="167" y="198"/>
      <point x="105" y="83" type="curve" smooth="yes"/>
      <point x="86" y="49"/>
      <point x="42" y="25"/>
      <point x="0" y="25" type="curve"/>
    </contour>
    <contour>
      <point x="272" y="274" type="line"/>
      <point x="582" y="274" type="line"/>
      <point x="586" y="332" type="line"/>
      <point x="271" y="332" type="line"/>
    </contour>
    <contour>
      <point x="360" y="-3" type="line"/>
      <point x="419" y="-1"/>
      <point x="503" y="0"/>
      <point x="548" y="0" type="curve"/>
      <point x="729" y="0"/>
      <point x="861" y="-2"/>
      <point x="956" y="-4" type="curve"/>
      <point x="970" y="43"/>
      <point x="980" y="109"/>
      <point x="980" y="156" type="curve"/>
      <point x="935" y="157" type="line"/>
      <point x="923" y="90"/>
      <point x="884" y="43"/>
      <point x="841" y="40" type="curve" smooth="yes"/>
      <point x="809" y="38"/>
      <point x="761" y="37"/>
      <point x="706" y="37" type="curve" smooth="yes"/>
      <point x="668" y="37"/>
      <point x="644" y="51"/>
      <point x="636" y="68" type="curve" smooth="yes"/>
      <point x="633" y="74"/>
      <point x="631" y="90"/>
      <point x="631" y="107" type="curve" smooth="yes"/>
      <point x="629" y="309" type="line" smooth="yes"/>
      <point x="629" y="328"/>
      <point x="631" y="425"/>
      <point x="631" y="527" type="curve"/>
      <point x="631" y="595" type="line"/>
      <point x="709" y="595"/>
      <point x="747" y="598"/>
      <point x="816" y="594" type="curve" smooth="yes"/>
      <point x="839" y="592"/>
      <point x="863" y="562"/>
      <point x="873" y="481" type="curve"/>
      <point x="924" y="481" type="line"/>
      <point x="925" y="518"/>
      <point x="930" y="604"/>
      <point x="937" y="637" type="curve"/>
      <point x="872" y="635"/>
      <point x="717" y="634"/>
      <point x="558" y="634" type="curve"/>
      <point x="509" y="634"/>
      <point x="354" y="635"/>
      <point x="329" y="637" type="curve"/>
      <point x="326" y="616" type="line"/>
      <point x="368" y="604"/>
      <point x="376" y="592"/>
      <point x="389" y="585" type="curve"/>
      <point x="482" y="585" type="line"/>
      <point x="483" y="312" type="line"/>
      <point x="481" y="91" type="line" smooth="yes"/>
      <point x="481" y="64"/>
      <point x="469" y="40"/>
      <point x="453" y="32" type="curve" smooth="yes"/>
      <point x="451" y="31"/>
      <point x="431" y="25"/>
      <point x="360" y="21" type="curve"/>
    </contour>
    <contour>
      <point x="776" y="184" type="curve"/>
      <point x="828" y="184" type="line"/>
      <point x="822" y="250"/>
      <point x="822" y="360"/>
      <point x="828" y="426" type="curve"/>
      <point x="774" y="426" type="line"/>
      <point x="773" y="420"/>
      <point x="770" y="406"/>
      <point x="765" y="392" type="curve"/>
      <point x="751" y="356"/>
      <point x="739" y="332"/>
      <point x="681" y="332" type="curve" smooth="yes"/>
      <point x="523" y="332" type="line"/>
      <point x="523" y="274" type="line"/>
      <point x="681" y="274" type="line" smooth="yes"/>
      <point x="746" y="274"/>
      <point x="756" y="253"/>
      <point x="766" y="220" type="curve" smooth="yes"/>
      <point x="770" y="208"/>
      <point x="773" y="196"/>
    </contour>
  </outline>
</glyph>
<glyph name="multiply" format="2">
  <advance width="570"/>
  <unicode hex="00D7"/>
  <outline>
    <contour>
      <point x="102" y="93" type="line"/>
      <point x="283" y="242" type="line"/>
      <point x="470" y="89" type="line"/>
      <point x="510" y="128" type="line"/>
      <point x="323" y="281" type="line"/>
      <point x="507" y="431" type="line"/>
      <point x="467" y="470" type="line"/>
      <point x="284" y="321" type="line"/>
      <point x="99" y="472" type="line"/>
      <point x="60" y="432" type="line"/>
      <point x="244" y="281" type="line"/>
      <point x="62" y="132" type="line"/>
    </contour>
  </outline>
</glyph>
<glyph name="Oslash" format="2">
  <advance width="756"/>
  <unicode hex="00D8"/>
  <anchor x="378" y="0" name="bottom"/>
  <anchor x="378" y="634" name="top"/>
  <anchor x="405" y="317" name="center"/>
  <anchor x="722" y="10" name="ogonek"/>
  <anchor x="29" y="634" name="topleft"/>
  <anchor x="781" y="634" name="topright"/>
  <outline>
    <contour>
      <point x="647" y="606" type="line"/>
      <point x="79" y="38" type="line"/>
      <point x="107" y="10" type="line"/>
      <point x="675" y="578" type="line"/>
    </contour>
    <component base="O"/>
  </outline>
</glyph>
<glyph name="Thorn" format="2">
  <advance width="465"/>
  <unicode hex="00DE"/>
  <anchor x="234" y="0" name="bottom"/>
  <anchor x="234" y="634" name="top"/>
  <outline>
    <contour>
      <point x="0" y="0" type="line"/>
      <point x="252" y="0" type="line"/>
      <point x="252" y="25" type="line"/>
      <point x="219" y="36"/>
      <point x="198" y="39"/>
      <point x="186" y="51" type="curve" smooth="yes"/>
      <point x="177" y="60"/>
      <point x="172" y="81"/>
      <point x="172" y="111" type="curve" smooth="yes"/>
      <point x="172" y="113"/>
      <point x="170" y="302"/>
      <point x="173" y="506" type="curve" smooth="yes"/>
      <point x="173" y="532"/>
      <point x="177" y="556"/>
      <point x="186" y="567" type="curve" smooth="yes"/>
      <point x="197" y="581"/>
      <point x="239" y="586"/>
      <point x="270" y="591" type="curve"/>
      <point x="270" y="616" type="line"/>
      <point x="0" y="616" type="line"/>
      <point x="0" y="591" type="line"/>
      <point x="43" y="580"/>
      <point x="65" y="576"/>
      <point x="76" y="565" type="curve" smooth="yes"/>
      <point x="85" y="556"/>
      <point x="89" y="538"/>
      <point x="90" y="505" type="curve" smooth="yes"/>
      <point x="90" y="474"/>
      <point x="91" y="156"/>
      <point x="89" y="101" type="curve" smooth="yes"/>
      <point x="88" y="75"/>
      <point x="85" y="60"/>
      <point x="76" y="49" type="curve" smooth="yes"/>
      <point x="65" y="35"/>
      <point x="23" y="30"/>
      <point x="0" y="25" type="curve"/>
    </contour>
    <contour>
      <point x="233" y="140" type="curve" smooth="yes"/>
      <point x="362" y="140"/>
      <point x="450" y="206"/>
      <point x="450" y="317" type="curve" smooth="yes"/>
      <point x="450" y="421"/>
      <point x="373" y="489"/>
      <point x="261" y="487" type="curve"/>
      <point x="242" y="453" type="line"/>
      <point x="316" y="453"/>
      <point x="364" y="397"/>
      <point x="364" y="305" type="curve" smooth="yes"/>
      <point x="364" y="215"/>
      <point x="301" y="164"/>
      <point x="202" y="164" type="curve"/>
      <point x="202" y="141" type="line"/>
      <point x="213" y="140"/>
      <point x="223" y="140"/>
    </contour>
    <contour>
      <point x="139" y="452" type="line"/>
      <point x="242" y="453" type="line"/>
      <point x="261" y="487" type="line"/>
      <point x="139" y="486" type="line"/>
    </contour>
  </outline>
</glyph>
<glyph name="germandbls" format="2">
  <advance width="597"/>
  <unicode hex="00DF"/>
  <anchor x="294" y="0" name="bottom"/>
  <anchor x="294" y="694" name="top"/>
  <outline>
    <contour>
      <point x="6" y="0" type="line"/>
      <point x="209" y="0" type="line"/>
      <point x="207" y="69" type="line" smooth="yes"/>
      <point x="203" y="188"/>
      <point x="203" y="385"/>
      <point x="206" y="517" type="curve" smooth="yes"/>
      <point x="208" y="592"/>
      <point x="246" y="645"/>
      <point x="289" y="645" type="curve"/>
      <point x="326" y="683" type="line"/>
      <point x="220" y="683"/>
      <point x="64" y="601"/>
      <point x="61" y="485" type="curve" smooth="yes"/>
      <point x="59" y="410"/>
      <point x="60" y="238"/>
      <point x="60" y="69" type="curve" smooth="yes"/>
      <point x="60" y="46"/>
      <point x="44" y="35"/>
      <point x="6" y="18" type="curve"/>
    </contour>
    <contour>
      <point x="361" y="-6" type="curve" smooth="yes"/>
      <point x="490" y="-6"/>
      <point x="582" y="50"/>
      <point x="582" y="129" type="curve" smooth="yes"/>
      <point x="582" y="247"/>
      <point x="361" y="261"/>
      <point x="361" y="339" type="curve" smooth="yes"/>
      <point x="361" y="430"/>
      <point x="505" y="412"/>
      <point x="498" y="568" type="curve" smooth="yes"/>
      <point x="495" y="635"/>
      <point x="424" y="683"/>
      <point x="326" y="683" type="curve"/>
      <point x="289" y="645" type="line"/>
      <point x="324" y="645"/>
      <point x="352" y="602"/>
      <point x="355" y="542" type="curve"/>
      <point x="362" y="406"/>
      <point x="256" y="420"/>
      <point x="256" y="309" type="curve" smooth="yes"/>
      <point x="256" y="189"/>
      <point x="439" y="194"/>
      <point x="439" y="103" type="curve" smooth="yes"/>
      <point x="439" y="52"/>
      <point x="408" y="18"/>
      <point x="364" y="22" type="curve" smooth="yes"/>
      <point x="332" y="25"/>
      <point x="305" y="73"/>
      <point x="298" y="140" type="curve"/>
      <point x="253" y="140" type="line"/>
      <point x="257" y="128"/>
      <point x="258" y="72"/>
      <point x="256" y="6" type="curve"/>
      <point x="281" y="-1"/>
      <point x="324" y="-6"/>
    </contour>
    <contour>
      <point x="-13" y="349" type="line"/>
      <point x="187" y="334" type="line"/>
      <point x="187" y="389" type="line"/>
      <point x="56" y="384" type="line"/>
      <point x="-13" y="359" type="line"/>
    </contour>
  </outline>
</glyph>
<glyph name="ae" format="2">
  <advance width="738"/>
  <unicode hex="00E6"/>
  <anchor x="314" y="0" name="bottom"/>
  <anchor x="314" y="399" name="top"/>
  <outline>
    <contour>
      <point x="311" y="138" type="curve"/>
      <point x="343" y="214" type="line"/>
      <point x="343" y="181"/>
      <point x="434" y="133"/>
      <point x="436" y="290" type="curve"/>
      <point x="436" y="362"/>
      <point x="376" y="413"/>
      <point x="290" y="413" type="curve" smooth="yes"/>
      <point x="228" y="413"/>
      <point x="145" y="389"/>
      <point x="89" y="354" type="curve" smooth="yes"/>
      <point x="57" y="332"/>
      <point x="35" y="295"/>
      <point x="35" y="264" type="curve" smooth="yes"/>
      <point x="35" y="197"/>
      <point x="161" y="229"/>
      <point x="161" y="296" type="curve" smooth="yes"/>
      <point x="161" y="312"/>
      <point x="154" y="308"/>
      <point x="154" y="323" type="curve" smooth="yes"/>
      <point x="154" y="350"/>
      <point x="176" y="369"/>
      <point x="208" y="369" type="curve" smooth="yes"/>
      <point x="262" y="369"/>
      <point x="297" y="334"/>
      <point x="292" y="284" type="curve" smooth="yes"/>
      <point x="285" y="218" type="line"/>
      <point x="284" y="199"/>
      <point x="295" y="166"/>
    </contour>
    <contour>
      <point x="104" y="-6" type="curve" smooth="yes"/>
      <point x="206" y="-6"/>
      <point x="299" y="29"/>
      <point x="345" y="84" type="curve"/>
      <point x="345" y="103" type="line"/>
      <point x="314" y="79"/>
      <point x="262" y="62"/>
      <point x="220" y="62" type="curve" smooth="yes"/>
      <point x="191" y="62"/>
      <point x="171" y="89"/>
      <point x="171" y="128" type="curve"/>
      <point x="20" y="112" type="line"/>
      <point x="20" y="43"/>
      <point x="55" y="-6"/>
    </contour>
    <contour>
      <point x="21" y="112" type="curve"/>
      <point x="172" y="128" type="line"/>
      <point x="172" y="156"/>
      <point x="233" y="187"/>
      <point x="320" y="203" type="curve"/>
      <point x="321" y="231" type="line"/>
      <point x="145" y="203"/>
      <point x="21" y="154"/>
    </contour>
    <contour>
      <point x="433" y="210" type="curve" smooth="yes"/>
      <point x="433" y="310"/>
      <point x="462" y="380"/>
      <point x="503" y="380" type="curve" smooth="yes"/>
      <point x="536" y="380"/>
      <point x="562" y="333"/>
      <point x="565" y="266" type="curve"/>
      <point x="325" y="260" type="line"/>
      <point x="321" y="231" type="line"/>
      <point x="706" y="225" type="line"/>
      <point x="718" y="239" type="line"/>
      <point x="718" y="341"/>
      <point x="643" y="413"/>
      <point x="537" y="413" type="curve" smooth="yes"/>
      <point x="391" y="413"/>
      <point x="287" y="320"/>
      <point x="287" y="188" type="curve" smooth="yes"/>
      <point x="287" y="71"/>
      <point x="383" y="-11"/>
      <point x="518" y="-11" type="curve" smooth="yes"/>
      <point x="593" y="-11"/>
      <point x="675" y="40"/>
      <point x="716" y="113" type="curve"/>
      <point x="698" y="126" type="line"/>
      <point x="668" y="83"/>
      <point x="601" y="52"/>
      <point x="538" y="52" type="curve" smooth="yes"/>
      <point x="477" y="52"/>
      <point x="433" y="117"/>
    </contour>
  </outline>
</glyph>
<glyph name="divide" format="2">
  <advance width="576"/>
  <unicode hex="00F7"/>
  <outline>
    <contour>
      <point x="45" y="256" type="line"/>
      <point x="531" y="256" type="line"/>
      <point x="531" y="306" type="line"/>
      <point x="45" y="306" type="line"/>
    </contour>
    <contour>
      <point x="282" y="56" type="curve" smooth="yes"/>
      <point x="315" y="56"/>
      <point x="332" y="73"/>
      <point x="332" y="107" type="curve" smooth="yes"/>
      <point x="332" y="141"/>
      <point x="315" y="158"/>
      <point x="282" y="158" type="curve" smooth="yes"/>
      <point x="247" y="158"/>
      <point x="230" y="141"/>
      <point x="230" y="107" type="curve" smooth="yes"/>
      <point x="230" y="73"/>
      <point x="247" y="56"/>
    </contour>
    <contour>
      <point x="282" y="398" type="curve" smooth="yes"/>
      <point x="315" y="398"/>
      <point x="332" y="415"/>
      <point x="332" y="449" type="curve" smooth="yes"/>
      <point x="332" y="483"/>
      <point x="315" y="500"/>
      <point x="282" y="500" type="curve" smooth="yes"/>
      <point x="247" y="500"/>
      <point x="230" y="483"/>
      <point x="230" y="449" type="curve" smooth="yes"/>
      <point x="230" y="415"/>
      <point x="247" y="398"/>
    </contour>
  </outline>
</glyph>
<glyph name="oslash" format="2">
  <advance width="486"/>
  <unicode hex="00F8"/>
  <anchor x="243" y="399" name="top"/>
  <anchor x="273" y="0" name="bottom"/>
  <anchor x="273" y="200" name="center"/>
  <anchor x="482" y="10" name="ogonek"/>
  <anchor x="514" y="399" name="topright"/>
  <outline>
    <contour>
      <point x="428" y="397" type="line"/>
      <point x="38" y="8" type="line"/>
      <point x="63" y="-17" type="line"/>
      <point x="453" y="372" type="line"/>
    </contour>
    <component base="o"/>
  </outline>
</glyph>
<glyph name="thorn" format="2">
  <advance width="468"/>
  <unicode hex="00FE"/>
  <anchor x="231" y="0" name="bottom"/>
  <anchor x="231" y="694" name="top"/>
  <outline>
    <contour>
      <point x="359" y="174" type="curve"/>
      <point x="438" y="205" type="line"/>
      <point x="438" y="316"/>
      <point x="367" y="395"/>
      <point x="269" y="395" type="curve" smooth="yes"/>
      <point x="224" y="395"/>
      <point x="153" y="362"/>
      <point x="96" y="315" type="curve"/>
      <point x="96" y="296" type="line"/>
      <point x="134" y="319"/>
      <point x="187" y="335"/>
      <point x="224" y="335" type="curve" smooth="yes"/>
      <point x="302" y="335"/>
      <point x="359" y="268"/>
    </contour>
    <contour>
      <point x="6" y="-232" type="line"/>
      <point x="222" y="-232" type="line"/>
      <point x="222" y="-214" type="line"/>
      <point x="168" y="-204"/>
      <point x="132" y="-201"/>
      <point x="132" y="-164" type="curve" smooth="yes"/>
      <point x="132" y="316" type="line"/>
      <point x="131" y="316" type="line"/>
      <point x="132" y="660" type="line"/>
      <point x="119" y="668" type="line"/>
      <point x="-12" y="628" type="line"/>
      <point x="-12" y="607" type="line"/>
      <point x="35" y="592"/>
      <point x="60" y="575"/>
      <point x="60" y="564" type="curve" smooth="yes"/>
      <point x="60" y="-164" type="line" smooth="yes"/>
      <point x="60" y="-197"/>
      <point x="44" y="-200"/>
      <point x="6" y="-214" type="curve"/>
    </contour>
    <contour>
      <point x="438" y="205" type="curve"/>
      <point x="359" y="174" type="line"/>
      <point x="359" y="87"/>
      <point x="303" y="26"/>
      <point x="225" y="26" type="curve" smooth="yes"/>
      <point x="182" y="26"/>
      <point x="131" y="64"/>
      <point x="106" y="117" type="curve"/>
      <point x="80" y="28" type="line"/>
      <point x="112" y="5"/>
      <point x="164" y="-11"/>
      <point x="204" y="-11" type="curve" smooth="yes"/>
      <point x="341" y="-11"/>
      <point x="438" y="78"/>
    </contour>
  </outline>
</glyph>
<glyph name="Dcroat" format="2">
  <advance width="702"/>
  <unicode hex="0110"/>
  <anchor x="369" y="0" name="bottom"/>
  <anchor x="176" y="317" name="center"/>
  <anchor x="369" y="634" name="top"/>
  <outline>
    <contour>
      <point x="30" y="305" type="line"/>
      <point x="43" y="268" type="line"/>
      <point x="270" y="351" type="line"/>
      <point x="258" y="388" type="line"/>
    </contour>
    <component base="D"/>
  </outline>
</glyph>
<glyph name="dcroat" format="2">
  <advance width="486"/>
  <unicode hex="0111"/>
  <anchor x="300" y="0" name="bottom"/>
  <anchor x="444" y="555" name="center"/>
  <anchor x="300" y="399" name="top"/>
  <anchor x="568" y="694" name="topright"/>
  <outline>
    <contour>
      <point x="279" y="471" type="line"/>
      <point x="290" y="441" type="line"/>
      <point x="477" y="509" type="line"/>
      <point x="467" y="539" type="line"/>
    </contour>
    <component base="d"/>
  </outline>
</glyph>
<glyph name="Hbar" format="2">
  <advance width="756"/>
  <unicode hex="0126"/>
  <anchor x="396" y="0" name="bottom"/>
  <anchor x="396" y="476" name="center"/>
  <anchor x="396" y="634" name="top"/>
  <anchor x="2" y="634" name="topleft"/>
  <outline>
    <contour>
      <point x="55" y="509" type="line"/>
      <point x="55" y="469" type="line"/>
      <point x="703" y="469" type="line"/>
      <point x="703" y="509" type="line"/>
    </contour>
    <component base="H"/>
  </outline>
</glyph>
<glyph name="hbar" format="2">
  <advance width="486"/>
  <unicode hex="0127"/>
  <anchor x="285" y="0" name="bottom"/>
  <anchor x="137" y="555" name="center"/>
  <anchor x="285" y="694" name="top"/>
  <outline>
    <contour>
      <point x="9" y="453" type="line"/>
      <point x="20" y="423" type="line"/>
      <point x="207" y="491" type="line"/>
      <point x="197" y="521" type="line"/>
    </contour>
    <component base="h"/>
  </outline>
</glyph>
<glyph name="idotless" format="2">
  <advance width="306"/>
  <unicode hex="0131"/>
  <anchor x="153" y="0" name="bottom"/>
  <anchor x="288" y="0" name="ogonek"/>
  <anchor x="153" y="399" name="top"/>
  <outline>
    <contour>
      <point x="36" y="18" type="curve"/>
      <point x="36" y="0" type="line"/>
      <point x="288" y="0" type="line"/>
      <point x="288" y="18" type="line"/>
      <point x="249" y="32"/>
      <point x="234" y="39"/>
      <point x="234" y="68" type="curve" smooth="yes"/>
      <point x="234" y="148"/>
      <point x="232" y="252"/>
      <point x="234" y="332" type="curve" smooth="yes"/>
      <point x="236" y="411" type="line"/>
      <point x="220" y="421" type="line"/>
      <point x="18" y="362" type="line"/>
      <point x="18" y="341" type="line"/>
      <point x="46" y="333"/>
      <point x="86" y="320"/>
      <point x="87" y="298" type="curve" smooth="yes"/>
      <point x="91" y="223"/>
      <point x="91" y="143"/>
      <point x="87" y="68" type="curve" smooth="yes"/>
      <point x="85" y="39"/>
      <point x="70" y="32"/>
    </contour>
  </outline>
</glyph>
<glyph name="Lslash" format="2">
  <advance width="612"/>
  <unicode hex="0141"/>
  <anchor x="297" y="0" name="bottom"/>
  <anchor x="297" y="317" name="center"/>
  <anchor x="297" y="634" name="top"/>
  <anchor x="592" y="634" name="topright"/>
  <outline>
    <contour>
      <point x="30" y="305" type="line"/>
      <point x="43" y="268" type="line"/>
      <point x="270" y="351" type="line"/>
      <point x="258" y="388" type="line"/>
    </contour>
    <component base="L"/>
  </outline>
</glyph>
<glyph name="lslash" format="2">
  <advance width="216"/>
  <unicode hex="0142"/>
  <anchor x="132" y="0" name="bottom"/>
  <anchor x="132" y="200" name="center"/>
  <anchor x="132" y="694" name="top"/>
  <anchor x="256" y="694" name="topright"/>
  <outline>
    <contour>
      <point x="9" y="327" type="line"/>
      <point x="20" y="297" type="line"/>
      <point x="207" y="365" type="line"/>
      <point x="197" y="395" type="line"/>
    </contour>
    <component base="l"/>
  </outline>
</glyph>
<glyph name="Eng" format="2">
  <advance width="738"/>
  <unicode hex="014A"/>
  <anchor x="369" y="-232" name="bottom"/>
  <anchor x="369" y="634" name="top"/>
  <outline>
    <contour>
      <point x="622" y="-11" type="line"/>
      <point x="628" y="96" type="line"/>
      <point x="149" y="616" type="line"/>
      <point x="18" y="616" type="line"/>
      <point x="18" y="591" type="line"/>
      <point x="41" y="587"/>
      <point x="62" y="579"/>
      <point x="76" y="566" type="curve" smooth="yes"/>
      <point x="129" y="514" type="line"/>
    </contour>
    <contour>
      <point x="18" y="0" type="line"/>
      <point x="252" y="0" type="line"/>
      <point x="252" y="25" type="line"/>
      <point x="216" y="28"/>
      <point x="175" y="35"/>
      <point x="161" y="52" type="curve" smooth="yes"/>
      <point x="148" y="68"/>
      <point x="148" y="78"/>
      <point x="148" y="104" type="curve"/>
      <point x="108" y="104" type="line"/>
      <point x="108" y="77"/>
      <point x="107" y="65"/>
      <point x="93" y="51" type="curve" smooth="yes"/>
      <point x="76" y="34"/>
      <point x="39" y="33"/>
      <point x="18" y="25" type="curve"/>
    </contour>
    <contour>
      <point x="108" y="104" type="line"/>
      <point x="148" y="104" type="line"/>
      <point x="148" y="561" type="line"/>
      <point x="108" y="591" type="line"/>
    </contour>
    <contour>
      <point x="464" y="-232" type="curve" smooth="yes"/>
      <point x="498" y="-232"/>
      <point x="553" y="-190"/>
      <point x="571" y="-164" type="curve" smooth="yes"/>
      <point x="618" y="-96"/>
      <point x="651" y="29"/>
      <point x="650" y="130" type="curve" smooth="yes"/>
      <point x="647" y="341"/>
      <point x="647" y="332"/>
      <point x="649" y="525" type="curve" smooth="yes"/>
      <point x="649" y="555"/>
      <point x="654" y="569"/>
      <point x="667" y="577" type="curve" smooth="yes"/>
      <point x="681" y="584"/>
      <point x="704" y="585"/>
      <point x="738" y="591" type="curve"/>
      <point x="738" y="616" type="line"/>
      <point x="486" y="616" type="line"/>
      <point x="486" y="591" type="line"/>
      <point x="521" y="587"/>
      <point x="545" y="586"/>
      <point x="560" y="574" type="curve" smooth="yes"/>
      <point x="571" y="565"/>
      <point x="576" y="551"/>
      <point x="576" y="525" type="curve" smooth="yes"/>
      <point x="576" y="65" type="line"/>
      <point x="574" y="110" type="line"/>
      <point x="574" y="4" type="line" smooth="yes"/>
      <point x="574" y="-48"/>
      <point x="565" y="-107"/>
      <point x="545" y="-138" type="curve" smooth="yes"/>
      <point x="538" y="-150"/>
      <point x="528" y="-157"/>
      <point x="516" y="-157" type="curve" smooth="yes"/>
      <point x="497" y="-158"/>
      <point x="495" y="-135"/>
      <point x="476" y="-134" type="curve" smooth="yes"/>
      <point x="443" y="-134"/>
      <point x="420" y="-163"/>
      <point x="420" y="-205" type="curve" smooth="yes"/>
      <point x="420" y="-220"/>
      <point x="438" y="-232"/>
    </contour>
  </outline>
</glyph>
<glyph name="eng" format="2">
  <advance width="450"/>
  <unicode hex="014B"/>
  <anchor x="225" y="-232" name="bottom"/>
  <anchor x="225" y="399" name="top"/>
  <outline>
    <contour>
      <point x="341" y="1" type="curve"/>
      <point x="414" y="68" type="line"/>
      <point x="414" y="273" type="line" smooth="yes"/>
      <point x="414" y="355"/>
      <point x="382" y="395"/>
      <point x="312" y="395" type="curve" smooth="yes"/>
      <point x="262" y="395"/>
      <point x="205" y="365"/>
      <point x="139" y="305" type="curve"/>
      <point x="139" y="286" type="line"/>
      <point x="199" y="329"/>
      <point x="232" y="335"/>
      <point x="267" y="335" type="curve" smooth="yes"/>
      <point x="319" y="335"/>
      <point x="334" y="306"/>
      <point x="338" y="246" type="curve" smooth="yes"/>
      <point x="342" y="189"/>
      <point x="341" y="58"/>
    </contour>
    <contour>
      <point x="36" y="0" type="line"/>
      <point x="216" y="0" type="line"/>
      <point x="216" y="18" type="line"/>
      <point x="182" y="32"/>
      <point x="162" y="38"/>
      <point x="162" y="68" type="curve" smooth="yes"/>
      <point x="162" y="315" type="line"/>
      <point x="164" y="315" type="line"/>
      <point x="165" y="397" type="line"/>
      <point x="150" y="403" type="line"/>
      <point x="18" y="362" type="line"/>
      <point x="18" y="341" type="line"/>
      <point x="46" y="333"/>
      <point x="86" y="319"/>
      <point x="89" y="298" type="curve" smooth="yes"/>
      <point x="91" y="284"/>
      <point x="91" y="129"/>
      <point x="89" y="68" type="curve" smooth="yes"/>
      <point x="88" y="37"/>
      <point x="76" y="32"/>
      <point x="36" y="18" type="curve"/>
    </contour>
    <contour>
      <point x="414" y="68" type="curve"/>
      <point x="341" y="1" type="line"/>
      <point x="341" y="-87"/>
      <point x="309" y="-160"/>
      <point x="286" y="-178" type="curve"/>
      <point x="283" y="-179"/>
      <point x="279" y="-179"/>
      <point x="275" y="-179" type="curve" smooth="yes"/>
      <point x="271" y="-179"/>
      <point x="267" y="-179"/>
      <point x="264" y="-178" type="curve" smooth="yes"/>
      <point x="250" y="-174"/>
      <point x="255" y="-168"/>
      <point x="240" y="-164" type="curve" smooth="yes"/>
      <point x="219" y="-158"/>
      <point x="196" y="-191"/>
      <point x="196" y="-212" type="curve" smooth="yes"/>
      <point x="196" y="-221"/>
      <point x="199" y="-228"/>
      <point x="208" y="-230" type="curve" smooth="yes"/>
      <point x="214" y="-231"/>
      <point x="220" y="-232"/>
      <point x="227" y="-232" type="curve" smooth="yes"/>
      <point x="242" y="-232"/>
      <point x="258" y="-229"/>
      <point x="271" y="-224" type="curve" smooth="yes"/>
      <point x="273" y="-223"/>
      <point x="275" y="-222"/>
      <point x="276" y="-222" type="curve"/>
      <point x="286" y="-218"/>
      <point x="299" y="-208"/>
      <point x="309" y="-201" type="curve" smooth="yes"/>
      <point x="361" y="-164"/>
      <point x="414" y="-51"/>
    </contour>
  </outline>
</glyph>
<glyph name="OE" format="2">
  <advance width="1134"/>
  <unicode hex="0152"/>
  <anchor x="567" y="0" name="bottom"/>
  <anchor x="567" y="634" name="top"/>
  <outline>
    <contour>
      <point x="414" y="-11" type="curve" smooth="yes"/>
      <point x="605" y="-11"/>
      <point x="728" y="115"/>
      <point x="728" y="302" type="curve" smooth="yes"/>
      <point x="728" y="503"/>
      <point x="605" y="645"/>
      <point x="414" y="645" type="curve" smooth="yes"/>
      <point x="225" y="645"/>
      <point x="56" y="498"/>
      <point x="56" y="312" type="curve" smooth="yes"/>
      <point x="56" y="125"/>
      <point x="225" y="-11"/>
    </contour>
    <contour>
      <point x="224" y="322" type="curve" smooth="yes"/>
      <point x="224" y="487"/>
      <point x="296" y="604"/>
      <point x="397" y="604" type="curve" smooth="yes"/>
      <point x="507" y="604"/>
      <point x="584" y="479"/>
      <point x="584" y="302" type="curve" smooth="yes"/>
      <point x="584" y="143"/>
      <point x="521" y="30"/>
      <point x="431" y="30" type="curve" smooth="yes"/>
      <point x="310" y="30"/>
      <point x="224" y="151"/>
    </contour>
    <contour>
      <point x="612" y="-3" type="line"/>
      <point x="626" y="-1"/>
      <point x="673" y="0"/>
      <point x="686" y="0" type="curve"/>
      <point x="833" y="0"/>
      <point x="999" y="-1"/>
      <point x="1076" y="-3" type="curve"/>
      <point x="1090" y="44"/>
      <point x="1100" y="128"/>
      <point x="1100" y="175" type="curve"/>
      <point x="1053" y="175" type="line"/>
      <point x="1041" y="108"/>
      <point x="1002" y="45"/>
      <point x="977" y="42" type="curve" smooth="yes"/>
      <point x="945" y="38"/>
      <point x="873" y="39"/>
      <point x="816" y="39" type="curve" smooth="yes"/>
      <point x="778" y="39"/>
      <point x="746" y="51"/>
      <point x="738" y="68" type="curve" smooth="yes"/>
      <point x="735" y="74"/>
      <point x="733" y="90"/>
      <point x="733" y="107" type="curve" smooth="yes"/>
      <point x="731" y="303" type="line" smooth="yes"/>
      <point x="730" y="406"/>
      <point x="732" y="472"/>
      <point x="733" y="596" type="curve"/>
      <point x="816" y="596" type="line"/>
      <point x="844" y="596"/>
      <point x="922" y="596"/>
      <point x="954" y="594" type="curve" smooth="yes"/>
      <point x="979" y="592"/>
      <point x="1002" y="527"/>
      <point x="1010" y="482" type="curve"/>
      <point x="1062" y="482" type="line"/>
      <point x="1063" y="519"/>
      <point x="1068" y="605"/>
      <point x="1075" y="638" type="curve"/>
      <point x="1010" y="636"/>
      <point x="821" y="635"/>
      <point x="696" y="635" type="curve"/>
      <point x="664" y="636"/>
      <point x="637" y="636"/>
      <point x="612" y="638" type="curve"/>
      <point x="620" y="548" type="line"/>
      <point x="619" y="544" type="line"/>
      <point x="621" y="316" type="line"/>
      <point x="619" y="91" type="line"/>
      <point x="620" y="88" type="line"/>
    </contour>
    <contour>
      <point x="911" y="200" type="line"/>
      <point x="963" y="200" type="line"/>
      <point x="957" y="266"/>
      <point x="957" y="378"/>
      <point x="963" y="444" type="curve"/>
      <point x="910" y="444" type="line"/>
      <point x="910" y="438"/>
      <point x="905" y="424"/>
      <point x="900" y="410" type="curve"/>
      <point x="883" y="374"/>
      <point x="860" y="350"/>
      <point x="818" y="350" type="curve" smooth="yes"/>
      <point x="679" y="350" type="line"/>
      <point x="679" y="290" type="line"/>
      <point x="818" y="290" type="line" smooth="yes"/>
      <point x="867" y="290"/>
      <point x="889" y="268"/>
      <point x="901" y="236" type="curve" smooth="yes"/>
    </contour>
  </outline>
</glyph>
